G04 #@! TF.FileFunction,Paste,Bot*
%FSLAX46Y46*%
G04 Gerber Fmt 4.6, Leading zero omitted, Abs format (unit mm)*
G04 Created by KiCad (PCBNEW 4.0.5+dfsg1-4) date Tue Aug 15 12:32:53 2017*
%MOMM*%
%LPD*%
G01*
G04 APERTURE LIST*
%ADD10C,0.100000*%
%ADD11R,0.550000X1.500000*%
%ADD12R,1.500000X0.550000*%
%ADD13R,1.500000X1.250000*%
%ADD14R,0.500000X2.300000*%
%ADD15R,2.000000X2.500000*%
%ADD16R,1.300000X1.500000*%
%ADD17R,1.500000X1.300000*%
%ADD18R,1.000000X1.700000*%
%ADD19R,1.800000X2.100000*%
G04 APERTURE END LIST*
D10*
D11*
X135906250Y-133096875D03*
X135106250Y-133096875D03*
X134306250Y-133096875D03*
X133506250Y-133096875D03*
X132706250Y-133096875D03*
X131906250Y-133096875D03*
X131106250Y-133096875D03*
X130306250Y-133096875D03*
X129506250Y-133096875D03*
X128706250Y-133096875D03*
X127906250Y-133096875D03*
D12*
X126206250Y-131396875D03*
X126206250Y-130596875D03*
X126206250Y-129796875D03*
X126206250Y-128996875D03*
X126206250Y-128196875D03*
X126206250Y-127396875D03*
X126206250Y-126596875D03*
X126206250Y-125796875D03*
X126206250Y-124996875D03*
X126206250Y-124196875D03*
X126206250Y-123396875D03*
D11*
X127906250Y-121696875D03*
X128706250Y-121696875D03*
X129506250Y-121696875D03*
X130306250Y-121696875D03*
X131106250Y-121696875D03*
X131906250Y-121696875D03*
X132706250Y-121696875D03*
X133506250Y-121696875D03*
X134306250Y-121696875D03*
X135106250Y-121696875D03*
X135906250Y-121696875D03*
D12*
X137606250Y-123396875D03*
X137606250Y-124196875D03*
X137606250Y-124996875D03*
X137606250Y-125796875D03*
X137606250Y-126596875D03*
X137606250Y-127396875D03*
X137606250Y-128196875D03*
X137606250Y-128996875D03*
X137606250Y-129796875D03*
X137606250Y-130596875D03*
X137606250Y-131396875D03*
D13*
X141879000Y-130746500D03*
X144379000Y-130746500D03*
X116621875Y-122634375D03*
X119121875Y-122634375D03*
X116621875Y-132159375D03*
X119121875Y-132159375D03*
X142661000Y-122618500D03*
X145161000Y-122618500D03*
X127361000Y-119062500D03*
X124861000Y-119062500D03*
X121562500Y-134540625D03*
X119062500Y-134540625D03*
X140863000Y-133794500D03*
X143363000Y-133794500D03*
X131171000Y-135731250D03*
X128671000Y-135731250D03*
D14*
X46025000Y-49800000D03*
X46825000Y-49800000D03*
X47625000Y-49800000D03*
X48425000Y-49800000D03*
X49225000Y-49800000D03*
D15*
X43175000Y-49700000D03*
X43175000Y-44200000D03*
X52075000Y-49700000D03*
X52075000Y-44200000D03*
D16*
X48869600Y-55281840D03*
X48869600Y-57981840D03*
X46296580Y-57981840D03*
X46296580Y-55281840D03*
D17*
X55800000Y-97631250D03*
X58500000Y-97631250D03*
X142621000Y-120253125D03*
X145321000Y-120253125D03*
D18*
X55250000Y-87337500D03*
X55250000Y-93637500D03*
X59050000Y-87337500D03*
X59050000Y-93637500D03*
D19*
X116721875Y-128846875D03*
X116721875Y-125946875D03*
X119021875Y-125946875D03*
X119021875Y-128846875D03*
M02*
