G04 #@! TF.FileFunction,Soldermask,Top*
%FSLAX46Y46*%
G04 Gerber Fmt 4.6, Leading zero omitted, Abs format (unit mm)*
G04 Created by KiCad (PCBNEW 4.0.5+dfsg1-4) date Tue Jan 23 23:06:14 2018*
%MOMM*%
%LPD*%
G01*
G04 APERTURE LIST*
%ADD10C,0.100000*%
%ADD11C,2.686000*%
%ADD12C,1.300000*%
%ADD13C,7.400000*%
%ADD14R,2.100000X2.100000*%
%ADD15O,2.100000X2.100000*%
G04 APERTURE END LIST*
D10*
D11*
X40322500Y-76517500D03*
X46672500Y-73977500D03*
X54610000Y-57467500D03*
X60960000Y-54927500D03*
X157003750Y-133667500D03*
X163353750Y-131127500D03*
X78422500Y-114617500D03*
X84772500Y-112077500D03*
X290353750Y-95567500D03*
X296703750Y-93027500D03*
X116522500Y-114617500D03*
X122872500Y-112077500D03*
X85566250Y-133667500D03*
X91916250Y-131127500D03*
X168910000Y-57467500D03*
X175260000Y-54927500D03*
X73660000Y-57467500D03*
X80010000Y-54927500D03*
X35560000Y-57467500D03*
X41910000Y-54927500D03*
X226060000Y-57467500D03*
X232410000Y-54927500D03*
X245110000Y-57467500D03*
X251460000Y-54927500D03*
X264160000Y-57467500D03*
X270510000Y-54927500D03*
X297815000Y-47307500D03*
X291465000Y-49847500D03*
X235585000Y-76517500D03*
X241935000Y-73977500D03*
X254635000Y-76517500D03*
X260985000Y-73977500D03*
X273685000Y-76517500D03*
X280035000Y-73977500D03*
X297497500Y-76517500D03*
X303847500Y-73977500D03*
X240347500Y-95567500D03*
X246697500Y-93027500D03*
X259397500Y-95567500D03*
X265747500Y-93027500D03*
X92710000Y-57467500D03*
X99060000Y-54927500D03*
X249872500Y-114617500D03*
X256222500Y-112077500D03*
X111760000Y-57467500D03*
X118110000Y-54927500D03*
X130810000Y-57467500D03*
X137160000Y-54927500D03*
X149860000Y-57467500D03*
X156210000Y-54927500D03*
X187960000Y-57467500D03*
X194310000Y-54927500D03*
X207010000Y-57467500D03*
X213360000Y-54927500D03*
X64135000Y-76517500D03*
X70485000Y-73977500D03*
X83185000Y-76517500D03*
X89535000Y-73977500D03*
X102235000Y-76517500D03*
X108585000Y-73977500D03*
X121285000Y-76517500D03*
X127635000Y-73977500D03*
X140335000Y-76517500D03*
X146685000Y-73977500D03*
X159385000Y-76517500D03*
X165735000Y-73977500D03*
X178435000Y-76517500D03*
X184785000Y-73977500D03*
X197485000Y-76517500D03*
X203835000Y-73977500D03*
X216535000Y-76517500D03*
X222885000Y-73977500D03*
X42703750Y-95567500D03*
X49053750Y-93027500D03*
X68897500Y-95567500D03*
X75247500Y-93027500D03*
X87947500Y-95567500D03*
X94297500Y-93027500D03*
X106997500Y-95567500D03*
X113347500Y-93027500D03*
X126047500Y-95567500D03*
X132397500Y-93027500D03*
X145097500Y-95567500D03*
X151447500Y-93027500D03*
X164147500Y-95567500D03*
X170497500Y-93027500D03*
X183197500Y-95567500D03*
X189547500Y-93027500D03*
X202247500Y-95567500D03*
X208597500Y-93027500D03*
X221297500Y-95567500D03*
X227647500Y-93027500D03*
X97472500Y-114617500D03*
X103822500Y-112077500D03*
X135572500Y-114617500D03*
X141922500Y-112077500D03*
X154622500Y-114617500D03*
X160972500Y-112077500D03*
X173672500Y-114617500D03*
X180022500Y-112077500D03*
X192722500Y-114617500D03*
X199072500Y-112077500D03*
X211772500Y-114617500D03*
X218122500Y-112077500D03*
X230822500Y-114617500D03*
X237172500Y-112077500D03*
X37941250Y-133667500D03*
X44291250Y-131127500D03*
X61753750Y-133667500D03*
X68103750Y-131127500D03*
D12*
X45425000Y-47200000D03*
X49825000Y-47200000D03*
D13*
X54768750Y-71437500D03*
X157162500Y-90487500D03*
X289622500Y-71437500D03*
X219075000Y-128587500D03*
D11*
X285591250Y-114617500D03*
X291941250Y-112077500D03*
X276066250Y-133667500D03*
X282416250Y-131127500D03*
X299878750Y-133667500D03*
X306228750Y-131127500D03*
X47466250Y-114617500D03*
X53816250Y-112077500D03*
X228441250Y-133667500D03*
X234791250Y-131127500D03*
X252253750Y-133667500D03*
X258603750Y-131127500D03*
D14*
X200075000Y-51402500D03*
D15*
X200075000Y-48862500D03*
M02*
