G04 #@! TF.FileFunction,Soldermask,Bot*
%FSLAX46Y46*%
G04 Gerber Fmt 4.6, Leading zero omitted, Abs format (unit mm)*
G04 Created by KiCad (PCBNEW 4.0.5+dfsg1-4) date Sat Aug 19 13:41:17 2017*
%MOMM*%
%LPD*%
G01*
G04 APERTURE LIST*
%ADD10C,0.100000*%
%ADD11R,0.950000X1.900000*%
%ADD12R,1.900000X0.950000*%
%ADD13R,2.200000X2.200000*%
%ADD14O,2.200000X2.200000*%
%ADD15R,1.900000X1.650000*%
%ADD16C,2.686000*%
%ADD17R,0.900000X2.700000*%
%ADD18R,2.400000X2.900000*%
%ADD19C,1.300000*%
%ADD20R,1.700000X1.900000*%
%ADD21R,1.900000X1.700000*%
%ADD22R,1.400000X2.100000*%
%ADD23R,2.200000X2.500000*%
%ADD24C,7.400000*%
%ADD25R,2.100000X2.100000*%
%ADD26O,2.100000X2.100000*%
G04 APERTURE END LIST*
D10*
D11*
X135906250Y-133096875D03*
X135106250Y-133096875D03*
X134306250Y-133096875D03*
X133506250Y-133096875D03*
X132706250Y-133096875D03*
X131906250Y-133096875D03*
X131106250Y-133096875D03*
X130306250Y-133096875D03*
X129506250Y-133096875D03*
X128706250Y-133096875D03*
X127906250Y-133096875D03*
D12*
X126206250Y-131396875D03*
X126206250Y-130596875D03*
X126206250Y-129796875D03*
X126206250Y-128996875D03*
X126206250Y-128196875D03*
X126206250Y-127396875D03*
X126206250Y-126596875D03*
X126206250Y-125796875D03*
X126206250Y-124996875D03*
X126206250Y-124196875D03*
X126206250Y-123396875D03*
D11*
X127906250Y-121696875D03*
X128706250Y-121696875D03*
X129506250Y-121696875D03*
X130306250Y-121696875D03*
X131106250Y-121696875D03*
X131906250Y-121696875D03*
X132706250Y-121696875D03*
X133506250Y-121696875D03*
X134306250Y-121696875D03*
X135106250Y-121696875D03*
X135906250Y-121696875D03*
D12*
X137606250Y-123396875D03*
X137606250Y-124196875D03*
X137606250Y-124996875D03*
X137606250Y-125796875D03*
X137606250Y-126596875D03*
X137606250Y-127396875D03*
X137606250Y-128196875D03*
X137606250Y-128996875D03*
X137606250Y-129796875D03*
X137606250Y-130596875D03*
X137606250Y-131396875D03*
D13*
X73025000Y-80962500D03*
D14*
X65405000Y-80962500D03*
D15*
X141879000Y-130746500D03*
X144379000Y-130746500D03*
D16*
X78422500Y-114617500D03*
X84772500Y-112077500D03*
X290353750Y-95567500D03*
X296703750Y-93027500D03*
X116522500Y-114617500D03*
X122872500Y-112077500D03*
X85566250Y-133667500D03*
X91916250Y-131127500D03*
X168910000Y-57467500D03*
X175260000Y-54927500D03*
X73660000Y-57467500D03*
X80010000Y-54927500D03*
X35560000Y-57467500D03*
X41910000Y-54927500D03*
D15*
X116621875Y-122634375D03*
X119121875Y-122634375D03*
X116621875Y-132159375D03*
X119121875Y-132159375D03*
X142661000Y-122618500D03*
X145161000Y-122618500D03*
X127361000Y-119062500D03*
X124861000Y-119062500D03*
X121562500Y-134540625D03*
X119062500Y-134540625D03*
X140863000Y-133794500D03*
X143363000Y-133794500D03*
X131171000Y-135731250D03*
X128671000Y-135731250D03*
D16*
X226060000Y-57467500D03*
X232410000Y-54927500D03*
X245110000Y-57467500D03*
X251460000Y-54927500D03*
X264160000Y-57467500D03*
X270510000Y-54927500D03*
X297815000Y-47307500D03*
X291465000Y-49847500D03*
X54610000Y-57467500D03*
X60960000Y-54927500D03*
X235585000Y-76517500D03*
X241935000Y-73977500D03*
X254635000Y-76517500D03*
X260985000Y-73977500D03*
X273685000Y-76517500D03*
X280035000Y-73977500D03*
X297497500Y-76517500D03*
X303847500Y-73977500D03*
X240347500Y-95567500D03*
X246697500Y-93027500D03*
X259397500Y-95567500D03*
X265747500Y-93027500D03*
X92710000Y-57467500D03*
X99060000Y-54927500D03*
X249872500Y-114617500D03*
X256222500Y-112077500D03*
X111760000Y-57467500D03*
X118110000Y-54927500D03*
X130810000Y-57467500D03*
X137160000Y-54927500D03*
X149860000Y-57467500D03*
X156210000Y-54927500D03*
X187960000Y-57467500D03*
X194310000Y-54927500D03*
X207010000Y-57467500D03*
X213360000Y-54927500D03*
X64135000Y-76517500D03*
X70485000Y-73977500D03*
X83185000Y-76517500D03*
X89535000Y-73977500D03*
X102235000Y-76517500D03*
X108585000Y-73977500D03*
X121285000Y-76517500D03*
X127635000Y-73977500D03*
X140335000Y-76517500D03*
X146685000Y-73977500D03*
X159385000Y-76517500D03*
X165735000Y-73977500D03*
X178435000Y-76517500D03*
X184785000Y-73977500D03*
X197485000Y-76517500D03*
X203835000Y-73977500D03*
X216535000Y-76517500D03*
X222885000Y-73977500D03*
X42703750Y-95567500D03*
X49053750Y-93027500D03*
X68897500Y-95567500D03*
X75247500Y-93027500D03*
X87947500Y-95567500D03*
X94297500Y-93027500D03*
X106997500Y-95567500D03*
X113347500Y-93027500D03*
X126047500Y-95567500D03*
X132397500Y-93027500D03*
X145097500Y-95567500D03*
X151447500Y-93027500D03*
X164147500Y-95567500D03*
X170497500Y-93027500D03*
X183197500Y-95567500D03*
X189547500Y-93027500D03*
X202247500Y-95567500D03*
X208597500Y-93027500D03*
X221297500Y-95567500D03*
X227647500Y-93027500D03*
X97472500Y-114617500D03*
X103822500Y-112077500D03*
X135572500Y-114617500D03*
X141922500Y-112077500D03*
X154622500Y-114617500D03*
X160972500Y-112077500D03*
X173672500Y-114617500D03*
X180022500Y-112077500D03*
X192722500Y-114617500D03*
X199072500Y-112077500D03*
X211772500Y-114617500D03*
X218122500Y-112077500D03*
X230822500Y-114617500D03*
X237172500Y-112077500D03*
X37941250Y-133667500D03*
X44291250Y-131127500D03*
X61753750Y-133667500D03*
X68103750Y-131127500D03*
D17*
X46025000Y-49800000D03*
X46825000Y-49800000D03*
X47625000Y-49800000D03*
X48425000Y-49800000D03*
X49225000Y-49800000D03*
D18*
X43175000Y-49700000D03*
X43175000Y-44200000D03*
X52075000Y-49700000D03*
X52075000Y-44200000D03*
D19*
X45425000Y-47200000D03*
X49825000Y-47200000D03*
D20*
X48869600Y-55281840D03*
X48869600Y-57981840D03*
X46296580Y-57981840D03*
X46296580Y-55281840D03*
D21*
X55800000Y-97631250D03*
X58500000Y-97631250D03*
X142621000Y-120253125D03*
X145321000Y-120253125D03*
D22*
X55250000Y-87337500D03*
X55250000Y-93637500D03*
X59050000Y-87337500D03*
X59050000Y-93637500D03*
D23*
X116721875Y-128846875D03*
X116721875Y-125946875D03*
X119021875Y-125946875D03*
X119021875Y-128846875D03*
D24*
X54768750Y-71437500D03*
X157162500Y-90487500D03*
X289622500Y-71437500D03*
X219075000Y-128587500D03*
D13*
X42148125Y-61912500D03*
D14*
X34528125Y-61912500D03*
D13*
X219075000Y-48956250D03*
D14*
X219075000Y-56576250D03*
D13*
X238125000Y-48956250D03*
D14*
X238125000Y-56576250D03*
D13*
X257175000Y-48956250D03*
D14*
X257175000Y-56576250D03*
D13*
X276225000Y-48815625D03*
D14*
X276225000Y-56435625D03*
D13*
X61198125Y-61912500D03*
D14*
X53578125Y-61912500D03*
D13*
X228600000Y-67725000D03*
D14*
X228600000Y-75345000D03*
D13*
X247650000Y-67725000D03*
D14*
X247650000Y-75345000D03*
D13*
X266700000Y-67725000D03*
D14*
X266700000Y-75345000D03*
D13*
X309562500Y-67725000D03*
D14*
X309562500Y-75345000D03*
D13*
X66675000Y-48956250D03*
D14*
X66675000Y-56576250D03*
D13*
X233362500Y-86915625D03*
D14*
X233362500Y-94535625D03*
D13*
X252412500Y-86775000D03*
D14*
X252412500Y-94395000D03*
D13*
X272653125Y-86775000D03*
D14*
X272653125Y-94395000D03*
D13*
X85725000Y-48956250D03*
D14*
X85725000Y-56576250D03*
D13*
X242887500Y-105965625D03*
D14*
X242887500Y-113585625D03*
D13*
X267890625Y-105965625D03*
D14*
X267890625Y-113585625D03*
D13*
X104775000Y-48956250D03*
D14*
X104775000Y-56576250D03*
D13*
X266700000Y-125158500D03*
D14*
X266700000Y-132778500D03*
D13*
X290512500Y-125015625D03*
D14*
X290512500Y-132635625D03*
D13*
X123825000Y-48956250D03*
D14*
X123825000Y-56576250D03*
D13*
X142875000Y-48956250D03*
D14*
X142875000Y-56576250D03*
D13*
X161925000Y-48956250D03*
D14*
X161925000Y-56576250D03*
D13*
X180975000Y-48956250D03*
D14*
X180975000Y-56576250D03*
D13*
X200025000Y-48956250D03*
D14*
X200025000Y-56576250D03*
D13*
X53721000Y-80708500D03*
D14*
X46101000Y-80708500D03*
D13*
X76200000Y-67865625D03*
D14*
X76200000Y-75485625D03*
D13*
X95250000Y-67865625D03*
D14*
X95250000Y-75485625D03*
D13*
X114300000Y-67865625D03*
D14*
X114300000Y-75485625D03*
D13*
X133350000Y-67865625D03*
D14*
X133350000Y-75485625D03*
D13*
X152400000Y-67865625D03*
D14*
X152400000Y-75485625D03*
D13*
X171450000Y-67725000D03*
D14*
X171450000Y-75345000D03*
D13*
X190500000Y-67725000D03*
D14*
X190500000Y-75345000D03*
D13*
X209550000Y-67725000D03*
D14*
X209550000Y-75345000D03*
D13*
X33337500Y-82153125D03*
D14*
X33337500Y-89773125D03*
D13*
X76200000Y-100012500D03*
D14*
X68580000Y-100012500D03*
D13*
X80962500Y-86775000D03*
D14*
X80962500Y-94395000D03*
D13*
X100012500Y-86775000D03*
D14*
X100012500Y-94395000D03*
D13*
X119062500Y-86775000D03*
D14*
X119062500Y-94395000D03*
D13*
X138112500Y-86775000D03*
D14*
X138112500Y-94395000D03*
D13*
X170259375Y-100012500D03*
D14*
X162639375Y-100012500D03*
D13*
X176212500Y-86915625D03*
D14*
X176212500Y-94535625D03*
D13*
X195262500Y-86915625D03*
D14*
X195262500Y-94535625D03*
D13*
X214312500Y-86915625D03*
D14*
X214312500Y-94535625D03*
D13*
X69056250Y-105965625D03*
D14*
X69056250Y-113585625D03*
D13*
X72628125Y-105965625D03*
D14*
X72628125Y-113585625D03*
D13*
X90487500Y-105965625D03*
D14*
X90487500Y-113585625D03*
D13*
X109537500Y-105965625D03*
D14*
X109537500Y-113585625D03*
D13*
X128587500Y-105965625D03*
D14*
X128587500Y-113585625D03*
D13*
X147637500Y-105965625D03*
D14*
X147637500Y-113585625D03*
D13*
X166687500Y-105965625D03*
D14*
X166687500Y-113585625D03*
D13*
X185737500Y-105965625D03*
D14*
X185737500Y-113585625D03*
D13*
X204787500Y-105965625D03*
D14*
X204787500Y-113585625D03*
D13*
X223837500Y-105965625D03*
D14*
X223837500Y-113585625D03*
D13*
X50006250Y-125015625D03*
D14*
X50006250Y-132635625D03*
D13*
X54768750Y-125015625D03*
D14*
X54768750Y-132635625D03*
D13*
X76200000Y-124875000D03*
D14*
X76200000Y-132495000D03*
D13*
X169545000Y-125158500D03*
D14*
X169545000Y-132778500D03*
D13*
X240411000Y-125158500D03*
D14*
X240411000Y-132778500D03*
D13*
X245491000Y-125158500D03*
D14*
X245491000Y-132778500D03*
D16*
X285591250Y-114617500D03*
X291941250Y-112077500D03*
X276066250Y-133667500D03*
X282416250Y-131127500D03*
X299878750Y-133667500D03*
X306228750Y-131127500D03*
X40322500Y-76517500D03*
X46672500Y-73977500D03*
X47466250Y-114617500D03*
X53816250Y-112077500D03*
X157003750Y-133826250D03*
X163353750Y-131286250D03*
X228441250Y-133667500D03*
X234791250Y-131127500D03*
X252253750Y-133667500D03*
X258603750Y-131127500D03*
D25*
X179197000Y-127698500D03*
D26*
X179197000Y-130238500D03*
M02*
