G04 #@! TF.FileFunction,Paste,Bot*
%FSLAX46Y46*%
G04 Gerber Fmt 4.6, Leading zero omitted, Abs format (unit mm)*
G04 Created by KiCad (PCBNEW 4.0.5+dfsg1-4) date Mon Mar 26 17:59:26 2018*
%MOMM*%
%LPD*%
G01*
G04 APERTURE LIST*
%ADD10C,0.100000*%
%ADD11R,1.000000X1.250000*%
%ADD12R,0.550000X1.500000*%
%ADD13R,1.500000X0.550000*%
%ADD14R,0.500000X2.300000*%
%ADD15R,2.000000X2.500000*%
%ADD16R,1.000000X1.700000*%
%ADD17R,1.250000X1.000000*%
%ADD18R,1.200000X1.400000*%
G04 APERTURE END LIST*
D10*
D11*
X290321875Y-115490625D03*
X288321875Y-115490625D03*
X67675000Y-114862500D03*
X65675000Y-114862500D03*
X83153125Y-115490625D03*
X81153125Y-115490625D03*
X102203125Y-115490625D03*
X100203125Y-115490625D03*
D12*
X135906250Y-133096875D03*
X135106250Y-133096875D03*
X134306250Y-133096875D03*
X133506250Y-133096875D03*
X132706250Y-133096875D03*
X131906250Y-133096875D03*
X131106250Y-133096875D03*
X130306250Y-133096875D03*
X129506250Y-133096875D03*
X128706250Y-133096875D03*
X127906250Y-133096875D03*
D13*
X126206250Y-131396875D03*
X126206250Y-130596875D03*
X126206250Y-129796875D03*
X126206250Y-128996875D03*
X126206250Y-128196875D03*
X126206250Y-127396875D03*
X126206250Y-126596875D03*
X126206250Y-125796875D03*
X126206250Y-124996875D03*
X126206250Y-124196875D03*
X126206250Y-123396875D03*
D12*
X127906250Y-121696875D03*
X128706250Y-121696875D03*
X129506250Y-121696875D03*
X130306250Y-121696875D03*
X131106250Y-121696875D03*
X131906250Y-121696875D03*
X132706250Y-121696875D03*
X133506250Y-121696875D03*
X134306250Y-121696875D03*
X135106250Y-121696875D03*
X135906250Y-121696875D03*
D13*
X137606250Y-123396875D03*
X137606250Y-124196875D03*
X137606250Y-124996875D03*
X137606250Y-125796875D03*
X137606250Y-126596875D03*
X137606250Y-127396875D03*
X137606250Y-128196875D03*
X137606250Y-128996875D03*
X137606250Y-129796875D03*
X137606250Y-130596875D03*
X137606250Y-131396875D03*
D14*
X46025000Y-49800000D03*
X46825000Y-49800000D03*
X47625000Y-49800000D03*
X48425000Y-49800000D03*
X49225000Y-49800000D03*
D15*
X43175000Y-49700000D03*
X43175000Y-44200000D03*
X52075000Y-49700000D03*
X52075000Y-44200000D03*
D16*
X55175000Y-87212500D03*
X55175000Y-93512500D03*
X58975000Y-87212500D03*
X58975000Y-93512500D03*
D11*
X117075000Y-123862500D03*
X119075000Y-123862500D03*
X117075000Y-131362500D03*
X119075000Y-131362500D03*
X142575000Y-124362500D03*
X144575000Y-124362500D03*
X142575000Y-128862500D03*
X144575000Y-128862500D03*
D17*
X127575000Y-116362500D03*
X127575000Y-114362500D03*
D11*
X121075000Y-133362500D03*
X119075000Y-133362500D03*
X142575000Y-130862500D03*
X144575000Y-130862500D03*
X142575000Y-132862500D03*
X144575000Y-132862500D03*
D17*
X201075000Y-55362500D03*
X201075000Y-57362500D03*
D18*
X117021875Y-128496875D03*
X117021875Y-126296875D03*
X118721875Y-126296875D03*
X118721875Y-128496875D03*
D17*
X48869600Y-55631840D03*
X48869600Y-57631840D03*
X46296580Y-57631840D03*
X46296580Y-55631840D03*
D11*
X56075000Y-95862500D03*
X58075000Y-95862500D03*
X142575000Y-122362500D03*
X144575000Y-122362500D03*
D17*
X199075000Y-57362500D03*
X199075000Y-55362500D03*
D11*
X40290625Y-58340625D03*
X38290625Y-58340625D03*
X230790625Y-58340625D03*
X228790625Y-58340625D03*
X249840625Y-58340625D03*
X247840625Y-58340625D03*
X268890625Y-58340625D03*
X266890625Y-58340625D03*
X298656250Y-58340625D03*
X296656250Y-58340625D03*
X59340625Y-58340625D03*
X57340625Y-58340625D03*
X240315625Y-77390625D03*
X238315625Y-77390625D03*
X259365625Y-77390625D03*
X257365625Y-77390625D03*
X278415625Y-77390625D03*
X276415625Y-77390625D03*
X291975000Y-77262500D03*
X293975000Y-77262500D03*
X78390625Y-58340625D03*
X76390625Y-58340625D03*
X245078125Y-96440625D03*
X243078125Y-96440625D03*
X264128125Y-96440625D03*
X262128125Y-96440625D03*
X286750000Y-96440625D03*
X284750000Y-96440625D03*
X97440625Y-58340625D03*
X95440625Y-58340625D03*
X235553125Y-115490625D03*
X233553125Y-115490625D03*
X254412500Y-115490625D03*
X252412500Y-115490625D03*
X116490625Y-58340625D03*
X114490625Y-58340625D03*
X280796875Y-134540625D03*
X278796875Y-134540625D03*
X304609375Y-134540625D03*
X302609375Y-134540625D03*
X135540625Y-58340625D03*
X133540625Y-58340625D03*
X154590625Y-58340625D03*
X152590625Y-58340625D03*
X173640625Y-58340625D03*
X171640625Y-58340625D03*
X192575000Y-58340625D03*
X190575000Y-58340625D03*
X211740625Y-58340625D03*
X209740625Y-58340625D03*
X45053125Y-77390625D03*
X43053125Y-77390625D03*
X68725000Y-77390625D03*
X66725000Y-77390625D03*
X87915625Y-77390625D03*
X85915625Y-77390625D03*
X106965625Y-77390625D03*
X104965625Y-77390625D03*
X126015625Y-77390625D03*
X124015625Y-77390625D03*
X145065625Y-77390625D03*
X143065625Y-77390625D03*
X164115625Y-77390625D03*
X162115625Y-77390625D03*
X183165625Y-77390625D03*
X181165625Y-77390625D03*
X202215625Y-77390625D03*
X200215625Y-77390625D03*
X221265625Y-77390625D03*
X219265625Y-77390625D03*
X47434375Y-96440625D03*
X45434375Y-96440625D03*
X73628125Y-96440625D03*
X71628125Y-96440625D03*
X92678125Y-96440625D03*
X90678125Y-96440625D03*
X111728125Y-96440625D03*
X109728125Y-96440625D03*
X130778125Y-96440625D03*
X128778125Y-96440625D03*
X149828125Y-96440625D03*
X147828125Y-96440625D03*
X168878125Y-96440625D03*
X166878125Y-96440625D03*
X187928125Y-96440625D03*
X185928125Y-96440625D03*
X206978125Y-96440625D03*
X204978125Y-96440625D03*
X226028125Y-96440625D03*
X224028125Y-96440625D03*
X52196875Y-115490625D03*
X50196875Y-115490625D03*
X121253125Y-115490625D03*
X119253125Y-115490625D03*
X140303125Y-115490625D03*
X138303125Y-115490625D03*
X159162500Y-115490625D03*
X157162500Y-115490625D03*
X178403125Y-115490625D03*
X176403125Y-115490625D03*
X197453125Y-115490625D03*
X195453125Y-115490625D03*
X216312500Y-115490625D03*
X214312500Y-115490625D03*
X42671875Y-134540625D03*
X40671875Y-134540625D03*
X66484375Y-134540625D03*
X64484375Y-134540625D03*
X90296875Y-134540625D03*
X88296875Y-134540625D03*
X161734375Y-134540625D03*
X159734375Y-134540625D03*
X233171875Y-134540625D03*
X231171875Y-134540625D03*
X256984375Y-134540625D03*
X254984375Y-134540625D03*
X289512500Y-84534375D03*
X291512500Y-84534375D03*
M02*
