M48
INCH,TZ
T1C0.012
T2C0.016
T3C0.059
T4C0.106
%
G90
G05
T1
X1.3533Y-3.7072
X1.373Y-1.8607
X2.3022Y-1.8844
X2.9045Y-5.2899
X3.3691Y-4.8607
X3.9833Y-5.2032
X4.3219Y-1.9355
X4.625Y-3.4277
X4.9478Y-5.1009
X5.0305Y-4.7229
X5.4793Y-5.2584
X6.1329Y-4.9906
X6.3888Y-4.6521
X6.8258Y-4.6521
X7.7195Y-3.3804
X7.873Y-2.0773
X12.0659Y-2.0851
X12.0659Y-3.5103
T2
X1.7451Y-2.3666
X1.8573Y-3.0969
X1.8829Y-2.406
X1.9715Y-2.3962
X2.1289Y-3.8529
X2.1565Y-3.0969
X2.2175Y-2.3666
X2.251Y-3.9237
X2.3455Y-3.8332
X3.0148Y-4.6324
X3.1171Y-4.6324
X3.1604Y-4.7347
X3.5266Y-3.1284
X3.7392Y-3.8843
X3.8415Y-2.593
X4.1435Y-4.5462
X4.8022Y-4.7505
X5.6171Y-4.8292
X5.6428Y-4.8543
X5.6683Y-4.8804
X5.6919Y-4.908
X5.7195Y-4.7032
X5.8455Y-4.6718
X5.8494Y-5.2899
X6.6329Y-4.7072
X6.6915Y-5.0028
X6.7116Y-5.2859
X6.7156Y-5.1836
X6.7195Y-5.1284
X6.7195Y-5.2269
X6.751Y-5.3017
X6.7589Y-5.2308
X6.7904Y-5.3214
X6.7943Y-4.7899
X6.8022Y-5.2229
X6.9124Y-5.2426
X6.9281Y-5.2751
X6.9321Y-5.3174
X6.9975Y-4.6121
X7.0581Y-4.6324
X7.0856Y-5.2229
X7.0974Y-4.8725
X7.2352Y-4.595
X7.4085Y-4.6599
X7.4833Y-4.7544
X7.6959Y-4.6088
X7.751Y-4.8371
X7.7746Y-4.8647
X7.7982Y-4.8922
X7.8219Y-4.9198
X7.8456Y-4.9444
X7.8691Y-4.971
X8.7726Y-4.5885
X9.6093Y-4.6363
X10.3297Y-4.6599
X11.3691Y-4.6718
X11.5187Y-4.4906
X11.5423Y-4.53
X11.5659Y-4.4434
T3
X1.4Y-2.2625
X1.4937Y-3.7625
X1.4937Y-5.2625
X1.5875Y-3.0125
X1.65Y-2.1625
X1.6812Y-3.7625
X1.7437Y-3.6625
X1.7437Y-5.1625
X1.8375Y-2.9125
X1.8687Y-4.5125
X1.9312Y-3.6625
X2.1187Y-4.4125
X2.15Y-2.2625
X2.4Y-2.1625
X2.4312Y-5.2625
X2.525Y-3.0125
X2.6812Y-5.1625
X2.7125Y-3.7625
X2.775Y-2.9125
X2.9Y-2.2625
X2.9625Y-3.6625
X3.0875Y-4.5125
X3.15Y-2.1625
X3.275Y-3.0125
X3.3375Y-4.4125
X3.3687Y-5.2625
X3.4625Y-3.7625
X3.525Y-2.9125
X3.6187Y-5.1625
X3.65Y-2.2625
X3.7125Y-3.6625
X3.8375Y-4.5125
X3.9Y-2.1625
X4.025Y-3.0125
X4.0875Y-4.4125
X4.2125Y-3.7625
X4.275Y-2.9125
X4.3062Y-5.2625
X4.4Y-2.2625
X4.4625Y-3.6625
X4.5562Y-5.1625
X4.5875Y-4.5125
X4.65Y-2.1625
X4.775Y-3.0125
X4.8375Y-4.4125
X4.9625Y-3.7625
X5.025Y-2.9125
X5.15Y-2.2625
X5.2125Y-3.6625
X5.3375Y-4.5125
X5.4Y-2.1625
X5.525Y-3.0125
X5.5875Y-4.4125
X5.6187Y-5.2625
X5.7125Y-3.7625
X5.775Y-2.9125
X5.8687Y-5.1625
X5.9Y-2.2625
X5.9625Y-3.6625
X6.0875Y-4.5125
X6.15Y-2.1625
X6.1812Y-5.2625
X6.275Y-3.0125
X6.3375Y-4.4125
X6.4312Y-5.1625
X6.4625Y-3.7625
X6.525Y-2.9125
X6.65Y-2.2625
X6.7125Y-3.6625
X6.8375Y-4.5125
X6.9Y-2.1625
X7.025Y-3.0125
X7.0875Y-4.4125
X7.2125Y-3.7625
X7.275Y-2.9125
X7.4Y-2.2625
X7.4625Y-3.6625
X7.4937Y-5.2625
X7.5875Y-4.5125
X7.65Y-2.1625
X7.7437Y-5.1625
X7.775Y-3.0125
X7.8375Y-4.4125
X7.9625Y-3.7625
X8.025Y-2.9125
X8.15Y-2.2625
X8.2125Y-3.6625
X8.3375Y-4.5125
X8.4Y-2.1625
X8.525Y-3.0125
X8.5875Y-4.4125
X8.7125Y-3.7625
X8.775Y-2.9125
X8.9Y-2.2625
X8.9Y-5.2625
X8.9625Y-3.6625
X8.9938Y-5.2625
X9.0875Y-4.5125
X9.15Y-2.1625
X9.15Y-5.1625
X9.2438Y-5.1625
X9.275Y-3.0125
X9.3375Y-4.4125
X9.4625Y-3.7625
X9.525Y-2.9125
X9.65Y-2.2625
X9.65Y-5.2625
X9.7125Y-3.6625
X9.8375Y-4.5125
X9.9Y-2.1625
X9.9Y-5.1625
X9.9313Y-5.2625
X10.025Y-3.0125
X10.0875Y-4.4125
X10.1813Y-5.1625
X10.2125Y-3.7625
X10.275Y-2.9125
X10.4Y-2.2625
X10.4Y-5.2625
X10.4625Y-3.6625
X10.65Y-2.1625
X10.65Y-5.1625
X10.775Y-3.0125
X10.8688Y-4.5125
X10.8688Y-5.2625
X11.025Y-2.9125
X11.1188Y-4.4125
X11.1188Y-5.1625
X11.15Y-5.2625
X11.2438Y-4.5125
X11.4Y-5.1625
X11.4313Y-3.7625
X11.4938Y-4.4125
X11.5244Y-2.26
X11.6813Y-3.6625
X11.7125Y-3.0125
X11.7744Y-2.16
X11.8063Y-5.2625
X11.85Y-4.9625
X11.9Y-4.5125
X11.9625Y-2.9125
X12.0563Y-5.1625
X12.1Y-4.8625
X12.15Y-4.4125
T4
X2.107Y-2.8125G85X2.2055Y-2.8125
G05
X6.1383Y-3.5625G85X6.2367Y-3.5625
G05
X8.5758Y-5.0625G85X8.6742Y-5.0625
G05
X11.3532Y-2.8125G85X11.4517Y-2.8125
G05
T0
M30
