G04 #@! TF.FileFunction,Legend,Top*
%FSLAX46Y46*%
G04 Gerber Fmt 4.6, Leading zero omitted, Abs format (unit mm)*
G04 Created by KiCad (PCBNEW 4.0.5+dfsg1-4) date Tue Jan 23 23:06:14 2018*
%MOMM*%
%LPD*%
G01*
G04 APERTURE LIST*
%ADD10C,0.100000*%
%ADD11C,0.300000*%
%ADD12C,0.381000*%
%ADD13C,0.120000*%
%ADD14C,0.203200*%
%ADD15C,0.150000*%
G04 APERTURE END LIST*
D10*
D11*
X116003571Y-128041071D02*
X116003571Y-129255357D01*
X115932142Y-129398214D01*
X115860714Y-129469643D01*
X115717857Y-129541071D01*
X115503571Y-129541071D01*
X115360714Y-129469643D01*
X116003571Y-128969643D02*
X115860714Y-129041071D01*
X115575000Y-129041071D01*
X115432142Y-128969643D01*
X115360714Y-128898214D01*
X115289285Y-128755357D01*
X115289285Y-128326786D01*
X115360714Y-128183929D01*
X115432142Y-128112500D01*
X115575000Y-128041071D01*
X115860714Y-128041071D01*
X116003571Y-128112500D01*
X116717857Y-129041071D02*
X116717857Y-128041071D01*
X116717857Y-127541071D02*
X116646428Y-127612500D01*
X116717857Y-127683929D01*
X116789285Y-127612500D01*
X116717857Y-127541071D01*
X116717857Y-127683929D01*
X117217857Y-128041071D02*
X117789286Y-128041071D01*
X117432143Y-127541071D02*
X117432143Y-128826786D01*
X117503571Y-128969643D01*
X117646429Y-129041071D01*
X117789286Y-129041071D01*
X118289286Y-129041071D02*
X118289286Y-127541071D01*
X118932143Y-129041071D02*
X118932143Y-128255357D01*
X118860714Y-128112500D01*
X118717857Y-128041071D01*
X118503572Y-128041071D01*
X118360714Y-128112500D01*
X118289286Y-128183929D01*
X120289286Y-128041071D02*
X120289286Y-129041071D01*
X119646429Y-128041071D02*
X119646429Y-128826786D01*
X119717857Y-128969643D01*
X119860715Y-129041071D01*
X120075000Y-129041071D01*
X120217857Y-128969643D01*
X120289286Y-128898214D01*
X121003572Y-129041071D02*
X121003572Y-127541071D01*
X121003572Y-128112500D02*
X121146429Y-128041071D01*
X121432143Y-128041071D01*
X121575000Y-128112500D01*
X121646429Y-128183929D01*
X121717858Y-128326786D01*
X121717858Y-128755357D01*
X121646429Y-128898214D01*
X121575000Y-128969643D01*
X121432143Y-129041071D01*
X121146429Y-129041071D01*
X121003572Y-128969643D01*
X122360715Y-128898214D02*
X122432143Y-128969643D01*
X122360715Y-129041071D01*
X122289286Y-128969643D01*
X122360715Y-128898214D01*
X122360715Y-129041071D01*
X123717858Y-128969643D02*
X123575001Y-129041071D01*
X123289287Y-129041071D01*
X123146429Y-128969643D01*
X123075001Y-128898214D01*
X123003572Y-128755357D01*
X123003572Y-128326786D01*
X123075001Y-128183929D01*
X123146429Y-128112500D01*
X123289287Y-128041071D01*
X123575001Y-128041071D01*
X123717858Y-128112500D01*
X124575001Y-129041071D02*
X124432143Y-128969643D01*
X124360715Y-128898214D01*
X124289286Y-128755357D01*
X124289286Y-128326786D01*
X124360715Y-128183929D01*
X124432143Y-128112500D01*
X124575001Y-128041071D01*
X124789286Y-128041071D01*
X124932143Y-128112500D01*
X125003572Y-128183929D01*
X125075001Y-128326786D01*
X125075001Y-128755357D01*
X125003572Y-128898214D01*
X124932143Y-128969643D01*
X124789286Y-129041071D01*
X124575001Y-129041071D01*
X125717858Y-129041071D02*
X125717858Y-128041071D01*
X125717858Y-128183929D02*
X125789286Y-128112500D01*
X125932144Y-128041071D01*
X126146429Y-128041071D01*
X126289286Y-128112500D01*
X126360715Y-128255357D01*
X126360715Y-129041071D01*
X126360715Y-128255357D02*
X126432144Y-128112500D01*
X126575001Y-128041071D01*
X126789286Y-128041071D01*
X126932144Y-128112500D01*
X127003572Y-128255357D01*
X127003572Y-129041071D01*
X128789286Y-127469643D02*
X127503572Y-129398214D01*
X129289287Y-129041071D02*
X129289287Y-128041071D01*
X129289287Y-128326786D02*
X129360715Y-128183929D01*
X129432144Y-128112500D01*
X129575001Y-128041071D01*
X129717858Y-128041071D01*
X130217858Y-128041071D02*
X130217858Y-129541071D01*
X130217858Y-128112500D02*
X130360715Y-128041071D01*
X130646429Y-128041071D01*
X130789286Y-128112500D01*
X130860715Y-128183929D01*
X130932144Y-128326786D01*
X130932144Y-128755357D01*
X130860715Y-128898214D01*
X130789286Y-128969643D01*
X130646429Y-129041071D01*
X130360715Y-129041071D01*
X130217858Y-128969643D01*
X132146429Y-128969643D02*
X132003572Y-129041071D01*
X131717858Y-129041071D01*
X131575001Y-128969643D01*
X131503572Y-128826786D01*
X131503572Y-128255357D01*
X131575001Y-128112500D01*
X131717858Y-128041071D01*
X132003572Y-128041071D01*
X132146429Y-128112500D01*
X132217858Y-128255357D01*
X132217858Y-128398214D01*
X131503572Y-128541071D01*
X133503572Y-129041071D02*
X133503572Y-127541071D01*
X133503572Y-128969643D02*
X133360715Y-129041071D01*
X133075001Y-129041071D01*
X132932143Y-128969643D01*
X132860715Y-128898214D01*
X132789286Y-128755357D01*
X132789286Y-128326786D01*
X132860715Y-128183929D01*
X132932143Y-128112500D01*
X133075001Y-128041071D01*
X133360715Y-128041071D01*
X133503572Y-128112500D01*
X134860715Y-129041071D02*
X134860715Y-127541071D01*
X134860715Y-128969643D02*
X134717858Y-129041071D01*
X134432144Y-129041071D01*
X134289286Y-128969643D01*
X134217858Y-128898214D01*
X134146429Y-128755357D01*
X134146429Y-128326786D01*
X134217858Y-128183929D01*
X134289286Y-128112500D01*
X134432144Y-128041071D01*
X134717858Y-128041071D01*
X134860715Y-128112500D01*
X136146429Y-128969643D02*
X136003572Y-129041071D01*
X135717858Y-129041071D01*
X135575001Y-128969643D01*
X135503572Y-128826786D01*
X135503572Y-128255357D01*
X135575001Y-128112500D01*
X135717858Y-128041071D01*
X136003572Y-128041071D01*
X136146429Y-128112500D01*
X136217858Y-128255357D01*
X136217858Y-128398214D01*
X135503572Y-128541071D01*
X137932143Y-127469643D02*
X136646429Y-129398214D01*
X138432144Y-129041071D02*
X138432144Y-128041071D01*
X138432144Y-128326786D02*
X138503572Y-128183929D01*
X138575001Y-128112500D01*
X138717858Y-128041071D01*
X138860715Y-128041071D01*
X140003572Y-127541071D02*
X139717858Y-127541071D01*
X139575001Y-127612500D01*
X139503572Y-127683929D01*
X139360715Y-127898214D01*
X139289286Y-128183929D01*
X139289286Y-128755357D01*
X139360715Y-128898214D01*
X139432143Y-128969643D01*
X139575001Y-129041071D01*
X139860715Y-129041071D01*
X140003572Y-128969643D01*
X140075001Y-128898214D01*
X140146429Y-128755357D01*
X140146429Y-128398214D01*
X140075001Y-128255357D01*
X140003572Y-128183929D01*
X139860715Y-128112500D01*
X139575001Y-128112500D01*
X139432143Y-128183929D01*
X139360715Y-128255357D01*
X139289286Y-128398214D01*
X141075000Y-127541071D02*
X141217857Y-127541071D01*
X141360714Y-127612500D01*
X141432143Y-127683929D01*
X141503572Y-127826786D01*
X141575000Y-128112500D01*
X141575000Y-128469643D01*
X141503572Y-128755357D01*
X141432143Y-128898214D01*
X141360714Y-128969643D01*
X141217857Y-129041071D01*
X141075000Y-129041071D01*
X140932143Y-128969643D01*
X140860714Y-128898214D01*
X140789286Y-128755357D01*
X140717857Y-128469643D01*
X140717857Y-128112500D01*
X140789286Y-127826786D01*
X140860714Y-127683929D01*
X140932143Y-127612500D01*
X141075000Y-127541071D01*
X142217857Y-128469643D02*
X143360714Y-128469643D01*
X144003571Y-128969643D02*
X144146428Y-129041071D01*
X144432143Y-129041071D01*
X144575000Y-128969643D01*
X144646428Y-128826786D01*
X144646428Y-128755357D01*
X144575000Y-128612500D01*
X144432143Y-128541071D01*
X144217857Y-128541071D01*
X144075000Y-128469643D01*
X144003571Y-128326786D01*
X144003571Y-128255357D01*
X144075000Y-128112500D01*
X144217857Y-128041071D01*
X144432143Y-128041071D01*
X144575000Y-128112500D01*
X145075000Y-128041071D02*
X145646429Y-128041071D01*
X145289286Y-127541071D02*
X145289286Y-128826786D01*
X145360714Y-128969643D01*
X145503572Y-129041071D01*
X145646429Y-129041071D01*
X146789286Y-129041071D02*
X146789286Y-127541071D01*
X146789286Y-128969643D02*
X146646429Y-129041071D01*
X146360715Y-129041071D01*
X146217857Y-128969643D01*
X146146429Y-128898214D01*
X146075000Y-128755357D01*
X146075000Y-128326786D01*
X146146429Y-128183929D01*
X146217857Y-128112500D01*
X146360715Y-128041071D01*
X146646429Y-128041071D01*
X146789286Y-128112500D01*
D12*
X49212500Y-77787500D02*
X47434500Y-77787500D01*
X38290500Y-77787500D02*
X36512500Y-77787500D01*
X36512500Y-77787500D02*
X36512500Y-76009500D01*
X36512500Y-66865500D02*
X36512500Y-65087500D01*
X36512500Y-65087500D02*
X38290500Y-65087500D01*
X47434500Y-65087500D02*
X49212500Y-65087500D01*
X49212500Y-65087500D02*
X49212500Y-66865500D01*
X49212500Y-76009500D02*
X49212500Y-77787500D01*
X63500000Y-58737500D02*
X61722000Y-58737500D01*
X52578000Y-58737500D02*
X50800000Y-58737500D01*
X50800000Y-58737500D02*
X50800000Y-56959500D01*
X50800000Y-47815500D02*
X50800000Y-46037500D01*
X50800000Y-46037500D02*
X52578000Y-46037500D01*
X61722000Y-46037500D02*
X63500000Y-46037500D01*
X63500000Y-46037500D02*
X63500000Y-47815500D01*
X63500000Y-56959500D02*
X63500000Y-58737500D01*
X165893750Y-134937500D02*
X164115750Y-134937500D01*
X154971750Y-134937500D02*
X153193750Y-134937500D01*
X153193750Y-134937500D02*
X153193750Y-133159500D01*
X153193750Y-124015500D02*
X153193750Y-122237500D01*
X153193750Y-122237500D02*
X154971750Y-122237500D01*
X164115750Y-122237500D02*
X165893750Y-122237500D01*
X165893750Y-122237500D02*
X165893750Y-124015500D01*
X165893750Y-133159500D02*
X165893750Y-134937500D01*
X87312500Y-115887500D02*
X85534500Y-115887500D01*
X76390500Y-115887500D02*
X74612500Y-115887500D01*
X74612500Y-115887500D02*
X74612500Y-114109500D01*
X74612500Y-104965500D02*
X74612500Y-103187500D01*
X74612500Y-103187500D02*
X76390500Y-103187500D01*
X85534500Y-103187500D02*
X87312500Y-103187500D01*
X87312500Y-103187500D02*
X87312500Y-104965500D01*
X87312500Y-114109500D02*
X87312500Y-115887500D01*
X299243750Y-96837500D02*
X297465750Y-96837500D01*
X288321750Y-96837500D02*
X286543750Y-96837500D01*
X286543750Y-96837500D02*
X286543750Y-95059500D01*
X286543750Y-85915500D02*
X286543750Y-84137500D01*
X286543750Y-84137500D02*
X288321750Y-84137500D01*
X297465750Y-84137500D02*
X299243750Y-84137500D01*
X299243750Y-84137500D02*
X299243750Y-85915500D01*
X299243750Y-95059500D02*
X299243750Y-96837500D01*
X125412500Y-115887500D02*
X123634500Y-115887500D01*
X114490500Y-115887500D02*
X112712500Y-115887500D01*
X112712500Y-115887500D02*
X112712500Y-114109500D01*
X112712500Y-104965500D02*
X112712500Y-103187500D01*
X112712500Y-103187500D02*
X114490500Y-103187500D01*
X123634500Y-103187500D02*
X125412500Y-103187500D01*
X125412500Y-103187500D02*
X125412500Y-104965500D01*
X125412500Y-114109500D02*
X125412500Y-115887500D01*
X94456250Y-134937500D02*
X92678250Y-134937500D01*
X83534250Y-134937500D02*
X81756250Y-134937500D01*
X81756250Y-134937500D02*
X81756250Y-133159500D01*
X81756250Y-124015500D02*
X81756250Y-122237500D01*
X81756250Y-122237500D02*
X83534250Y-122237500D01*
X92678250Y-122237500D02*
X94456250Y-122237500D01*
X94456250Y-122237500D02*
X94456250Y-124015500D01*
X94456250Y-133159500D02*
X94456250Y-134937500D01*
X177800000Y-58737500D02*
X176022000Y-58737500D01*
X166878000Y-58737500D02*
X165100000Y-58737500D01*
X165100000Y-58737500D02*
X165100000Y-56959500D01*
X165100000Y-47815500D02*
X165100000Y-46037500D01*
X165100000Y-46037500D02*
X166878000Y-46037500D01*
X176022000Y-46037500D02*
X177800000Y-46037500D01*
X177800000Y-46037500D02*
X177800000Y-47815500D01*
X177800000Y-56959500D02*
X177800000Y-58737500D01*
X82550000Y-58737500D02*
X80772000Y-58737500D01*
X71628000Y-58737500D02*
X69850000Y-58737500D01*
X69850000Y-58737500D02*
X69850000Y-56959500D01*
X69850000Y-47815500D02*
X69850000Y-46037500D01*
X69850000Y-46037500D02*
X71628000Y-46037500D01*
X80772000Y-46037500D02*
X82550000Y-46037500D01*
X82550000Y-46037500D02*
X82550000Y-47815500D01*
X82550000Y-56959500D02*
X82550000Y-58737500D01*
X44450000Y-58737500D02*
X42672000Y-58737500D01*
X33528000Y-58737500D02*
X31750000Y-58737500D01*
X31750000Y-58737500D02*
X31750000Y-56959500D01*
X31750000Y-47815500D02*
X31750000Y-46037500D01*
X31750000Y-46037500D02*
X33528000Y-46037500D01*
X42672000Y-46037500D02*
X44450000Y-46037500D01*
X44450000Y-46037500D02*
X44450000Y-47815500D01*
X44450000Y-56959500D02*
X44450000Y-58737500D01*
X234950000Y-58737500D02*
X233172000Y-58737500D01*
X224028000Y-58737500D02*
X222250000Y-58737500D01*
X222250000Y-58737500D02*
X222250000Y-56959500D01*
X222250000Y-47815500D02*
X222250000Y-46037500D01*
X222250000Y-46037500D02*
X224028000Y-46037500D01*
X233172000Y-46037500D02*
X234950000Y-46037500D01*
X234950000Y-46037500D02*
X234950000Y-47815500D01*
X234950000Y-56959500D02*
X234950000Y-58737500D01*
X254000000Y-58737500D02*
X252222000Y-58737500D01*
X243078000Y-58737500D02*
X241300000Y-58737500D01*
X241300000Y-58737500D02*
X241300000Y-56959500D01*
X241300000Y-47815500D02*
X241300000Y-46037500D01*
X241300000Y-46037500D02*
X243078000Y-46037500D01*
X252222000Y-46037500D02*
X254000000Y-46037500D01*
X254000000Y-46037500D02*
X254000000Y-47815500D01*
X254000000Y-56959500D02*
X254000000Y-58737500D01*
X273050000Y-58737500D02*
X271272000Y-58737500D01*
X262128000Y-58737500D02*
X260350000Y-58737500D01*
X260350000Y-58737500D02*
X260350000Y-56959500D01*
X260350000Y-47815500D02*
X260350000Y-46037500D01*
X260350000Y-46037500D02*
X262128000Y-46037500D01*
X271272000Y-46037500D02*
X273050000Y-46037500D01*
X273050000Y-46037500D02*
X273050000Y-47815500D01*
X273050000Y-56959500D02*
X273050000Y-58737500D01*
X288925000Y-46037500D02*
X290703000Y-46037500D01*
X299847000Y-46037500D02*
X301625000Y-46037500D01*
X301625000Y-46037500D02*
X301625000Y-47815500D01*
X301625000Y-56959500D02*
X301625000Y-58737500D01*
X301625000Y-58737500D02*
X299847000Y-58737500D01*
X290703000Y-58737500D02*
X288925000Y-58737500D01*
X288925000Y-58737500D02*
X288925000Y-56959500D01*
X288925000Y-47815500D02*
X288925000Y-46037500D01*
X244475000Y-77787500D02*
X242697000Y-77787500D01*
X233553000Y-77787500D02*
X231775000Y-77787500D01*
X231775000Y-77787500D02*
X231775000Y-76009500D01*
X231775000Y-66865500D02*
X231775000Y-65087500D01*
X231775000Y-65087500D02*
X233553000Y-65087500D01*
X242697000Y-65087500D02*
X244475000Y-65087500D01*
X244475000Y-65087500D02*
X244475000Y-66865500D01*
X244475000Y-76009500D02*
X244475000Y-77787500D01*
X263525000Y-77787500D02*
X261747000Y-77787500D01*
X252603000Y-77787500D02*
X250825000Y-77787500D01*
X250825000Y-77787500D02*
X250825000Y-76009500D01*
X250825000Y-66865500D02*
X250825000Y-65087500D01*
X250825000Y-65087500D02*
X252603000Y-65087500D01*
X261747000Y-65087500D02*
X263525000Y-65087500D01*
X263525000Y-65087500D02*
X263525000Y-66865500D01*
X263525000Y-76009500D02*
X263525000Y-77787500D01*
X282575000Y-77787500D02*
X280797000Y-77787500D01*
X271653000Y-77787500D02*
X269875000Y-77787500D01*
X269875000Y-77787500D02*
X269875000Y-76009500D01*
X269875000Y-66865500D02*
X269875000Y-65087500D01*
X269875000Y-65087500D02*
X271653000Y-65087500D01*
X280797000Y-65087500D02*
X282575000Y-65087500D01*
X282575000Y-65087500D02*
X282575000Y-66865500D01*
X282575000Y-76009500D02*
X282575000Y-77787500D01*
X306387500Y-77787500D02*
X304609500Y-77787500D01*
X295465500Y-77787500D02*
X293687500Y-77787500D01*
X293687500Y-77787500D02*
X293687500Y-76009500D01*
X293687500Y-66865500D02*
X293687500Y-65087500D01*
X293687500Y-65087500D02*
X295465500Y-65087500D01*
X304609500Y-65087500D02*
X306387500Y-65087500D01*
X306387500Y-65087500D02*
X306387500Y-66865500D01*
X306387500Y-76009500D02*
X306387500Y-77787500D01*
X249237500Y-96837500D02*
X247459500Y-96837500D01*
X238315500Y-96837500D02*
X236537500Y-96837500D01*
X236537500Y-96837500D02*
X236537500Y-95059500D01*
X236537500Y-85915500D02*
X236537500Y-84137500D01*
X236537500Y-84137500D02*
X238315500Y-84137500D01*
X247459500Y-84137500D02*
X249237500Y-84137500D01*
X249237500Y-84137500D02*
X249237500Y-85915500D01*
X249237500Y-95059500D02*
X249237500Y-96837500D01*
X268287500Y-96837500D02*
X266509500Y-96837500D01*
X257365500Y-96837500D02*
X255587500Y-96837500D01*
X255587500Y-96837500D02*
X255587500Y-95059500D01*
X255587500Y-85915500D02*
X255587500Y-84137500D01*
X255587500Y-84137500D02*
X257365500Y-84137500D01*
X266509500Y-84137500D02*
X268287500Y-84137500D01*
X268287500Y-84137500D02*
X268287500Y-85915500D01*
X268287500Y-95059500D02*
X268287500Y-96837500D01*
X101600000Y-58737500D02*
X99822000Y-58737500D01*
X90678000Y-58737500D02*
X88900000Y-58737500D01*
X88900000Y-58737500D02*
X88900000Y-56959500D01*
X88900000Y-47815500D02*
X88900000Y-46037500D01*
X88900000Y-46037500D02*
X90678000Y-46037500D01*
X99822000Y-46037500D02*
X101600000Y-46037500D01*
X101600000Y-46037500D02*
X101600000Y-47815500D01*
X101600000Y-56959500D02*
X101600000Y-58737500D01*
X258762500Y-115887500D02*
X256984500Y-115887500D01*
X247840500Y-115887500D02*
X246062500Y-115887500D01*
X246062500Y-115887500D02*
X246062500Y-114109500D01*
X246062500Y-104965500D02*
X246062500Y-103187500D01*
X246062500Y-103187500D02*
X247840500Y-103187500D01*
X256984500Y-103187500D02*
X258762500Y-103187500D01*
X258762500Y-103187500D02*
X258762500Y-104965500D01*
X258762500Y-114109500D02*
X258762500Y-115887500D01*
X120650000Y-58737500D02*
X118872000Y-58737500D01*
X109728000Y-58737500D02*
X107950000Y-58737500D01*
X107950000Y-58737500D02*
X107950000Y-56959500D01*
X107950000Y-47815500D02*
X107950000Y-46037500D01*
X107950000Y-46037500D02*
X109728000Y-46037500D01*
X118872000Y-46037500D02*
X120650000Y-46037500D01*
X120650000Y-46037500D02*
X120650000Y-47815500D01*
X120650000Y-56959500D02*
X120650000Y-58737500D01*
X139700000Y-58737500D02*
X137922000Y-58737500D01*
X128778000Y-58737500D02*
X127000000Y-58737500D01*
X127000000Y-58737500D02*
X127000000Y-56959500D01*
X127000000Y-47815500D02*
X127000000Y-46037500D01*
X127000000Y-46037500D02*
X128778000Y-46037500D01*
X137922000Y-46037500D02*
X139700000Y-46037500D01*
X139700000Y-46037500D02*
X139700000Y-47815500D01*
X139700000Y-56959500D02*
X139700000Y-58737500D01*
X158750000Y-58737500D02*
X156972000Y-58737500D01*
X147828000Y-58737500D02*
X146050000Y-58737500D01*
X146050000Y-58737500D02*
X146050000Y-56959500D01*
X146050000Y-47815500D02*
X146050000Y-46037500D01*
X146050000Y-46037500D02*
X147828000Y-46037500D01*
X156972000Y-46037500D02*
X158750000Y-46037500D01*
X158750000Y-46037500D02*
X158750000Y-47815500D01*
X158750000Y-56959500D02*
X158750000Y-58737500D01*
X196850000Y-58737500D02*
X195072000Y-58737500D01*
X185928000Y-58737500D02*
X184150000Y-58737500D01*
X184150000Y-58737500D02*
X184150000Y-56959500D01*
X184150000Y-47815500D02*
X184150000Y-46037500D01*
X184150000Y-46037500D02*
X185928000Y-46037500D01*
X195072000Y-46037500D02*
X196850000Y-46037500D01*
X196850000Y-46037500D02*
X196850000Y-47815500D01*
X196850000Y-56959500D02*
X196850000Y-58737500D01*
X215900000Y-58737500D02*
X214122000Y-58737500D01*
X204978000Y-58737500D02*
X203200000Y-58737500D01*
X203200000Y-58737500D02*
X203200000Y-56959500D01*
X203200000Y-47815500D02*
X203200000Y-46037500D01*
X203200000Y-46037500D02*
X204978000Y-46037500D01*
X214122000Y-46037500D02*
X215900000Y-46037500D01*
X215900000Y-46037500D02*
X215900000Y-47815500D01*
X215900000Y-56959500D02*
X215900000Y-58737500D01*
X73025000Y-77787500D02*
X71247000Y-77787500D01*
X62103000Y-77787500D02*
X60325000Y-77787500D01*
X60325000Y-77787500D02*
X60325000Y-76009500D01*
X60325000Y-66865500D02*
X60325000Y-65087500D01*
X60325000Y-65087500D02*
X62103000Y-65087500D01*
X71247000Y-65087500D02*
X73025000Y-65087500D01*
X73025000Y-65087500D02*
X73025000Y-66865500D01*
X73025000Y-76009500D02*
X73025000Y-77787500D01*
X92075000Y-77787500D02*
X90297000Y-77787500D01*
X81153000Y-77787500D02*
X79375000Y-77787500D01*
X79375000Y-77787500D02*
X79375000Y-76009500D01*
X79375000Y-66865500D02*
X79375000Y-65087500D01*
X79375000Y-65087500D02*
X81153000Y-65087500D01*
X90297000Y-65087500D02*
X92075000Y-65087500D01*
X92075000Y-65087500D02*
X92075000Y-66865500D01*
X92075000Y-76009500D02*
X92075000Y-77787500D01*
X111125000Y-77787500D02*
X109347000Y-77787500D01*
X100203000Y-77787500D02*
X98425000Y-77787500D01*
X98425000Y-77787500D02*
X98425000Y-76009500D01*
X98425000Y-66865500D02*
X98425000Y-65087500D01*
X98425000Y-65087500D02*
X100203000Y-65087500D01*
X109347000Y-65087500D02*
X111125000Y-65087500D01*
X111125000Y-65087500D02*
X111125000Y-66865500D01*
X111125000Y-76009500D02*
X111125000Y-77787500D01*
X130175000Y-77787500D02*
X128397000Y-77787500D01*
X119253000Y-77787500D02*
X117475000Y-77787500D01*
X117475000Y-77787500D02*
X117475000Y-76009500D01*
X117475000Y-66865500D02*
X117475000Y-65087500D01*
X117475000Y-65087500D02*
X119253000Y-65087500D01*
X128397000Y-65087500D02*
X130175000Y-65087500D01*
X130175000Y-65087500D02*
X130175000Y-66865500D01*
X130175000Y-76009500D02*
X130175000Y-77787500D01*
X149225000Y-77787500D02*
X147447000Y-77787500D01*
X138303000Y-77787500D02*
X136525000Y-77787500D01*
X136525000Y-77787500D02*
X136525000Y-76009500D01*
X136525000Y-66865500D02*
X136525000Y-65087500D01*
X136525000Y-65087500D02*
X138303000Y-65087500D01*
X147447000Y-65087500D02*
X149225000Y-65087500D01*
X149225000Y-65087500D02*
X149225000Y-66865500D01*
X149225000Y-76009500D02*
X149225000Y-77787500D01*
X168275000Y-77787500D02*
X166497000Y-77787500D01*
X157353000Y-77787500D02*
X155575000Y-77787500D01*
X155575000Y-77787500D02*
X155575000Y-76009500D01*
X155575000Y-66865500D02*
X155575000Y-65087500D01*
X155575000Y-65087500D02*
X157353000Y-65087500D01*
X166497000Y-65087500D02*
X168275000Y-65087500D01*
X168275000Y-65087500D02*
X168275000Y-66865500D01*
X168275000Y-76009500D02*
X168275000Y-77787500D01*
X187325000Y-77787500D02*
X185547000Y-77787500D01*
X176403000Y-77787500D02*
X174625000Y-77787500D01*
X174625000Y-77787500D02*
X174625000Y-76009500D01*
X174625000Y-66865500D02*
X174625000Y-65087500D01*
X174625000Y-65087500D02*
X176403000Y-65087500D01*
X185547000Y-65087500D02*
X187325000Y-65087500D01*
X187325000Y-65087500D02*
X187325000Y-66865500D01*
X187325000Y-76009500D02*
X187325000Y-77787500D01*
X206375000Y-77787500D02*
X204597000Y-77787500D01*
X195453000Y-77787500D02*
X193675000Y-77787500D01*
X193675000Y-77787500D02*
X193675000Y-76009500D01*
X193675000Y-66865500D02*
X193675000Y-65087500D01*
X193675000Y-65087500D02*
X195453000Y-65087500D01*
X204597000Y-65087500D02*
X206375000Y-65087500D01*
X206375000Y-65087500D02*
X206375000Y-66865500D01*
X206375000Y-76009500D02*
X206375000Y-77787500D01*
X225425000Y-77787500D02*
X223647000Y-77787500D01*
X214503000Y-77787500D02*
X212725000Y-77787500D01*
X212725000Y-77787500D02*
X212725000Y-76009500D01*
X212725000Y-66865500D02*
X212725000Y-65087500D01*
X212725000Y-65087500D02*
X214503000Y-65087500D01*
X223647000Y-65087500D02*
X225425000Y-65087500D01*
X225425000Y-65087500D02*
X225425000Y-66865500D01*
X225425000Y-76009500D02*
X225425000Y-77787500D01*
X51593750Y-96837500D02*
X49815750Y-96837500D01*
X40671750Y-96837500D02*
X38893750Y-96837500D01*
X38893750Y-96837500D02*
X38893750Y-95059500D01*
X38893750Y-85915500D02*
X38893750Y-84137500D01*
X38893750Y-84137500D02*
X40671750Y-84137500D01*
X49815750Y-84137500D02*
X51593750Y-84137500D01*
X51593750Y-84137500D02*
X51593750Y-85915500D01*
X51593750Y-95059500D02*
X51593750Y-96837500D01*
X77787500Y-96837500D02*
X76009500Y-96837500D01*
X66865500Y-96837500D02*
X65087500Y-96837500D01*
X65087500Y-96837500D02*
X65087500Y-95059500D01*
X65087500Y-85915500D02*
X65087500Y-84137500D01*
X65087500Y-84137500D02*
X66865500Y-84137500D01*
X76009500Y-84137500D02*
X77787500Y-84137500D01*
X77787500Y-84137500D02*
X77787500Y-85915500D01*
X77787500Y-95059500D02*
X77787500Y-96837500D01*
X96837500Y-96837500D02*
X95059500Y-96837500D01*
X85915500Y-96837500D02*
X84137500Y-96837500D01*
X84137500Y-96837500D02*
X84137500Y-95059500D01*
X84137500Y-85915500D02*
X84137500Y-84137500D01*
X84137500Y-84137500D02*
X85915500Y-84137500D01*
X95059500Y-84137500D02*
X96837500Y-84137500D01*
X96837500Y-84137500D02*
X96837500Y-85915500D01*
X96837500Y-95059500D02*
X96837500Y-96837500D01*
X115887500Y-96837500D02*
X114109500Y-96837500D01*
X104965500Y-96837500D02*
X103187500Y-96837500D01*
X103187500Y-96837500D02*
X103187500Y-95059500D01*
X103187500Y-85915500D02*
X103187500Y-84137500D01*
X103187500Y-84137500D02*
X104965500Y-84137500D01*
X114109500Y-84137500D02*
X115887500Y-84137500D01*
X115887500Y-84137500D02*
X115887500Y-85915500D01*
X115887500Y-95059500D02*
X115887500Y-96837500D01*
X134937500Y-96837500D02*
X133159500Y-96837500D01*
X124015500Y-96837500D02*
X122237500Y-96837500D01*
X122237500Y-96837500D02*
X122237500Y-95059500D01*
X122237500Y-85915500D02*
X122237500Y-84137500D01*
X122237500Y-84137500D02*
X124015500Y-84137500D01*
X133159500Y-84137500D02*
X134937500Y-84137500D01*
X134937500Y-84137500D02*
X134937500Y-85915500D01*
X134937500Y-95059500D02*
X134937500Y-96837500D01*
X153987500Y-96837500D02*
X152209500Y-96837500D01*
X143065500Y-96837500D02*
X141287500Y-96837500D01*
X141287500Y-96837500D02*
X141287500Y-95059500D01*
X141287500Y-85915500D02*
X141287500Y-84137500D01*
X141287500Y-84137500D02*
X143065500Y-84137500D01*
X152209500Y-84137500D02*
X153987500Y-84137500D01*
X153987500Y-84137500D02*
X153987500Y-85915500D01*
X153987500Y-95059500D02*
X153987500Y-96837500D01*
X173037500Y-96837500D02*
X171259500Y-96837500D01*
X162115500Y-96837500D02*
X160337500Y-96837500D01*
X160337500Y-96837500D02*
X160337500Y-95059500D01*
X160337500Y-85915500D02*
X160337500Y-84137500D01*
X160337500Y-84137500D02*
X162115500Y-84137500D01*
X171259500Y-84137500D02*
X173037500Y-84137500D01*
X173037500Y-84137500D02*
X173037500Y-85915500D01*
X173037500Y-95059500D02*
X173037500Y-96837500D01*
X192087500Y-96837500D02*
X190309500Y-96837500D01*
X181165500Y-96837500D02*
X179387500Y-96837500D01*
X179387500Y-96837500D02*
X179387500Y-95059500D01*
X179387500Y-85915500D02*
X179387500Y-84137500D01*
X179387500Y-84137500D02*
X181165500Y-84137500D01*
X190309500Y-84137500D02*
X192087500Y-84137500D01*
X192087500Y-84137500D02*
X192087500Y-85915500D01*
X192087500Y-95059500D02*
X192087500Y-96837500D01*
X211137500Y-96837500D02*
X209359500Y-96837500D01*
X200215500Y-96837500D02*
X198437500Y-96837500D01*
X198437500Y-96837500D02*
X198437500Y-95059500D01*
X198437500Y-85915500D02*
X198437500Y-84137500D01*
X198437500Y-84137500D02*
X200215500Y-84137500D01*
X209359500Y-84137500D02*
X211137500Y-84137500D01*
X211137500Y-84137500D02*
X211137500Y-85915500D01*
X211137500Y-95059500D02*
X211137500Y-96837500D01*
X230187500Y-96837500D02*
X228409500Y-96837500D01*
X219265500Y-96837500D02*
X217487500Y-96837500D01*
X217487500Y-96837500D02*
X217487500Y-95059500D01*
X217487500Y-85915500D02*
X217487500Y-84137500D01*
X217487500Y-84137500D02*
X219265500Y-84137500D01*
X228409500Y-84137500D02*
X230187500Y-84137500D01*
X230187500Y-84137500D02*
X230187500Y-85915500D01*
X230187500Y-95059500D02*
X230187500Y-96837500D01*
X106362500Y-115887500D02*
X104584500Y-115887500D01*
X95440500Y-115887500D02*
X93662500Y-115887500D01*
X93662500Y-115887500D02*
X93662500Y-114109500D01*
X93662500Y-104965500D02*
X93662500Y-103187500D01*
X93662500Y-103187500D02*
X95440500Y-103187500D01*
X104584500Y-103187500D02*
X106362500Y-103187500D01*
X106362500Y-103187500D02*
X106362500Y-104965500D01*
X106362500Y-114109500D02*
X106362500Y-115887500D01*
X144462500Y-115887500D02*
X142684500Y-115887500D01*
X133540500Y-115887500D02*
X131762500Y-115887500D01*
X131762500Y-115887500D02*
X131762500Y-114109500D01*
X131762500Y-104965500D02*
X131762500Y-103187500D01*
X131762500Y-103187500D02*
X133540500Y-103187500D01*
X142684500Y-103187500D02*
X144462500Y-103187500D01*
X144462500Y-103187500D02*
X144462500Y-104965500D01*
X144462500Y-114109500D02*
X144462500Y-115887500D01*
X163512500Y-115887500D02*
X161734500Y-115887500D01*
X152590500Y-115887500D02*
X150812500Y-115887500D01*
X150812500Y-115887500D02*
X150812500Y-114109500D01*
X150812500Y-104965500D02*
X150812500Y-103187500D01*
X150812500Y-103187500D02*
X152590500Y-103187500D01*
X161734500Y-103187500D02*
X163512500Y-103187500D01*
X163512500Y-103187500D02*
X163512500Y-104965500D01*
X163512500Y-114109500D02*
X163512500Y-115887500D01*
X182562500Y-115887500D02*
X180784500Y-115887500D01*
X171640500Y-115887500D02*
X169862500Y-115887500D01*
X169862500Y-115887500D02*
X169862500Y-114109500D01*
X169862500Y-104965500D02*
X169862500Y-103187500D01*
X169862500Y-103187500D02*
X171640500Y-103187500D01*
X180784500Y-103187500D02*
X182562500Y-103187500D01*
X182562500Y-103187500D02*
X182562500Y-104965500D01*
X182562500Y-114109500D02*
X182562500Y-115887500D01*
X201612500Y-115887500D02*
X199834500Y-115887500D01*
X190690500Y-115887500D02*
X188912500Y-115887500D01*
X188912500Y-115887500D02*
X188912500Y-114109500D01*
X188912500Y-104965500D02*
X188912500Y-103187500D01*
X188912500Y-103187500D02*
X190690500Y-103187500D01*
X199834500Y-103187500D02*
X201612500Y-103187500D01*
X201612500Y-103187500D02*
X201612500Y-104965500D01*
X201612500Y-114109500D02*
X201612500Y-115887500D01*
X220662500Y-115887500D02*
X218884500Y-115887500D01*
X209740500Y-115887500D02*
X207962500Y-115887500D01*
X207962500Y-115887500D02*
X207962500Y-114109500D01*
X207962500Y-104965500D02*
X207962500Y-103187500D01*
X207962500Y-103187500D02*
X209740500Y-103187500D01*
X218884500Y-103187500D02*
X220662500Y-103187500D01*
X220662500Y-103187500D02*
X220662500Y-104965500D01*
X220662500Y-114109500D02*
X220662500Y-115887500D01*
X239712500Y-115887500D02*
X237934500Y-115887500D01*
X228790500Y-115887500D02*
X227012500Y-115887500D01*
X227012500Y-115887500D02*
X227012500Y-114109500D01*
X227012500Y-104965500D02*
X227012500Y-103187500D01*
X227012500Y-103187500D02*
X228790500Y-103187500D01*
X237934500Y-103187500D02*
X239712500Y-103187500D01*
X239712500Y-103187500D02*
X239712500Y-104965500D01*
X239712500Y-114109500D02*
X239712500Y-115887500D01*
X46831250Y-134937500D02*
X45053250Y-134937500D01*
X35909250Y-134937500D02*
X34131250Y-134937500D01*
X34131250Y-134937500D02*
X34131250Y-133159500D01*
X34131250Y-124015500D02*
X34131250Y-122237500D01*
X34131250Y-122237500D02*
X35909250Y-122237500D01*
X45053250Y-122237500D02*
X46831250Y-122237500D01*
X46831250Y-122237500D02*
X46831250Y-124015500D01*
X46831250Y-133159500D02*
X46831250Y-134937500D01*
X70643750Y-134937500D02*
X68865750Y-134937500D01*
X59721750Y-134937500D02*
X57943750Y-134937500D01*
X57943750Y-134937500D02*
X57943750Y-133159500D01*
X57943750Y-124015500D02*
X57943750Y-122237500D01*
X57943750Y-122237500D02*
X59721750Y-122237500D01*
X68865750Y-122237500D02*
X70643750Y-122237500D01*
X70643750Y-122237500D02*
X70643750Y-124015500D01*
X70643750Y-133159500D02*
X70643750Y-134937500D01*
X294481250Y-115887500D02*
X292703250Y-115887500D01*
X283559250Y-115887500D02*
X281781250Y-115887500D01*
X281781250Y-115887500D02*
X281781250Y-114109500D01*
X281781250Y-104965500D02*
X281781250Y-103187500D01*
X281781250Y-103187500D02*
X283559250Y-103187500D01*
X292703250Y-103187500D02*
X294481250Y-103187500D01*
X294481250Y-103187500D02*
X294481250Y-104965500D01*
X294481250Y-114109500D02*
X294481250Y-115887500D01*
X284956250Y-134937500D02*
X283178250Y-134937500D01*
X274034250Y-134937500D02*
X272256250Y-134937500D01*
X272256250Y-134937500D02*
X272256250Y-133159500D01*
X272256250Y-124015500D02*
X272256250Y-122237500D01*
X272256250Y-122237500D02*
X274034250Y-122237500D01*
X283178250Y-122237500D02*
X284956250Y-122237500D01*
X284956250Y-122237500D02*
X284956250Y-124015500D01*
X284956250Y-133159500D02*
X284956250Y-134937500D01*
X308768750Y-134937500D02*
X306990750Y-134937500D01*
X297846750Y-134937500D02*
X296068750Y-134937500D01*
X296068750Y-134937500D02*
X296068750Y-133159500D01*
X296068750Y-124015500D02*
X296068750Y-122237500D01*
X296068750Y-122237500D02*
X297846750Y-122237500D01*
X306990750Y-122237500D02*
X308768750Y-122237500D01*
X308768750Y-122237500D02*
X308768750Y-124015500D01*
X308768750Y-133159500D02*
X308768750Y-134937500D01*
X56356250Y-115887500D02*
X54578250Y-115887500D01*
X45434250Y-115887500D02*
X43656250Y-115887500D01*
X43656250Y-115887500D02*
X43656250Y-114109500D01*
X43656250Y-104965500D02*
X43656250Y-103187500D01*
X43656250Y-103187500D02*
X45434250Y-103187500D01*
X54578250Y-103187500D02*
X56356250Y-103187500D01*
X56356250Y-103187500D02*
X56356250Y-104965500D01*
X56356250Y-114109500D02*
X56356250Y-115887500D01*
X237331250Y-134937500D02*
X235553250Y-134937500D01*
X226409250Y-134937500D02*
X224631250Y-134937500D01*
X224631250Y-134937500D02*
X224631250Y-133159500D01*
X224631250Y-124015500D02*
X224631250Y-122237500D01*
X224631250Y-122237500D02*
X226409250Y-122237500D01*
X235553250Y-122237500D02*
X237331250Y-122237500D01*
X237331250Y-122237500D02*
X237331250Y-124015500D01*
X237331250Y-133159500D02*
X237331250Y-134937500D01*
X261143750Y-134937500D02*
X259365750Y-134937500D01*
X250221750Y-134937500D02*
X248443750Y-134937500D01*
X248443750Y-134937500D02*
X248443750Y-133159500D01*
X248443750Y-124015500D02*
X248443750Y-122237500D01*
X248443750Y-122237500D02*
X250221750Y-122237500D01*
X259365750Y-122237500D02*
X261143750Y-122237500D01*
X261143750Y-122237500D02*
X261143750Y-124015500D01*
X261143750Y-133159500D02*
X261143750Y-134937500D01*
D13*
X201405000Y-50132500D02*
X201405000Y-47532500D01*
X201405000Y-47532500D02*
X198745000Y-47532500D01*
X198745000Y-47532500D02*
X198745000Y-50132500D01*
X198745000Y-50132500D02*
X201405000Y-50132500D01*
X201405000Y-51402500D02*
X201405000Y-52732500D01*
X201405000Y-52732500D02*
X200075000Y-52732500D01*
D14*
X41011928Y-68837024D02*
X41011928Y-67567024D01*
X41882785Y-68837024D02*
X41229642Y-68111310D01*
X41882785Y-67567024D02*
X41011928Y-68292738D01*
X43334214Y-68837024D02*
X42463357Y-68837024D01*
X42898785Y-68837024D02*
X42898785Y-67567024D01*
X42753642Y-67748452D01*
X42608500Y-67869405D01*
X42463357Y-67929881D01*
X44277643Y-67567024D02*
X44422786Y-67567024D01*
X44567929Y-67627500D01*
X44640500Y-67687976D01*
X44713071Y-67808929D01*
X44785643Y-68050833D01*
X44785643Y-68353214D01*
X44713071Y-68595119D01*
X44640500Y-68716071D01*
X44567929Y-68776548D01*
X44422786Y-68837024D01*
X44277643Y-68837024D01*
X44132500Y-68776548D01*
X44059929Y-68716071D01*
X43987357Y-68595119D01*
X43914786Y-68353214D01*
X43914786Y-68050833D01*
X43987357Y-67808929D01*
X44059929Y-67687976D01*
X44132500Y-67627500D01*
X44277643Y-67567024D01*
X56025143Y-49787024D02*
X56025143Y-48517024D01*
X56896000Y-49787024D02*
X56242857Y-49061310D01*
X56896000Y-48517024D02*
X56025143Y-49242738D01*
X58347429Y-49787024D02*
X57476572Y-49787024D01*
X57912000Y-49787024D02*
X57912000Y-48517024D01*
X57766857Y-48698452D01*
X57621715Y-48819405D01*
X57476572Y-48879881D01*
X157693178Y-125987024D02*
X157693178Y-124717024D01*
X158564035Y-125987024D02*
X157910892Y-125261310D01*
X158564035Y-124717024D02*
X157693178Y-125442738D01*
X159870321Y-125140357D02*
X159870321Y-125987024D01*
X159507464Y-124656548D02*
X159144607Y-125563690D01*
X160088035Y-125563690D01*
X161394321Y-124717024D02*
X160668607Y-124717024D01*
X160596036Y-125321786D01*
X160668607Y-125261310D01*
X160813750Y-125200833D01*
X161176607Y-125200833D01*
X161321750Y-125261310D01*
X161394321Y-125321786D01*
X161466893Y-125442738D01*
X161466893Y-125745119D01*
X161394321Y-125866071D01*
X161321750Y-125926548D01*
X161176607Y-125987024D01*
X160813750Y-125987024D01*
X160668607Y-125926548D01*
X160596036Y-125866071D01*
X79111928Y-106937024D02*
X79111928Y-105667024D01*
X79982785Y-106937024D02*
X79329642Y-106211310D01*
X79982785Y-105667024D02*
X79111928Y-106392738D01*
X80490785Y-105667024D02*
X81434214Y-105667024D01*
X80926214Y-106150833D01*
X81143928Y-106150833D01*
X81289071Y-106211310D01*
X81361642Y-106271786D01*
X81434214Y-106392738D01*
X81434214Y-106695119D01*
X81361642Y-106816071D01*
X81289071Y-106876548D01*
X81143928Y-106937024D01*
X80708500Y-106937024D01*
X80563357Y-106876548D01*
X80490785Y-106816071D01*
X82885643Y-106937024D02*
X82014786Y-106937024D01*
X82450214Y-106937024D02*
X82450214Y-105667024D01*
X82305071Y-105848452D01*
X82159929Y-105969405D01*
X82014786Y-106029881D01*
X290281178Y-87887024D02*
X290281178Y-86617024D01*
X291152035Y-87887024D02*
X290498892Y-87161310D01*
X291152035Y-86617024D02*
X290281178Y-87342738D01*
X291732607Y-86737976D02*
X291805178Y-86677500D01*
X291950321Y-86617024D01*
X292313178Y-86617024D01*
X292458321Y-86677500D01*
X292530892Y-86737976D01*
X292603464Y-86858929D01*
X292603464Y-86979881D01*
X292530892Y-87161310D01*
X291660035Y-87887024D01*
X292603464Y-87887024D01*
X294127464Y-87766071D02*
X294054893Y-87826548D01*
X293837179Y-87887024D01*
X293692036Y-87887024D01*
X293474321Y-87826548D01*
X293329179Y-87705595D01*
X293256607Y-87584643D01*
X293184036Y-87342738D01*
X293184036Y-87161310D01*
X293256607Y-86919405D01*
X293329179Y-86798452D01*
X293474321Y-86677500D01*
X293692036Y-86617024D01*
X293837179Y-86617024D01*
X294054893Y-86677500D01*
X294127464Y-86737976D01*
X295578893Y-87887024D02*
X294708036Y-87887024D01*
X295143464Y-87887024D02*
X295143464Y-86617024D01*
X294998321Y-86798452D01*
X294853179Y-86919405D01*
X294708036Y-86979881D01*
X117211928Y-106937024D02*
X117211928Y-105667024D01*
X118082785Y-106937024D02*
X117429642Y-106211310D01*
X118082785Y-105667024D02*
X117211928Y-106392738D01*
X118590785Y-105667024D02*
X119534214Y-105667024D01*
X119026214Y-106150833D01*
X119243928Y-106150833D01*
X119389071Y-106211310D01*
X119461642Y-106271786D01*
X119534214Y-106392738D01*
X119534214Y-106695119D01*
X119461642Y-106816071D01*
X119389071Y-106876548D01*
X119243928Y-106937024D01*
X118808500Y-106937024D01*
X118663357Y-106876548D01*
X118590785Y-106816071D01*
X120042214Y-105667024D02*
X120985643Y-105667024D01*
X120477643Y-106150833D01*
X120695357Y-106150833D01*
X120840500Y-106211310D01*
X120913071Y-106271786D01*
X120985643Y-106392738D01*
X120985643Y-106695119D01*
X120913071Y-106816071D01*
X120840500Y-106876548D01*
X120695357Y-106937024D01*
X120259929Y-106937024D01*
X120114786Y-106876548D01*
X120042214Y-106816071D01*
X86255678Y-125987024D02*
X86255678Y-124717024D01*
X87126535Y-125987024D02*
X86473392Y-125261310D01*
X87126535Y-124717024D02*
X86255678Y-125442738D01*
X88432821Y-125140357D02*
X88432821Y-125987024D01*
X88069964Y-124656548D02*
X87707107Y-125563690D01*
X88650535Y-125563690D01*
X89158536Y-124837976D02*
X89231107Y-124777500D01*
X89376250Y-124717024D01*
X89739107Y-124717024D01*
X89884250Y-124777500D01*
X89956821Y-124837976D01*
X90029393Y-124958929D01*
X90029393Y-125079881D01*
X89956821Y-125261310D01*
X89085964Y-125987024D01*
X90029393Y-125987024D01*
X170325143Y-49787024D02*
X170325143Y-48517024D01*
X171196000Y-49787024D02*
X170542857Y-49061310D01*
X171196000Y-48517024D02*
X170325143Y-49242738D01*
X171704000Y-48517024D02*
X172720000Y-48517024D01*
X172066857Y-49787024D01*
X75075143Y-49787024D02*
X75075143Y-48517024D01*
X75946000Y-49787024D02*
X75292857Y-49061310D01*
X75946000Y-48517024D02*
X75075143Y-49242738D01*
X76526572Y-48637976D02*
X76599143Y-48577500D01*
X76744286Y-48517024D01*
X77107143Y-48517024D01*
X77252286Y-48577500D01*
X77324857Y-48637976D01*
X77397429Y-48758929D01*
X77397429Y-48879881D01*
X77324857Y-49061310D01*
X76454000Y-49787024D01*
X77397429Y-49787024D01*
X36975143Y-49787024D02*
X36975143Y-48517024D01*
X37846000Y-49787024D02*
X37192857Y-49061310D01*
X37846000Y-48517024D02*
X36975143Y-49242738D01*
X38789429Y-48517024D02*
X38934572Y-48517024D01*
X39079715Y-48577500D01*
X39152286Y-48637976D01*
X39224857Y-48758929D01*
X39297429Y-49000833D01*
X39297429Y-49303214D01*
X39224857Y-49545119D01*
X39152286Y-49666071D01*
X39079715Y-49726548D01*
X38934572Y-49787024D01*
X38789429Y-49787024D01*
X38644286Y-49726548D01*
X38571715Y-49666071D01*
X38499143Y-49545119D01*
X38426572Y-49303214D01*
X38426572Y-49000833D01*
X38499143Y-48758929D01*
X38571715Y-48637976D01*
X38644286Y-48577500D01*
X38789429Y-48517024D01*
X226096285Y-49787024D02*
X226096285Y-48517024D01*
X226967142Y-49787024D02*
X226313999Y-49061310D01*
X226967142Y-48517024D02*
X226096285Y-49242738D01*
X227910571Y-48517024D02*
X228055714Y-48517024D01*
X228200857Y-48577500D01*
X228273428Y-48637976D01*
X228345999Y-48758929D01*
X228418571Y-49000833D01*
X228418571Y-49303214D01*
X228345999Y-49545119D01*
X228273428Y-49666071D01*
X228200857Y-49726548D01*
X228055714Y-49787024D01*
X227910571Y-49787024D01*
X227765428Y-49726548D01*
X227692857Y-49666071D01*
X227620285Y-49545119D01*
X227547714Y-49303214D01*
X227547714Y-49000833D01*
X227620285Y-48758929D01*
X227692857Y-48637976D01*
X227765428Y-48577500D01*
X227910571Y-48517024D01*
X228999143Y-49424167D02*
X229724857Y-49424167D01*
X228854000Y-49787024D02*
X229362000Y-48517024D01*
X229870000Y-49787024D01*
X231176286Y-49787024D02*
X230305429Y-49787024D01*
X230740857Y-49787024D02*
X230740857Y-48517024D01*
X230595714Y-48698452D01*
X230450572Y-48819405D01*
X230305429Y-48879881D01*
X245037428Y-49787024D02*
X245037428Y-48517024D01*
X245908285Y-49787024D02*
X245255142Y-49061310D01*
X245908285Y-48517024D02*
X245037428Y-49242738D01*
X246851714Y-48517024D02*
X246996857Y-48517024D01*
X247142000Y-48577500D01*
X247214571Y-48637976D01*
X247287142Y-48758929D01*
X247359714Y-49000833D01*
X247359714Y-49303214D01*
X247287142Y-49545119D01*
X247214571Y-49666071D01*
X247142000Y-49726548D01*
X246996857Y-49787024D01*
X246851714Y-49787024D01*
X246706571Y-49726548D01*
X246634000Y-49666071D01*
X246561428Y-49545119D01*
X246488857Y-49303214D01*
X246488857Y-49000833D01*
X246561428Y-48758929D01*
X246634000Y-48637976D01*
X246706571Y-48577500D01*
X246851714Y-48517024D01*
X248520857Y-49121786D02*
X248738571Y-49182262D01*
X248811143Y-49242738D01*
X248883714Y-49363690D01*
X248883714Y-49545119D01*
X248811143Y-49666071D01*
X248738571Y-49726548D01*
X248593429Y-49787024D01*
X248012857Y-49787024D01*
X248012857Y-48517024D01*
X248520857Y-48517024D01*
X248666000Y-48577500D01*
X248738571Y-48637976D01*
X248811143Y-48758929D01*
X248811143Y-48879881D01*
X248738571Y-49000833D01*
X248666000Y-49061310D01*
X248520857Y-49121786D01*
X248012857Y-49121786D01*
X250335143Y-49787024D02*
X249464286Y-49787024D01*
X249899714Y-49787024D02*
X249899714Y-48517024D01*
X249754571Y-48698452D01*
X249609429Y-48819405D01*
X249464286Y-48879881D01*
X264087428Y-49787024D02*
X264087428Y-48517024D01*
X264958285Y-49787024D02*
X264305142Y-49061310D01*
X264958285Y-48517024D02*
X264087428Y-49242738D01*
X265901714Y-48517024D02*
X266046857Y-48517024D01*
X266192000Y-48577500D01*
X266264571Y-48637976D01*
X266337142Y-48758929D01*
X266409714Y-49000833D01*
X266409714Y-49303214D01*
X266337142Y-49545119D01*
X266264571Y-49666071D01*
X266192000Y-49726548D01*
X266046857Y-49787024D01*
X265901714Y-49787024D01*
X265756571Y-49726548D01*
X265684000Y-49666071D01*
X265611428Y-49545119D01*
X265538857Y-49303214D01*
X265538857Y-49000833D01*
X265611428Y-48758929D01*
X265684000Y-48637976D01*
X265756571Y-48577500D01*
X265901714Y-48517024D01*
X267933714Y-49666071D02*
X267861143Y-49726548D01*
X267643429Y-49787024D01*
X267498286Y-49787024D01*
X267280571Y-49726548D01*
X267135429Y-49605595D01*
X267062857Y-49484643D01*
X266990286Y-49242738D01*
X266990286Y-49061310D01*
X267062857Y-48819405D01*
X267135429Y-48698452D01*
X267280571Y-48577500D01*
X267498286Y-48517024D01*
X267643429Y-48517024D01*
X267861143Y-48577500D01*
X267933714Y-48637976D01*
X269385143Y-49787024D02*
X268514286Y-49787024D01*
X268949714Y-49787024D02*
X268949714Y-48517024D01*
X268804571Y-48698452D01*
X268659429Y-48819405D01*
X268514286Y-48879881D01*
X292662428Y-56137024D02*
X292662428Y-54867024D01*
X293533285Y-56137024D02*
X292880142Y-55411310D01*
X293533285Y-54867024D02*
X292662428Y-55592738D01*
X294476714Y-54867024D02*
X294621857Y-54867024D01*
X294767000Y-54927500D01*
X294839571Y-54987976D01*
X294912142Y-55108929D01*
X294984714Y-55350833D01*
X294984714Y-55653214D01*
X294912142Y-55895119D01*
X294839571Y-56016071D01*
X294767000Y-56076548D01*
X294621857Y-56137024D01*
X294476714Y-56137024D01*
X294331571Y-56076548D01*
X294259000Y-56016071D01*
X294186428Y-55895119D01*
X294113857Y-55653214D01*
X294113857Y-55350833D01*
X294186428Y-55108929D01*
X294259000Y-54987976D01*
X294331571Y-54927500D01*
X294476714Y-54867024D01*
X295637857Y-56137024D02*
X295637857Y-54867024D01*
X296000714Y-54867024D01*
X296218429Y-54927500D01*
X296363571Y-55048452D01*
X296436143Y-55169405D01*
X296508714Y-55411310D01*
X296508714Y-55592738D01*
X296436143Y-55834643D01*
X296363571Y-55955595D01*
X296218429Y-56076548D01*
X296000714Y-56137024D01*
X295637857Y-56137024D01*
X297960143Y-56137024D02*
X297089286Y-56137024D01*
X297524714Y-56137024D02*
X297524714Y-54867024D01*
X297379571Y-55048452D01*
X297234429Y-55169405D01*
X297089286Y-55229881D01*
X235621285Y-68837024D02*
X235621285Y-67567024D01*
X236492142Y-68837024D02*
X235838999Y-68111310D01*
X236492142Y-67567024D02*
X235621285Y-68292738D01*
X237943571Y-68837024D02*
X237072714Y-68837024D01*
X237508142Y-68837024D02*
X237508142Y-67567024D01*
X237362999Y-67748452D01*
X237217857Y-67869405D01*
X237072714Y-67929881D01*
X238524143Y-68474167D02*
X239249857Y-68474167D01*
X238379000Y-68837024D02*
X238887000Y-67567024D01*
X239395000Y-68837024D01*
X240701286Y-68837024D02*
X239830429Y-68837024D01*
X240265857Y-68837024D02*
X240265857Y-67567024D01*
X240120714Y-67748452D01*
X239975572Y-67869405D01*
X239830429Y-67929881D01*
X254562428Y-68837024D02*
X254562428Y-67567024D01*
X255433285Y-68837024D02*
X254780142Y-68111310D01*
X255433285Y-67567024D02*
X254562428Y-68292738D01*
X256884714Y-68837024D02*
X256013857Y-68837024D01*
X256449285Y-68837024D02*
X256449285Y-67567024D01*
X256304142Y-67748452D01*
X256159000Y-67869405D01*
X256013857Y-67929881D01*
X258045857Y-68171786D02*
X258263571Y-68232262D01*
X258336143Y-68292738D01*
X258408714Y-68413690D01*
X258408714Y-68595119D01*
X258336143Y-68716071D01*
X258263571Y-68776548D01*
X258118429Y-68837024D01*
X257537857Y-68837024D01*
X257537857Y-67567024D01*
X258045857Y-67567024D01*
X258191000Y-67627500D01*
X258263571Y-67687976D01*
X258336143Y-67808929D01*
X258336143Y-67929881D01*
X258263571Y-68050833D01*
X258191000Y-68111310D01*
X258045857Y-68171786D01*
X257537857Y-68171786D01*
X259860143Y-68837024D02*
X258989286Y-68837024D01*
X259424714Y-68837024D02*
X259424714Y-67567024D01*
X259279571Y-67748452D01*
X259134429Y-67869405D01*
X258989286Y-67929881D01*
X273612428Y-68837024D02*
X273612428Y-67567024D01*
X274483285Y-68837024D02*
X273830142Y-68111310D01*
X274483285Y-67567024D02*
X273612428Y-68292738D01*
X275934714Y-68837024D02*
X275063857Y-68837024D01*
X275499285Y-68837024D02*
X275499285Y-67567024D01*
X275354142Y-67748452D01*
X275209000Y-67869405D01*
X275063857Y-67929881D01*
X277458714Y-68716071D02*
X277386143Y-68776548D01*
X277168429Y-68837024D01*
X277023286Y-68837024D01*
X276805571Y-68776548D01*
X276660429Y-68655595D01*
X276587857Y-68534643D01*
X276515286Y-68292738D01*
X276515286Y-68111310D01*
X276587857Y-67869405D01*
X276660429Y-67748452D01*
X276805571Y-67627500D01*
X277023286Y-67567024D01*
X277168429Y-67567024D01*
X277386143Y-67627500D01*
X277458714Y-67687976D01*
X278910143Y-68837024D02*
X278039286Y-68837024D01*
X278474714Y-68837024D02*
X278474714Y-67567024D01*
X278329571Y-67748452D01*
X278184429Y-67869405D01*
X278039286Y-67929881D01*
X297424928Y-68837024D02*
X297424928Y-67567024D01*
X298295785Y-68837024D02*
X297642642Y-68111310D01*
X298295785Y-67567024D02*
X297424928Y-68292738D01*
X299747214Y-68837024D02*
X298876357Y-68837024D01*
X299311785Y-68837024D02*
X299311785Y-67567024D01*
X299166642Y-67748452D01*
X299021500Y-67869405D01*
X298876357Y-67929881D01*
X300400357Y-68837024D02*
X300400357Y-67567024D01*
X300763214Y-67567024D01*
X300980929Y-67627500D01*
X301126071Y-67748452D01*
X301198643Y-67869405D01*
X301271214Y-68111310D01*
X301271214Y-68292738D01*
X301198643Y-68534643D01*
X301126071Y-68655595D01*
X300980929Y-68776548D01*
X300763214Y-68837024D01*
X300400357Y-68837024D01*
X302722643Y-68837024D02*
X301851786Y-68837024D01*
X302287214Y-68837024D02*
X302287214Y-67567024D01*
X302142071Y-67748452D01*
X301996929Y-67869405D01*
X301851786Y-67929881D01*
X240383785Y-87887024D02*
X240383785Y-86617024D01*
X241254642Y-87887024D02*
X240601499Y-87161310D01*
X241254642Y-86617024D02*
X240383785Y-87342738D01*
X241835214Y-86737976D02*
X241907785Y-86677500D01*
X242052928Y-86617024D01*
X242415785Y-86617024D01*
X242560928Y-86677500D01*
X242633499Y-86737976D01*
X242706071Y-86858929D01*
X242706071Y-86979881D01*
X242633499Y-87161310D01*
X241762642Y-87887024D01*
X242706071Y-87887024D01*
X243286643Y-87524167D02*
X244012357Y-87524167D01*
X243141500Y-87887024D02*
X243649500Y-86617024D01*
X244157500Y-87887024D01*
X245463786Y-87887024D02*
X244592929Y-87887024D01*
X245028357Y-87887024D02*
X245028357Y-86617024D01*
X244883214Y-86798452D01*
X244738072Y-86919405D01*
X244592929Y-86979881D01*
X259324928Y-87887024D02*
X259324928Y-86617024D01*
X260195785Y-87887024D02*
X259542642Y-87161310D01*
X260195785Y-86617024D02*
X259324928Y-87342738D01*
X260776357Y-86737976D02*
X260848928Y-86677500D01*
X260994071Y-86617024D01*
X261356928Y-86617024D01*
X261502071Y-86677500D01*
X261574642Y-86737976D01*
X261647214Y-86858929D01*
X261647214Y-86979881D01*
X261574642Y-87161310D01*
X260703785Y-87887024D01*
X261647214Y-87887024D01*
X262808357Y-87221786D02*
X263026071Y-87282262D01*
X263098643Y-87342738D01*
X263171214Y-87463690D01*
X263171214Y-87645119D01*
X263098643Y-87766071D01*
X263026071Y-87826548D01*
X262880929Y-87887024D01*
X262300357Y-87887024D01*
X262300357Y-86617024D01*
X262808357Y-86617024D01*
X262953500Y-86677500D01*
X263026071Y-86737976D01*
X263098643Y-86858929D01*
X263098643Y-86979881D01*
X263026071Y-87100833D01*
X262953500Y-87161310D01*
X262808357Y-87221786D01*
X262300357Y-87221786D01*
X264622643Y-87887024D02*
X263751786Y-87887024D01*
X264187214Y-87887024D02*
X264187214Y-86617024D01*
X264042071Y-86798452D01*
X263896929Y-86919405D01*
X263751786Y-86979881D01*
X94125143Y-49787024D02*
X94125143Y-48517024D01*
X94996000Y-49787024D02*
X94342857Y-49061310D01*
X94996000Y-48517024D02*
X94125143Y-49242738D01*
X95504000Y-48517024D02*
X96447429Y-48517024D01*
X95939429Y-49000833D01*
X96157143Y-49000833D01*
X96302286Y-49061310D01*
X96374857Y-49121786D01*
X96447429Y-49242738D01*
X96447429Y-49545119D01*
X96374857Y-49666071D01*
X96302286Y-49726548D01*
X96157143Y-49787024D01*
X95721715Y-49787024D01*
X95576572Y-49726548D01*
X95504000Y-49666071D01*
X249908785Y-106937024D02*
X249908785Y-105667024D01*
X250779642Y-106937024D02*
X250126499Y-106211310D01*
X250779642Y-105667024D02*
X249908785Y-106392738D01*
X251287642Y-105667024D02*
X252231071Y-105667024D01*
X251723071Y-106150833D01*
X251940785Y-106150833D01*
X252085928Y-106211310D01*
X252158499Y-106271786D01*
X252231071Y-106392738D01*
X252231071Y-106695119D01*
X252158499Y-106816071D01*
X252085928Y-106876548D01*
X251940785Y-106937024D01*
X251505357Y-106937024D01*
X251360214Y-106876548D01*
X251287642Y-106816071D01*
X252811643Y-106574167D02*
X253537357Y-106574167D01*
X252666500Y-106937024D02*
X253174500Y-105667024D01*
X253682500Y-106937024D01*
X254988786Y-106937024D02*
X254117929Y-106937024D01*
X254553357Y-106937024D02*
X254553357Y-105667024D01*
X254408214Y-105848452D01*
X254263072Y-105969405D01*
X254117929Y-106029881D01*
X113175143Y-49787024D02*
X113175143Y-48517024D01*
X114046000Y-49787024D02*
X113392857Y-49061310D01*
X114046000Y-48517024D02*
X113175143Y-49242738D01*
X115352286Y-48940357D02*
X115352286Y-49787024D01*
X114989429Y-48456548D02*
X114626572Y-49363690D01*
X115570000Y-49363690D01*
X132225143Y-49787024D02*
X132225143Y-48517024D01*
X133096000Y-49787024D02*
X132442857Y-49061310D01*
X133096000Y-48517024D02*
X132225143Y-49242738D01*
X134474857Y-48517024D02*
X133749143Y-48517024D01*
X133676572Y-49121786D01*
X133749143Y-49061310D01*
X133894286Y-49000833D01*
X134257143Y-49000833D01*
X134402286Y-49061310D01*
X134474857Y-49121786D01*
X134547429Y-49242738D01*
X134547429Y-49545119D01*
X134474857Y-49666071D01*
X134402286Y-49726548D01*
X134257143Y-49787024D01*
X133894286Y-49787024D01*
X133749143Y-49726548D01*
X133676572Y-49666071D01*
X151275143Y-49787024D02*
X151275143Y-48517024D01*
X152146000Y-49787024D02*
X151492857Y-49061310D01*
X152146000Y-48517024D02*
X151275143Y-49242738D01*
X153452286Y-48517024D02*
X153162000Y-48517024D01*
X153016857Y-48577500D01*
X152944286Y-48637976D01*
X152799143Y-48819405D01*
X152726572Y-49061310D01*
X152726572Y-49545119D01*
X152799143Y-49666071D01*
X152871715Y-49726548D01*
X153016857Y-49787024D01*
X153307143Y-49787024D01*
X153452286Y-49726548D01*
X153524857Y-49666071D01*
X153597429Y-49545119D01*
X153597429Y-49242738D01*
X153524857Y-49121786D01*
X153452286Y-49061310D01*
X153307143Y-49000833D01*
X153016857Y-49000833D01*
X152871715Y-49061310D01*
X152799143Y-49121786D01*
X152726572Y-49242738D01*
X189375143Y-49787024D02*
X189375143Y-48517024D01*
X190246000Y-49787024D02*
X189592857Y-49061310D01*
X190246000Y-48517024D02*
X189375143Y-49242738D01*
X191116857Y-49061310D02*
X190971715Y-49000833D01*
X190899143Y-48940357D01*
X190826572Y-48819405D01*
X190826572Y-48758929D01*
X190899143Y-48637976D01*
X190971715Y-48577500D01*
X191116857Y-48517024D01*
X191407143Y-48517024D01*
X191552286Y-48577500D01*
X191624857Y-48637976D01*
X191697429Y-48758929D01*
X191697429Y-48819405D01*
X191624857Y-48940357D01*
X191552286Y-49000833D01*
X191407143Y-49061310D01*
X191116857Y-49061310D01*
X190971715Y-49121786D01*
X190899143Y-49182262D01*
X190826572Y-49303214D01*
X190826572Y-49545119D01*
X190899143Y-49666071D01*
X190971715Y-49726548D01*
X191116857Y-49787024D01*
X191407143Y-49787024D01*
X191552286Y-49726548D01*
X191624857Y-49666071D01*
X191697429Y-49545119D01*
X191697429Y-49303214D01*
X191624857Y-49182262D01*
X191552286Y-49121786D01*
X191407143Y-49061310D01*
X208425143Y-49787024D02*
X208425143Y-48517024D01*
X209296000Y-49787024D02*
X208642857Y-49061310D01*
X209296000Y-48517024D02*
X208425143Y-49242738D01*
X210021715Y-49787024D02*
X210312000Y-49787024D01*
X210457143Y-49726548D01*
X210529715Y-49666071D01*
X210674857Y-49484643D01*
X210747429Y-49242738D01*
X210747429Y-48758929D01*
X210674857Y-48637976D01*
X210602286Y-48577500D01*
X210457143Y-48517024D01*
X210166857Y-48517024D01*
X210021715Y-48577500D01*
X209949143Y-48637976D01*
X209876572Y-48758929D01*
X209876572Y-49061310D01*
X209949143Y-49182262D01*
X210021715Y-49242738D01*
X210166857Y-49303214D01*
X210457143Y-49303214D01*
X210602286Y-49242738D01*
X210674857Y-49182262D01*
X210747429Y-49061310D01*
X64824428Y-68837024D02*
X64824428Y-67567024D01*
X65695285Y-68837024D02*
X65042142Y-68111310D01*
X65695285Y-67567024D02*
X64824428Y-68292738D01*
X67146714Y-68837024D02*
X66275857Y-68837024D01*
X66711285Y-68837024D02*
X66711285Y-67567024D01*
X66566142Y-67748452D01*
X66421000Y-67869405D01*
X66275857Y-67929881D01*
X68598143Y-68837024D02*
X67727286Y-68837024D01*
X68162714Y-68837024D02*
X68162714Y-67567024D01*
X68017571Y-67748452D01*
X67872429Y-67869405D01*
X67727286Y-67929881D01*
X83874428Y-68837024D02*
X83874428Y-67567024D01*
X84745285Y-68837024D02*
X84092142Y-68111310D01*
X84745285Y-67567024D02*
X83874428Y-68292738D01*
X86196714Y-68837024D02*
X85325857Y-68837024D01*
X85761285Y-68837024D02*
X85761285Y-67567024D01*
X85616142Y-67748452D01*
X85471000Y-67869405D01*
X85325857Y-67929881D01*
X86777286Y-67687976D02*
X86849857Y-67627500D01*
X86995000Y-67567024D01*
X87357857Y-67567024D01*
X87503000Y-67627500D01*
X87575571Y-67687976D01*
X87648143Y-67808929D01*
X87648143Y-67929881D01*
X87575571Y-68111310D01*
X86704714Y-68837024D01*
X87648143Y-68837024D01*
X102924428Y-68837024D02*
X102924428Y-67567024D01*
X103795285Y-68837024D02*
X103142142Y-68111310D01*
X103795285Y-67567024D02*
X102924428Y-68292738D01*
X105246714Y-68837024D02*
X104375857Y-68837024D01*
X104811285Y-68837024D02*
X104811285Y-67567024D01*
X104666142Y-67748452D01*
X104521000Y-67869405D01*
X104375857Y-67929881D01*
X105754714Y-67567024D02*
X106698143Y-67567024D01*
X106190143Y-68050833D01*
X106407857Y-68050833D01*
X106553000Y-68111310D01*
X106625571Y-68171786D01*
X106698143Y-68292738D01*
X106698143Y-68595119D01*
X106625571Y-68716071D01*
X106553000Y-68776548D01*
X106407857Y-68837024D01*
X105972429Y-68837024D01*
X105827286Y-68776548D01*
X105754714Y-68716071D01*
X121974428Y-68837024D02*
X121974428Y-67567024D01*
X122845285Y-68837024D02*
X122192142Y-68111310D01*
X122845285Y-67567024D02*
X121974428Y-68292738D01*
X124296714Y-68837024D02*
X123425857Y-68837024D01*
X123861285Y-68837024D02*
X123861285Y-67567024D01*
X123716142Y-67748452D01*
X123571000Y-67869405D01*
X123425857Y-67929881D01*
X125603000Y-67990357D02*
X125603000Y-68837024D01*
X125240143Y-67506548D02*
X124877286Y-68413690D01*
X125820714Y-68413690D01*
X141024428Y-68837024D02*
X141024428Y-67567024D01*
X141895285Y-68837024D02*
X141242142Y-68111310D01*
X141895285Y-67567024D02*
X141024428Y-68292738D01*
X143346714Y-68837024D02*
X142475857Y-68837024D01*
X142911285Y-68837024D02*
X142911285Y-67567024D01*
X142766142Y-67748452D01*
X142621000Y-67869405D01*
X142475857Y-67929881D01*
X144725571Y-67567024D02*
X143999857Y-67567024D01*
X143927286Y-68171786D01*
X143999857Y-68111310D01*
X144145000Y-68050833D01*
X144507857Y-68050833D01*
X144653000Y-68111310D01*
X144725571Y-68171786D01*
X144798143Y-68292738D01*
X144798143Y-68595119D01*
X144725571Y-68716071D01*
X144653000Y-68776548D01*
X144507857Y-68837024D01*
X144145000Y-68837024D01*
X143999857Y-68776548D01*
X143927286Y-68716071D01*
X160074428Y-68837024D02*
X160074428Y-67567024D01*
X160945285Y-68837024D02*
X160292142Y-68111310D01*
X160945285Y-67567024D02*
X160074428Y-68292738D01*
X162396714Y-68837024D02*
X161525857Y-68837024D01*
X161961285Y-68837024D02*
X161961285Y-67567024D01*
X161816142Y-67748452D01*
X161671000Y-67869405D01*
X161525857Y-67929881D01*
X163703000Y-67567024D02*
X163412714Y-67567024D01*
X163267571Y-67627500D01*
X163195000Y-67687976D01*
X163049857Y-67869405D01*
X162977286Y-68111310D01*
X162977286Y-68595119D01*
X163049857Y-68716071D01*
X163122429Y-68776548D01*
X163267571Y-68837024D01*
X163557857Y-68837024D01*
X163703000Y-68776548D01*
X163775571Y-68716071D01*
X163848143Y-68595119D01*
X163848143Y-68292738D01*
X163775571Y-68171786D01*
X163703000Y-68111310D01*
X163557857Y-68050833D01*
X163267571Y-68050833D01*
X163122429Y-68111310D01*
X163049857Y-68171786D01*
X162977286Y-68292738D01*
X179124428Y-68837024D02*
X179124428Y-67567024D01*
X179995285Y-68837024D02*
X179342142Y-68111310D01*
X179995285Y-67567024D02*
X179124428Y-68292738D01*
X181446714Y-68837024D02*
X180575857Y-68837024D01*
X181011285Y-68837024D02*
X181011285Y-67567024D01*
X180866142Y-67748452D01*
X180721000Y-67869405D01*
X180575857Y-67929881D01*
X181954714Y-67567024D02*
X182970714Y-67567024D01*
X182317571Y-68837024D01*
X198174428Y-68837024D02*
X198174428Y-67567024D01*
X199045285Y-68837024D02*
X198392142Y-68111310D01*
X199045285Y-67567024D02*
X198174428Y-68292738D01*
X200496714Y-68837024D02*
X199625857Y-68837024D01*
X200061285Y-68837024D02*
X200061285Y-67567024D01*
X199916142Y-67748452D01*
X199771000Y-67869405D01*
X199625857Y-67929881D01*
X201367571Y-68111310D02*
X201222429Y-68050833D01*
X201149857Y-67990357D01*
X201077286Y-67869405D01*
X201077286Y-67808929D01*
X201149857Y-67687976D01*
X201222429Y-67627500D01*
X201367571Y-67567024D01*
X201657857Y-67567024D01*
X201803000Y-67627500D01*
X201875571Y-67687976D01*
X201948143Y-67808929D01*
X201948143Y-67869405D01*
X201875571Y-67990357D01*
X201803000Y-68050833D01*
X201657857Y-68111310D01*
X201367571Y-68111310D01*
X201222429Y-68171786D01*
X201149857Y-68232262D01*
X201077286Y-68353214D01*
X201077286Y-68595119D01*
X201149857Y-68716071D01*
X201222429Y-68776548D01*
X201367571Y-68837024D01*
X201657857Y-68837024D01*
X201803000Y-68776548D01*
X201875571Y-68716071D01*
X201948143Y-68595119D01*
X201948143Y-68353214D01*
X201875571Y-68232262D01*
X201803000Y-68171786D01*
X201657857Y-68111310D01*
X217224428Y-68837024D02*
X217224428Y-67567024D01*
X218095285Y-68837024D02*
X217442142Y-68111310D01*
X218095285Y-67567024D02*
X217224428Y-68292738D01*
X219546714Y-68837024D02*
X218675857Y-68837024D01*
X219111285Y-68837024D02*
X219111285Y-67567024D01*
X218966142Y-67748452D01*
X218821000Y-67869405D01*
X218675857Y-67929881D01*
X220272429Y-68837024D02*
X220562714Y-68837024D01*
X220707857Y-68776548D01*
X220780429Y-68716071D01*
X220925571Y-68534643D01*
X220998143Y-68292738D01*
X220998143Y-67808929D01*
X220925571Y-67687976D01*
X220853000Y-67627500D01*
X220707857Y-67567024D01*
X220417571Y-67567024D01*
X220272429Y-67627500D01*
X220199857Y-67687976D01*
X220127286Y-67808929D01*
X220127286Y-68111310D01*
X220199857Y-68232262D01*
X220272429Y-68292738D01*
X220417571Y-68353214D01*
X220707857Y-68353214D01*
X220853000Y-68292738D01*
X220925571Y-68232262D01*
X220998143Y-68111310D01*
X43393178Y-87887024D02*
X43393178Y-86617024D01*
X44264035Y-87887024D02*
X43610892Y-87161310D01*
X44264035Y-86617024D02*
X43393178Y-87342738D01*
X44844607Y-86737976D02*
X44917178Y-86677500D01*
X45062321Y-86617024D01*
X45425178Y-86617024D01*
X45570321Y-86677500D01*
X45642892Y-86737976D01*
X45715464Y-86858929D01*
X45715464Y-86979881D01*
X45642892Y-87161310D01*
X44772035Y-87887024D01*
X45715464Y-87887024D01*
X46658893Y-86617024D02*
X46804036Y-86617024D01*
X46949179Y-86677500D01*
X47021750Y-86737976D01*
X47094321Y-86858929D01*
X47166893Y-87100833D01*
X47166893Y-87403214D01*
X47094321Y-87645119D01*
X47021750Y-87766071D01*
X46949179Y-87826548D01*
X46804036Y-87887024D01*
X46658893Y-87887024D01*
X46513750Y-87826548D01*
X46441179Y-87766071D01*
X46368607Y-87645119D01*
X46296036Y-87403214D01*
X46296036Y-87100833D01*
X46368607Y-86858929D01*
X46441179Y-86737976D01*
X46513750Y-86677500D01*
X46658893Y-86617024D01*
X69586928Y-87887024D02*
X69586928Y-86617024D01*
X70457785Y-87887024D02*
X69804642Y-87161310D01*
X70457785Y-86617024D02*
X69586928Y-87342738D01*
X71038357Y-86737976D02*
X71110928Y-86677500D01*
X71256071Y-86617024D01*
X71618928Y-86617024D01*
X71764071Y-86677500D01*
X71836642Y-86737976D01*
X71909214Y-86858929D01*
X71909214Y-86979881D01*
X71836642Y-87161310D01*
X70965785Y-87887024D01*
X71909214Y-87887024D01*
X73360643Y-87887024D02*
X72489786Y-87887024D01*
X72925214Y-87887024D02*
X72925214Y-86617024D01*
X72780071Y-86798452D01*
X72634929Y-86919405D01*
X72489786Y-86979881D01*
X88636928Y-87887024D02*
X88636928Y-86617024D01*
X89507785Y-87887024D02*
X88854642Y-87161310D01*
X89507785Y-86617024D02*
X88636928Y-87342738D01*
X90088357Y-86737976D02*
X90160928Y-86677500D01*
X90306071Y-86617024D01*
X90668928Y-86617024D01*
X90814071Y-86677500D01*
X90886642Y-86737976D01*
X90959214Y-86858929D01*
X90959214Y-86979881D01*
X90886642Y-87161310D01*
X90015785Y-87887024D01*
X90959214Y-87887024D01*
X91539786Y-86737976D02*
X91612357Y-86677500D01*
X91757500Y-86617024D01*
X92120357Y-86617024D01*
X92265500Y-86677500D01*
X92338071Y-86737976D01*
X92410643Y-86858929D01*
X92410643Y-86979881D01*
X92338071Y-87161310D01*
X91467214Y-87887024D01*
X92410643Y-87887024D01*
X107686928Y-87887024D02*
X107686928Y-86617024D01*
X108557785Y-87887024D02*
X107904642Y-87161310D01*
X108557785Y-86617024D02*
X107686928Y-87342738D01*
X109138357Y-86737976D02*
X109210928Y-86677500D01*
X109356071Y-86617024D01*
X109718928Y-86617024D01*
X109864071Y-86677500D01*
X109936642Y-86737976D01*
X110009214Y-86858929D01*
X110009214Y-86979881D01*
X109936642Y-87161310D01*
X109065785Y-87887024D01*
X110009214Y-87887024D01*
X110517214Y-86617024D02*
X111460643Y-86617024D01*
X110952643Y-87100833D01*
X111170357Y-87100833D01*
X111315500Y-87161310D01*
X111388071Y-87221786D01*
X111460643Y-87342738D01*
X111460643Y-87645119D01*
X111388071Y-87766071D01*
X111315500Y-87826548D01*
X111170357Y-87887024D01*
X110734929Y-87887024D01*
X110589786Y-87826548D01*
X110517214Y-87766071D01*
X126736928Y-87887024D02*
X126736928Y-86617024D01*
X127607785Y-87887024D02*
X126954642Y-87161310D01*
X127607785Y-86617024D02*
X126736928Y-87342738D01*
X128188357Y-86737976D02*
X128260928Y-86677500D01*
X128406071Y-86617024D01*
X128768928Y-86617024D01*
X128914071Y-86677500D01*
X128986642Y-86737976D01*
X129059214Y-86858929D01*
X129059214Y-86979881D01*
X128986642Y-87161310D01*
X128115785Y-87887024D01*
X129059214Y-87887024D01*
X130365500Y-87040357D02*
X130365500Y-87887024D01*
X130002643Y-86556548D02*
X129639786Y-87463690D01*
X130583214Y-87463690D01*
X145786928Y-87887024D02*
X145786928Y-86617024D01*
X146657785Y-87887024D02*
X146004642Y-87161310D01*
X146657785Y-86617024D02*
X145786928Y-87342738D01*
X147238357Y-86737976D02*
X147310928Y-86677500D01*
X147456071Y-86617024D01*
X147818928Y-86617024D01*
X147964071Y-86677500D01*
X148036642Y-86737976D01*
X148109214Y-86858929D01*
X148109214Y-86979881D01*
X148036642Y-87161310D01*
X147165785Y-87887024D01*
X148109214Y-87887024D01*
X149488071Y-86617024D02*
X148762357Y-86617024D01*
X148689786Y-87221786D01*
X148762357Y-87161310D01*
X148907500Y-87100833D01*
X149270357Y-87100833D01*
X149415500Y-87161310D01*
X149488071Y-87221786D01*
X149560643Y-87342738D01*
X149560643Y-87645119D01*
X149488071Y-87766071D01*
X149415500Y-87826548D01*
X149270357Y-87887024D01*
X148907500Y-87887024D01*
X148762357Y-87826548D01*
X148689786Y-87766071D01*
X164836928Y-87887024D02*
X164836928Y-86617024D01*
X165707785Y-87887024D02*
X165054642Y-87161310D01*
X165707785Y-86617024D02*
X164836928Y-87342738D01*
X166288357Y-86737976D02*
X166360928Y-86677500D01*
X166506071Y-86617024D01*
X166868928Y-86617024D01*
X167014071Y-86677500D01*
X167086642Y-86737976D01*
X167159214Y-86858929D01*
X167159214Y-86979881D01*
X167086642Y-87161310D01*
X166215785Y-87887024D01*
X167159214Y-87887024D01*
X168465500Y-86617024D02*
X168175214Y-86617024D01*
X168030071Y-86677500D01*
X167957500Y-86737976D01*
X167812357Y-86919405D01*
X167739786Y-87161310D01*
X167739786Y-87645119D01*
X167812357Y-87766071D01*
X167884929Y-87826548D01*
X168030071Y-87887024D01*
X168320357Y-87887024D01*
X168465500Y-87826548D01*
X168538071Y-87766071D01*
X168610643Y-87645119D01*
X168610643Y-87342738D01*
X168538071Y-87221786D01*
X168465500Y-87161310D01*
X168320357Y-87100833D01*
X168030071Y-87100833D01*
X167884929Y-87161310D01*
X167812357Y-87221786D01*
X167739786Y-87342738D01*
X183886928Y-87887024D02*
X183886928Y-86617024D01*
X184757785Y-87887024D02*
X184104642Y-87161310D01*
X184757785Y-86617024D02*
X183886928Y-87342738D01*
X185338357Y-86737976D02*
X185410928Y-86677500D01*
X185556071Y-86617024D01*
X185918928Y-86617024D01*
X186064071Y-86677500D01*
X186136642Y-86737976D01*
X186209214Y-86858929D01*
X186209214Y-86979881D01*
X186136642Y-87161310D01*
X185265785Y-87887024D01*
X186209214Y-87887024D01*
X186717214Y-86617024D02*
X187733214Y-86617024D01*
X187080071Y-87887024D01*
X202936928Y-87887024D02*
X202936928Y-86617024D01*
X203807785Y-87887024D02*
X203154642Y-87161310D01*
X203807785Y-86617024D02*
X202936928Y-87342738D01*
X204388357Y-86737976D02*
X204460928Y-86677500D01*
X204606071Y-86617024D01*
X204968928Y-86617024D01*
X205114071Y-86677500D01*
X205186642Y-86737976D01*
X205259214Y-86858929D01*
X205259214Y-86979881D01*
X205186642Y-87161310D01*
X204315785Y-87887024D01*
X205259214Y-87887024D01*
X206130071Y-87161310D02*
X205984929Y-87100833D01*
X205912357Y-87040357D01*
X205839786Y-86919405D01*
X205839786Y-86858929D01*
X205912357Y-86737976D01*
X205984929Y-86677500D01*
X206130071Y-86617024D01*
X206420357Y-86617024D01*
X206565500Y-86677500D01*
X206638071Y-86737976D01*
X206710643Y-86858929D01*
X206710643Y-86919405D01*
X206638071Y-87040357D01*
X206565500Y-87100833D01*
X206420357Y-87161310D01*
X206130071Y-87161310D01*
X205984929Y-87221786D01*
X205912357Y-87282262D01*
X205839786Y-87403214D01*
X205839786Y-87645119D01*
X205912357Y-87766071D01*
X205984929Y-87826548D01*
X206130071Y-87887024D01*
X206420357Y-87887024D01*
X206565500Y-87826548D01*
X206638071Y-87766071D01*
X206710643Y-87645119D01*
X206710643Y-87403214D01*
X206638071Y-87282262D01*
X206565500Y-87221786D01*
X206420357Y-87161310D01*
X221986928Y-87887024D02*
X221986928Y-86617024D01*
X222857785Y-87887024D02*
X222204642Y-87161310D01*
X222857785Y-86617024D02*
X221986928Y-87342738D01*
X223438357Y-86737976D02*
X223510928Y-86677500D01*
X223656071Y-86617024D01*
X224018928Y-86617024D01*
X224164071Y-86677500D01*
X224236642Y-86737976D01*
X224309214Y-86858929D01*
X224309214Y-86979881D01*
X224236642Y-87161310D01*
X223365785Y-87887024D01*
X224309214Y-87887024D01*
X225034929Y-87887024D02*
X225325214Y-87887024D01*
X225470357Y-87826548D01*
X225542929Y-87766071D01*
X225688071Y-87584643D01*
X225760643Y-87342738D01*
X225760643Y-86858929D01*
X225688071Y-86737976D01*
X225615500Y-86677500D01*
X225470357Y-86617024D01*
X225180071Y-86617024D01*
X225034929Y-86677500D01*
X224962357Y-86737976D01*
X224889786Y-86858929D01*
X224889786Y-87161310D01*
X224962357Y-87282262D01*
X225034929Y-87342738D01*
X225180071Y-87403214D01*
X225470357Y-87403214D01*
X225615500Y-87342738D01*
X225688071Y-87282262D01*
X225760643Y-87161310D01*
X98161928Y-106937024D02*
X98161928Y-105667024D01*
X99032785Y-106937024D02*
X98379642Y-106211310D01*
X99032785Y-105667024D02*
X98161928Y-106392738D01*
X99540785Y-105667024D02*
X100484214Y-105667024D01*
X99976214Y-106150833D01*
X100193928Y-106150833D01*
X100339071Y-106211310D01*
X100411642Y-106271786D01*
X100484214Y-106392738D01*
X100484214Y-106695119D01*
X100411642Y-106816071D01*
X100339071Y-106876548D01*
X100193928Y-106937024D01*
X99758500Y-106937024D01*
X99613357Y-106876548D01*
X99540785Y-106816071D01*
X101064786Y-105787976D02*
X101137357Y-105727500D01*
X101282500Y-105667024D01*
X101645357Y-105667024D01*
X101790500Y-105727500D01*
X101863071Y-105787976D01*
X101935643Y-105908929D01*
X101935643Y-106029881D01*
X101863071Y-106211310D01*
X100992214Y-106937024D01*
X101935643Y-106937024D01*
X136261928Y-106937024D02*
X136261928Y-105667024D01*
X137132785Y-106937024D02*
X136479642Y-106211310D01*
X137132785Y-105667024D02*
X136261928Y-106392738D01*
X137640785Y-105667024D02*
X138584214Y-105667024D01*
X138076214Y-106150833D01*
X138293928Y-106150833D01*
X138439071Y-106211310D01*
X138511642Y-106271786D01*
X138584214Y-106392738D01*
X138584214Y-106695119D01*
X138511642Y-106816071D01*
X138439071Y-106876548D01*
X138293928Y-106937024D01*
X137858500Y-106937024D01*
X137713357Y-106876548D01*
X137640785Y-106816071D01*
X139890500Y-106090357D02*
X139890500Y-106937024D01*
X139527643Y-105606548D02*
X139164786Y-106513690D01*
X140108214Y-106513690D01*
X155311928Y-106937024D02*
X155311928Y-105667024D01*
X156182785Y-106937024D02*
X155529642Y-106211310D01*
X156182785Y-105667024D02*
X155311928Y-106392738D01*
X156690785Y-105667024D02*
X157634214Y-105667024D01*
X157126214Y-106150833D01*
X157343928Y-106150833D01*
X157489071Y-106211310D01*
X157561642Y-106271786D01*
X157634214Y-106392738D01*
X157634214Y-106695119D01*
X157561642Y-106816071D01*
X157489071Y-106876548D01*
X157343928Y-106937024D01*
X156908500Y-106937024D01*
X156763357Y-106876548D01*
X156690785Y-106816071D01*
X159013071Y-105667024D02*
X158287357Y-105667024D01*
X158214786Y-106271786D01*
X158287357Y-106211310D01*
X158432500Y-106150833D01*
X158795357Y-106150833D01*
X158940500Y-106211310D01*
X159013071Y-106271786D01*
X159085643Y-106392738D01*
X159085643Y-106695119D01*
X159013071Y-106816071D01*
X158940500Y-106876548D01*
X158795357Y-106937024D01*
X158432500Y-106937024D01*
X158287357Y-106876548D01*
X158214786Y-106816071D01*
X174361928Y-106937024D02*
X174361928Y-105667024D01*
X175232785Y-106937024D02*
X174579642Y-106211310D01*
X175232785Y-105667024D02*
X174361928Y-106392738D01*
X175740785Y-105667024D02*
X176684214Y-105667024D01*
X176176214Y-106150833D01*
X176393928Y-106150833D01*
X176539071Y-106211310D01*
X176611642Y-106271786D01*
X176684214Y-106392738D01*
X176684214Y-106695119D01*
X176611642Y-106816071D01*
X176539071Y-106876548D01*
X176393928Y-106937024D01*
X175958500Y-106937024D01*
X175813357Y-106876548D01*
X175740785Y-106816071D01*
X177990500Y-105667024D02*
X177700214Y-105667024D01*
X177555071Y-105727500D01*
X177482500Y-105787976D01*
X177337357Y-105969405D01*
X177264786Y-106211310D01*
X177264786Y-106695119D01*
X177337357Y-106816071D01*
X177409929Y-106876548D01*
X177555071Y-106937024D01*
X177845357Y-106937024D01*
X177990500Y-106876548D01*
X178063071Y-106816071D01*
X178135643Y-106695119D01*
X178135643Y-106392738D01*
X178063071Y-106271786D01*
X177990500Y-106211310D01*
X177845357Y-106150833D01*
X177555071Y-106150833D01*
X177409929Y-106211310D01*
X177337357Y-106271786D01*
X177264786Y-106392738D01*
X193411928Y-106937024D02*
X193411928Y-105667024D01*
X194282785Y-106937024D02*
X193629642Y-106211310D01*
X194282785Y-105667024D02*
X193411928Y-106392738D01*
X194790785Y-105667024D02*
X195734214Y-105667024D01*
X195226214Y-106150833D01*
X195443928Y-106150833D01*
X195589071Y-106211310D01*
X195661642Y-106271786D01*
X195734214Y-106392738D01*
X195734214Y-106695119D01*
X195661642Y-106816071D01*
X195589071Y-106876548D01*
X195443928Y-106937024D01*
X195008500Y-106937024D01*
X194863357Y-106876548D01*
X194790785Y-106816071D01*
X196242214Y-105667024D02*
X197258214Y-105667024D01*
X196605071Y-106937024D01*
X212461928Y-106937024D02*
X212461928Y-105667024D01*
X213332785Y-106937024D02*
X212679642Y-106211310D01*
X213332785Y-105667024D02*
X212461928Y-106392738D01*
X213840785Y-105667024D02*
X214784214Y-105667024D01*
X214276214Y-106150833D01*
X214493928Y-106150833D01*
X214639071Y-106211310D01*
X214711642Y-106271786D01*
X214784214Y-106392738D01*
X214784214Y-106695119D01*
X214711642Y-106816071D01*
X214639071Y-106876548D01*
X214493928Y-106937024D01*
X214058500Y-106937024D01*
X213913357Y-106876548D01*
X213840785Y-106816071D01*
X215655071Y-106211310D02*
X215509929Y-106150833D01*
X215437357Y-106090357D01*
X215364786Y-105969405D01*
X215364786Y-105908929D01*
X215437357Y-105787976D01*
X215509929Y-105727500D01*
X215655071Y-105667024D01*
X215945357Y-105667024D01*
X216090500Y-105727500D01*
X216163071Y-105787976D01*
X216235643Y-105908929D01*
X216235643Y-105969405D01*
X216163071Y-106090357D01*
X216090500Y-106150833D01*
X215945357Y-106211310D01*
X215655071Y-106211310D01*
X215509929Y-106271786D01*
X215437357Y-106332262D01*
X215364786Y-106453214D01*
X215364786Y-106695119D01*
X215437357Y-106816071D01*
X215509929Y-106876548D01*
X215655071Y-106937024D01*
X215945357Y-106937024D01*
X216090500Y-106876548D01*
X216163071Y-106816071D01*
X216235643Y-106695119D01*
X216235643Y-106453214D01*
X216163071Y-106332262D01*
X216090500Y-106271786D01*
X215945357Y-106211310D01*
X231511928Y-106937024D02*
X231511928Y-105667024D01*
X232382785Y-106937024D02*
X231729642Y-106211310D01*
X232382785Y-105667024D02*
X231511928Y-106392738D01*
X232890785Y-105667024D02*
X233834214Y-105667024D01*
X233326214Y-106150833D01*
X233543928Y-106150833D01*
X233689071Y-106211310D01*
X233761642Y-106271786D01*
X233834214Y-106392738D01*
X233834214Y-106695119D01*
X233761642Y-106816071D01*
X233689071Y-106876548D01*
X233543928Y-106937024D01*
X233108500Y-106937024D01*
X232963357Y-106876548D01*
X232890785Y-106816071D01*
X234559929Y-106937024D02*
X234850214Y-106937024D01*
X234995357Y-106876548D01*
X235067929Y-106816071D01*
X235213071Y-106634643D01*
X235285643Y-106392738D01*
X235285643Y-105908929D01*
X235213071Y-105787976D01*
X235140500Y-105727500D01*
X234995357Y-105667024D01*
X234705071Y-105667024D01*
X234559929Y-105727500D01*
X234487357Y-105787976D01*
X234414786Y-105908929D01*
X234414786Y-106211310D01*
X234487357Y-106332262D01*
X234559929Y-106392738D01*
X234705071Y-106453214D01*
X234995357Y-106453214D01*
X235140500Y-106392738D01*
X235213071Y-106332262D01*
X235285643Y-106211310D01*
X38630678Y-125987024D02*
X38630678Y-124717024D01*
X39501535Y-125987024D02*
X38848392Y-125261310D01*
X39501535Y-124717024D02*
X38630678Y-125442738D01*
X40807821Y-125140357D02*
X40807821Y-125987024D01*
X40444964Y-124656548D02*
X40082107Y-125563690D01*
X41025535Y-125563690D01*
X41896393Y-124717024D02*
X42041536Y-124717024D01*
X42186679Y-124777500D01*
X42259250Y-124837976D01*
X42331821Y-124958929D01*
X42404393Y-125200833D01*
X42404393Y-125503214D01*
X42331821Y-125745119D01*
X42259250Y-125866071D01*
X42186679Y-125926548D01*
X42041536Y-125987024D01*
X41896393Y-125987024D01*
X41751250Y-125926548D01*
X41678679Y-125866071D01*
X41606107Y-125745119D01*
X41533536Y-125503214D01*
X41533536Y-125200833D01*
X41606107Y-124958929D01*
X41678679Y-124837976D01*
X41751250Y-124777500D01*
X41896393Y-124717024D01*
X62443178Y-125987024D02*
X62443178Y-124717024D01*
X63314035Y-125987024D02*
X62660892Y-125261310D01*
X63314035Y-124717024D02*
X62443178Y-125442738D01*
X64620321Y-125140357D02*
X64620321Y-125987024D01*
X64257464Y-124656548D02*
X63894607Y-125563690D01*
X64838035Y-125563690D01*
X66216893Y-125987024D02*
X65346036Y-125987024D01*
X65781464Y-125987024D02*
X65781464Y-124717024D01*
X65636321Y-124898452D01*
X65491179Y-125019405D01*
X65346036Y-125079881D01*
D15*
X53435417Y-68189881D02*
X53102083Y-67713690D01*
X52863988Y-68189881D02*
X52863988Y-67189881D01*
X53244941Y-67189881D01*
X53340179Y-67237500D01*
X53387798Y-67285119D01*
X53435417Y-67380357D01*
X53435417Y-67523214D01*
X53387798Y-67618452D01*
X53340179Y-67666071D01*
X53244941Y-67713690D01*
X52863988Y-67713690D01*
X53863988Y-67666071D02*
X54197322Y-67666071D01*
X54340179Y-68189881D02*
X53863988Y-68189881D01*
X53863988Y-67189881D01*
X54340179Y-67189881D01*
X55102084Y-67666071D02*
X54768750Y-67666071D01*
X54768750Y-68189881D02*
X54768750Y-67189881D01*
X55244941Y-67189881D01*
X55768750Y-67189881D02*
X55768750Y-67427976D01*
X55530655Y-67332738D02*
X55768750Y-67427976D01*
X56006846Y-67332738D01*
X55625893Y-67618452D02*
X55768750Y-67427976D01*
X55911608Y-67618452D01*
X56530655Y-67189881D02*
X56530655Y-67427976D01*
X56292560Y-67332738D02*
X56530655Y-67427976D01*
X56768751Y-67332738D01*
X56387798Y-67618452D02*
X56530655Y-67427976D01*
X56673513Y-67618452D01*
X155829167Y-87239881D02*
X155495833Y-86763690D01*
X155257738Y-87239881D02*
X155257738Y-86239881D01*
X155638691Y-86239881D01*
X155733929Y-86287500D01*
X155781548Y-86335119D01*
X155829167Y-86430357D01*
X155829167Y-86573214D01*
X155781548Y-86668452D01*
X155733929Y-86716071D01*
X155638691Y-86763690D01*
X155257738Y-86763690D01*
X156257738Y-86716071D02*
X156591072Y-86716071D01*
X156733929Y-87239881D02*
X156257738Y-87239881D01*
X156257738Y-86239881D01*
X156733929Y-86239881D01*
X157495834Y-86716071D02*
X157162500Y-86716071D01*
X157162500Y-87239881D02*
X157162500Y-86239881D01*
X157638691Y-86239881D01*
X158162500Y-86239881D02*
X158162500Y-86477976D01*
X157924405Y-86382738D02*
X158162500Y-86477976D01*
X158400596Y-86382738D01*
X158019643Y-86668452D02*
X158162500Y-86477976D01*
X158305358Y-86668452D01*
X158924405Y-86239881D02*
X158924405Y-86477976D01*
X158686310Y-86382738D02*
X158924405Y-86477976D01*
X159162501Y-86382738D01*
X158781548Y-86668452D02*
X158924405Y-86477976D01*
X159067263Y-86668452D01*
X288289167Y-68189881D02*
X287955833Y-67713690D01*
X287717738Y-68189881D02*
X287717738Y-67189881D01*
X288098691Y-67189881D01*
X288193929Y-67237500D01*
X288241548Y-67285119D01*
X288289167Y-67380357D01*
X288289167Y-67523214D01*
X288241548Y-67618452D01*
X288193929Y-67666071D01*
X288098691Y-67713690D01*
X287717738Y-67713690D01*
X288717738Y-67666071D02*
X289051072Y-67666071D01*
X289193929Y-68189881D02*
X288717738Y-68189881D01*
X288717738Y-67189881D01*
X289193929Y-67189881D01*
X289955834Y-67666071D02*
X289622500Y-67666071D01*
X289622500Y-68189881D02*
X289622500Y-67189881D01*
X290098691Y-67189881D01*
X290622500Y-67189881D02*
X290622500Y-67427976D01*
X290384405Y-67332738D02*
X290622500Y-67427976D01*
X290860596Y-67332738D01*
X290479643Y-67618452D02*
X290622500Y-67427976D01*
X290765358Y-67618452D01*
X291384405Y-67189881D02*
X291384405Y-67427976D01*
X291146310Y-67332738D02*
X291384405Y-67427976D01*
X291622501Y-67332738D01*
X291241548Y-67618452D02*
X291384405Y-67427976D01*
X291527263Y-67618452D01*
X217741667Y-125339881D02*
X217408333Y-124863690D01*
X217170238Y-125339881D02*
X217170238Y-124339881D01*
X217551191Y-124339881D01*
X217646429Y-124387500D01*
X217694048Y-124435119D01*
X217741667Y-124530357D01*
X217741667Y-124673214D01*
X217694048Y-124768452D01*
X217646429Y-124816071D01*
X217551191Y-124863690D01*
X217170238Y-124863690D01*
X218170238Y-124816071D02*
X218503572Y-124816071D01*
X218646429Y-125339881D02*
X218170238Y-125339881D01*
X218170238Y-124339881D01*
X218646429Y-124339881D01*
X219408334Y-124816071D02*
X219075000Y-124816071D01*
X219075000Y-125339881D02*
X219075000Y-124339881D01*
X219551191Y-124339881D01*
X220075000Y-124339881D02*
X220075000Y-124577976D01*
X219836905Y-124482738D02*
X220075000Y-124577976D01*
X220313096Y-124482738D01*
X219932143Y-124768452D02*
X220075000Y-124577976D01*
X220217858Y-124768452D01*
X220836905Y-124339881D02*
X220836905Y-124577976D01*
X220598810Y-124482738D02*
X220836905Y-124577976D01*
X221075001Y-124482738D01*
X220694048Y-124768452D02*
X220836905Y-124577976D01*
X220979763Y-124768452D01*
D14*
X285518678Y-106937024D02*
X285518678Y-105667024D01*
X286389535Y-106937024D02*
X285736392Y-106211310D01*
X286389535Y-105667024D02*
X285518678Y-106392738D01*
X286897535Y-105667024D02*
X287840964Y-105667024D01*
X287332964Y-106150833D01*
X287550678Y-106150833D01*
X287695821Y-106211310D01*
X287768392Y-106271786D01*
X287840964Y-106392738D01*
X287840964Y-106695119D01*
X287768392Y-106816071D01*
X287695821Y-106876548D01*
X287550678Y-106937024D01*
X287115250Y-106937024D01*
X286970107Y-106876548D01*
X286897535Y-106816071D01*
X289002107Y-106271786D02*
X289219821Y-106332262D01*
X289292393Y-106392738D01*
X289364964Y-106513690D01*
X289364964Y-106695119D01*
X289292393Y-106816071D01*
X289219821Y-106876548D01*
X289074679Y-106937024D01*
X288494107Y-106937024D01*
X288494107Y-105667024D01*
X289002107Y-105667024D01*
X289147250Y-105727500D01*
X289219821Y-105787976D01*
X289292393Y-105908929D01*
X289292393Y-106029881D01*
X289219821Y-106150833D01*
X289147250Y-106211310D01*
X289002107Y-106271786D01*
X288494107Y-106271786D01*
X290816393Y-106937024D02*
X289945536Y-106937024D01*
X290380964Y-106937024D02*
X290380964Y-105667024D01*
X290235821Y-105848452D01*
X290090679Y-105969405D01*
X289945536Y-106029881D01*
X276102535Y-125987024D02*
X276102535Y-124717024D01*
X276973392Y-125987024D02*
X276320249Y-125261310D01*
X276973392Y-124717024D02*
X276102535Y-125442738D01*
X278279678Y-125140357D02*
X278279678Y-125987024D01*
X277916821Y-124656548D02*
X277553964Y-125563690D01*
X278497392Y-125563690D01*
X279005393Y-125624167D02*
X279731107Y-125624167D01*
X278860250Y-125987024D02*
X279368250Y-124717024D01*
X279876250Y-125987024D01*
X281182536Y-125987024D02*
X280311679Y-125987024D01*
X280747107Y-125987024D02*
X280747107Y-124717024D01*
X280601964Y-124898452D01*
X280456822Y-125019405D01*
X280311679Y-125079881D01*
X299806178Y-125987024D02*
X299806178Y-124717024D01*
X300677035Y-125987024D02*
X300023892Y-125261310D01*
X300677035Y-124717024D02*
X299806178Y-125442738D01*
X301983321Y-125140357D02*
X301983321Y-125987024D01*
X301620464Y-124656548D02*
X301257607Y-125563690D01*
X302201035Y-125563690D01*
X303289607Y-125321786D02*
X303507321Y-125382262D01*
X303579893Y-125442738D01*
X303652464Y-125563690D01*
X303652464Y-125745119D01*
X303579893Y-125866071D01*
X303507321Y-125926548D01*
X303362179Y-125987024D01*
X302781607Y-125987024D01*
X302781607Y-124717024D01*
X303289607Y-124717024D01*
X303434750Y-124777500D01*
X303507321Y-124837976D01*
X303579893Y-124958929D01*
X303579893Y-125079881D01*
X303507321Y-125200833D01*
X303434750Y-125261310D01*
X303289607Y-125321786D01*
X302781607Y-125321786D01*
X305103893Y-125987024D02*
X304233036Y-125987024D01*
X304668464Y-125987024D02*
X304668464Y-124717024D01*
X304523321Y-124898452D01*
X304378179Y-125019405D01*
X304233036Y-125079881D01*
X48155678Y-106937024D02*
X48155678Y-105667024D01*
X49026535Y-106937024D02*
X48373392Y-106211310D01*
X49026535Y-105667024D02*
X48155678Y-106392738D01*
X49534535Y-105667024D02*
X50477964Y-105667024D01*
X49969964Y-106150833D01*
X50187678Y-106150833D01*
X50332821Y-106211310D01*
X50405392Y-106271786D01*
X50477964Y-106392738D01*
X50477964Y-106695119D01*
X50405392Y-106816071D01*
X50332821Y-106876548D01*
X50187678Y-106937024D01*
X49752250Y-106937024D01*
X49607107Y-106876548D01*
X49534535Y-106816071D01*
X51421393Y-105667024D02*
X51566536Y-105667024D01*
X51711679Y-105727500D01*
X51784250Y-105787976D01*
X51856821Y-105908929D01*
X51929393Y-106150833D01*
X51929393Y-106453214D01*
X51856821Y-106695119D01*
X51784250Y-106816071D01*
X51711679Y-106876548D01*
X51566536Y-106937024D01*
X51421393Y-106937024D01*
X51276250Y-106876548D01*
X51203679Y-106816071D01*
X51131107Y-106695119D01*
X51058536Y-106453214D01*
X51058536Y-106150833D01*
X51131107Y-105908929D01*
X51203679Y-105787976D01*
X51276250Y-105727500D01*
X51421393Y-105667024D01*
X229130678Y-125987024D02*
X229130678Y-124717024D01*
X230001535Y-125987024D02*
X229348392Y-125261310D01*
X230001535Y-124717024D02*
X229130678Y-125442738D01*
X231307821Y-125140357D02*
X231307821Y-125987024D01*
X230944964Y-124656548D02*
X230582107Y-125563690D01*
X231525535Y-125563690D01*
X232323821Y-125261310D02*
X232178679Y-125200833D01*
X232106107Y-125140357D01*
X232033536Y-125019405D01*
X232033536Y-124958929D01*
X232106107Y-124837976D01*
X232178679Y-124777500D01*
X232323821Y-124717024D01*
X232614107Y-124717024D01*
X232759250Y-124777500D01*
X232831821Y-124837976D01*
X232904393Y-124958929D01*
X232904393Y-125019405D01*
X232831821Y-125140357D01*
X232759250Y-125200833D01*
X232614107Y-125261310D01*
X232323821Y-125261310D01*
X232178679Y-125321786D01*
X232106107Y-125382262D01*
X232033536Y-125503214D01*
X232033536Y-125745119D01*
X232106107Y-125866071D01*
X232178679Y-125926548D01*
X232323821Y-125987024D01*
X232614107Y-125987024D01*
X232759250Y-125926548D01*
X232831821Y-125866071D01*
X232904393Y-125745119D01*
X232904393Y-125503214D01*
X232831821Y-125382262D01*
X232759250Y-125321786D01*
X232614107Y-125261310D01*
X252943178Y-125987024D02*
X252943178Y-124717024D01*
X253814035Y-125987024D02*
X253160892Y-125261310D01*
X253814035Y-124717024D02*
X252943178Y-125442738D01*
X255120321Y-125140357D02*
X255120321Y-125987024D01*
X254757464Y-124656548D02*
X254394607Y-125563690D01*
X255338035Y-125563690D01*
X255991179Y-125987024D02*
X256281464Y-125987024D01*
X256426607Y-125926548D01*
X256499179Y-125866071D01*
X256644321Y-125684643D01*
X256716893Y-125442738D01*
X256716893Y-124958929D01*
X256644321Y-124837976D01*
X256571750Y-124777500D01*
X256426607Y-124717024D01*
X256136321Y-124717024D01*
X255991179Y-124777500D01*
X255918607Y-124837976D01*
X255846036Y-124958929D01*
X255846036Y-125261310D01*
X255918607Y-125382262D01*
X255991179Y-125442738D01*
X256136321Y-125503214D01*
X256426607Y-125503214D01*
X256571750Y-125442738D01*
X256644321Y-125382262D01*
X256716893Y-125261310D01*
D15*
X199336905Y-54184881D02*
X199336905Y-53184881D01*
X199717858Y-53184881D01*
X199813096Y-53232500D01*
X199860715Y-53280119D01*
X199908334Y-53375357D01*
X199908334Y-53518214D01*
X199860715Y-53613452D01*
X199813096Y-53661071D01*
X199717858Y-53708690D01*
X199336905Y-53708690D01*
X200289286Y-53280119D02*
X200336905Y-53232500D01*
X200432143Y-53184881D01*
X200670239Y-53184881D01*
X200765477Y-53232500D01*
X200813096Y-53280119D01*
X200860715Y-53375357D01*
X200860715Y-53470595D01*
X200813096Y-53613452D01*
X200241667Y-54184881D01*
X200860715Y-54184881D01*
M02*
