M48
INCH,TZ
T1C0.016
T2C0.035
T3C0.039
T4C0.059
T5C0.106
%
G90
G05
T1
X20350Y-22975
X21750Y-33375
X40050Y-40375
X44150Y-46375
X44450Y-51875
X44550Y-47175
X46350Y-47501
X47650Y-46201
X48550Y-52575
X48850Y-51875
X49150Y-52475
X49150Y-52975
X50450Y-49575
X51150Y-50075
X52550Y-50875
X52550Y-51475
X52650Y-53375
X53250Y-49975
X53550Y-51475
X58250Y-47575
X67550Y-47066
T2
X13125Y-32344
X13125Y-35344
X13594Y-24375
X16594Y-24375
X18150Y-31775
X19688Y-49219
X19688Y-52219
X21094Y-24375
X21150Y-31775
X21563Y-49219
X21563Y-52219
X24094Y-24375
X25750Y-31875
X26250Y-19274
X26250Y-22274
X27000Y-39375
X27188Y-41719
X27188Y-44719
X28594Y-41719
X28594Y-44719
X28750Y-31875
X30000Y-26719
X30000Y-29719
X30000Y-39375
X30000Y-49163
X30000Y-52163
X31875Y-34163
X31875Y-37163
X33750Y-19274
X33750Y-22274
X35625Y-41719
X35625Y-44719
X37500Y-26719
X37500Y-29719
X39375Y-34163
X39375Y-37163
X41250Y-19274
X41250Y-22274
X43125Y-41719
X43125Y-44719
X45000Y-26719
X45000Y-29719
X46875Y-34163
X46875Y-37163
X48750Y-19274
X48750Y-22274
X50625Y-41719
X50625Y-44719
X52500Y-26719
X52500Y-29719
X54375Y-34163
X54375Y-37163
X56250Y-19274
X56250Y-22274
X58125Y-41719
X58125Y-44719
X60000Y-26719
X60000Y-29719
X63750Y-19274
X63750Y-22274
X64031Y-39375
X65625Y-41719
X65625Y-44719
X66750Y-49275
X66750Y-52275
X67031Y-39375
X67500Y-26663
X67500Y-29663
X69375Y-34219
X69375Y-37219
X71250Y-19274
X71250Y-22274
X73125Y-41719
X73125Y-44719
X75000Y-26663
X75000Y-29663
X76875Y-34219
X76875Y-37219
X78750Y-19274
X78750Y-22274
X80625Y-41719
X80625Y-44719
X82500Y-26663
X82500Y-29663
X84375Y-34219
X84375Y-37219
X86250Y-19274
X86250Y-22274
X88125Y-41719
X88125Y-44719
X90000Y-26663
X90000Y-29663
X91875Y-34219
X91875Y-37219
X93750Y-19274
X93750Y-22274
X94650Y-49275
X94650Y-52275
X95625Y-41719
X95625Y-44719
X96650Y-49275
X96650Y-52275
X97500Y-26663
X97500Y-29663
X99375Y-34163
X99375Y-37163
X101250Y-19274
X101250Y-22274
X105000Y-26663
X105000Y-29663
X105000Y-49275
X105000Y-52275
X105469Y-41719
X105469Y-44719
X107344Y-34163
X107344Y-37163
X108750Y-19219
X108750Y-22219
X114375Y-49219
X114375Y-52219
X121875Y-26663
X121875Y-29663
T3
X70550Y-50275
X70550Y-51275
T4
X14000Y-22625
X14938Y-52625
X15875Y-30125
X16500Y-21625
X16813Y-37625
X17438Y-51625
X18375Y-29125
X18688Y-45125
X19313Y-36625
X21188Y-44125
X21500Y-22625
X24000Y-21625
X24313Y-52625
X25250Y-30125
X26813Y-51625
X27125Y-37625
X27750Y-29125
X29000Y-22625
X29625Y-36625
X30875Y-45125
X31500Y-21625
X32750Y-30125
X33375Y-44125
X33688Y-52625
X34625Y-37625
X35250Y-29125
X36188Y-51625
X36500Y-22625
X37125Y-36625
X38375Y-45125
X39000Y-21625
X40250Y-30125
X40875Y-44125
X42125Y-37625
X42750Y-29125
X44000Y-22625
X44625Y-36625
X45875Y-45125
X46500Y-21625
X47750Y-30125
X48375Y-44125
X49625Y-37625
X50250Y-29125
X51500Y-22625
X52125Y-36625
X53375Y-45125
X54000Y-21625
X55250Y-30125
X55875Y-44125
X57125Y-37625
X57750Y-29125
X59000Y-22625
X59625Y-36625
X60875Y-45125
X61500Y-21625
X61812Y-52688
X62750Y-30125
X63375Y-44125
X64313Y-51688
X64625Y-37625
X65250Y-29125
X66500Y-22625
X67125Y-36625
X68375Y-45125
X69000Y-21625
X70250Y-30125
X70875Y-44125
X72125Y-37625
X72750Y-29125
X74000Y-22625
X74625Y-36625
X75875Y-45125
X76500Y-21625
X77750Y-30125
X78375Y-44125
X79625Y-37625
X80250Y-29125
X81500Y-22625
X82125Y-36625
X83375Y-45125
X84000Y-21625
X85250Y-30125
X85875Y-44125
X87125Y-37625
X87750Y-29125
X89000Y-22625
X89625Y-36625
X89938Y-52625
X90875Y-45125
X91500Y-21625
X92438Y-51625
X92750Y-30125
X93375Y-44125
X94625Y-37625
X95250Y-29125
X96500Y-22625
X97125Y-36625
X98375Y-45125
X99000Y-21625
X99313Y-52625
X100250Y-30125
X100875Y-44125
X101813Y-51625
X102125Y-37625
X102750Y-29125
X104000Y-22625
X104625Y-36625
X106500Y-21625
X107750Y-30125
X108688Y-52625
X110250Y-29125
X111188Y-51625
X112438Y-45125
X114313Y-37625
X114750Y-19625
X114938Y-44125
X116813Y-36625
X117125Y-30125
X117250Y-18625
X118063Y-52625
X119625Y-29125
X120563Y-51625
T5
X21563Y-28125
T5
X9813Y-39375G85X12687Y-39375
G05
X61383Y-35625G85X62367Y-35625
G05
X85758Y-50625G85X86742Y-50625
G05
X113532Y-28125G85X114517Y-28125
G05
X122313Y-39375G85X125187Y-39375
G05
T0
M30
