G04 #@! TF.FileFunction,Legend,Bot*
%FSLAX46Y46*%
G04 Gerber Fmt 4.6, Leading zero omitted, Abs format (unit mm)*
G04 Created by KiCad (PCBNEW 4.0.5+dfsg1-4) date Wed May  9 21:18:07 2018*
%MOMM*%
%LPD*%
G01*
G04 APERTURE LIST*
%ADD10C,0.100000*%
%ADD11C,0.300000*%
%ADD12C,0.800000*%
%ADD13C,0.150000*%
%ADD14C,0.120000*%
G04 APERTURE END LIST*
D10*
D11*
X175132144Y-99641071D02*
X175132144Y-98141071D01*
X174489287Y-99641071D02*
X174489287Y-98855357D01*
X174560716Y-98712500D01*
X174703573Y-98641071D01*
X174917858Y-98641071D01*
X175060716Y-98712500D01*
X175132144Y-98783929D01*
X173989287Y-98641071D02*
X173417858Y-98641071D01*
X173775001Y-98141071D02*
X173775001Y-99426786D01*
X173703573Y-99569643D01*
X173560715Y-99641071D01*
X173417858Y-99641071D01*
X173132144Y-98641071D02*
X172560715Y-98641071D01*
X172917858Y-98141071D02*
X172917858Y-99426786D01*
X172846430Y-99569643D01*
X172703572Y-99641071D01*
X172560715Y-99641071D01*
X172060715Y-98641071D02*
X172060715Y-100141071D01*
X172060715Y-98712500D02*
X171917858Y-98641071D01*
X171632144Y-98641071D01*
X171489287Y-98712500D01*
X171417858Y-98783929D01*
X171346429Y-98926786D01*
X171346429Y-99355357D01*
X171417858Y-99498214D01*
X171489287Y-99569643D01*
X171632144Y-99641071D01*
X171917858Y-99641071D01*
X172060715Y-99569643D01*
X170703572Y-99498214D02*
X170632144Y-99569643D01*
X170703572Y-99641071D01*
X170775001Y-99569643D01*
X170703572Y-99498214D01*
X170703572Y-99641071D01*
X170703572Y-98712500D02*
X170632144Y-98783929D01*
X170703572Y-98855357D01*
X170775001Y-98783929D01*
X170703572Y-98712500D01*
X170703572Y-98855357D01*
X168917858Y-98069643D02*
X170203572Y-99998214D01*
X167346429Y-98069643D02*
X168632143Y-99998214D01*
X166203571Y-98641071D02*
X166203571Y-99855357D01*
X166275000Y-99998214D01*
X166346428Y-100069643D01*
X166489285Y-100141071D01*
X166703571Y-100141071D01*
X166846428Y-100069643D01*
X166203571Y-99569643D02*
X166346428Y-99641071D01*
X166632142Y-99641071D01*
X166775000Y-99569643D01*
X166846428Y-99498214D01*
X166917857Y-99355357D01*
X166917857Y-98926786D01*
X166846428Y-98783929D01*
X166775000Y-98712500D01*
X166632142Y-98641071D01*
X166346428Y-98641071D01*
X166203571Y-98712500D01*
X165489285Y-99641071D02*
X165489285Y-98641071D01*
X165489285Y-98141071D02*
X165560714Y-98212500D01*
X165489285Y-98283929D01*
X165417857Y-98212500D01*
X165489285Y-98141071D01*
X165489285Y-98283929D01*
X164989285Y-98641071D02*
X164417856Y-98641071D01*
X164774999Y-98141071D02*
X164774999Y-99426786D01*
X164703571Y-99569643D01*
X164560713Y-99641071D01*
X164417856Y-99641071D01*
X163917856Y-99641071D02*
X163917856Y-98141071D01*
X163274999Y-99641071D02*
X163274999Y-98855357D01*
X163346428Y-98712500D01*
X163489285Y-98641071D01*
X163703570Y-98641071D01*
X163846428Y-98712500D01*
X163917856Y-98783929D01*
X161917856Y-98641071D02*
X161917856Y-99641071D01*
X162560713Y-98641071D02*
X162560713Y-99426786D01*
X162489285Y-99569643D01*
X162346427Y-99641071D01*
X162132142Y-99641071D01*
X161989285Y-99569643D01*
X161917856Y-99498214D01*
X161203570Y-99641071D02*
X161203570Y-98141071D01*
X161203570Y-98712500D02*
X161060713Y-98641071D01*
X160774999Y-98641071D01*
X160632142Y-98712500D01*
X160560713Y-98783929D01*
X160489284Y-98926786D01*
X160489284Y-99355357D01*
X160560713Y-99498214D01*
X160632142Y-99569643D01*
X160774999Y-99641071D01*
X161060713Y-99641071D01*
X161203570Y-99569643D01*
X159846427Y-99498214D02*
X159774999Y-99569643D01*
X159846427Y-99641071D01*
X159917856Y-99569643D01*
X159846427Y-99498214D01*
X159846427Y-99641071D01*
X158489284Y-99569643D02*
X158632141Y-99641071D01*
X158917855Y-99641071D01*
X159060713Y-99569643D01*
X159132141Y-99498214D01*
X159203570Y-99355357D01*
X159203570Y-98926786D01*
X159132141Y-98783929D01*
X159060713Y-98712500D01*
X158917855Y-98641071D01*
X158632141Y-98641071D01*
X158489284Y-98712500D01*
X157632141Y-99641071D02*
X157774999Y-99569643D01*
X157846427Y-99498214D01*
X157917856Y-99355357D01*
X157917856Y-98926786D01*
X157846427Y-98783929D01*
X157774999Y-98712500D01*
X157632141Y-98641071D01*
X157417856Y-98641071D01*
X157274999Y-98712500D01*
X157203570Y-98783929D01*
X157132141Y-98926786D01*
X157132141Y-99355357D01*
X157203570Y-99498214D01*
X157274999Y-99569643D01*
X157417856Y-99641071D01*
X157632141Y-99641071D01*
X156489284Y-99641071D02*
X156489284Y-98641071D01*
X156489284Y-98783929D02*
X156417856Y-98712500D01*
X156274998Y-98641071D01*
X156060713Y-98641071D01*
X155917856Y-98712500D01*
X155846427Y-98855357D01*
X155846427Y-99641071D01*
X155846427Y-98855357D02*
X155774998Y-98712500D01*
X155632141Y-98641071D01*
X155417856Y-98641071D01*
X155274998Y-98712500D01*
X155203570Y-98855357D01*
X155203570Y-99641071D01*
X153417856Y-98069643D02*
X154703570Y-99998214D01*
X152917855Y-99641071D02*
X152917855Y-98641071D01*
X152917855Y-98926786D02*
X152846427Y-98783929D01*
X152774998Y-98712500D01*
X152632141Y-98641071D01*
X152489284Y-98641071D01*
X151989284Y-98641071D02*
X151989284Y-100141071D01*
X151989284Y-98712500D02*
X151846427Y-98641071D01*
X151560713Y-98641071D01*
X151417856Y-98712500D01*
X151346427Y-98783929D01*
X151274998Y-98926786D01*
X151274998Y-99355357D01*
X151346427Y-99498214D01*
X151417856Y-99569643D01*
X151560713Y-99641071D01*
X151846427Y-99641071D01*
X151989284Y-99569643D01*
X150060713Y-99569643D02*
X150203570Y-99641071D01*
X150489284Y-99641071D01*
X150632141Y-99569643D01*
X150703570Y-99426786D01*
X150703570Y-98855357D01*
X150632141Y-98712500D01*
X150489284Y-98641071D01*
X150203570Y-98641071D01*
X150060713Y-98712500D01*
X149989284Y-98855357D01*
X149989284Y-98998214D01*
X150703570Y-99141071D01*
X148703570Y-99641071D02*
X148703570Y-98141071D01*
X148703570Y-99569643D02*
X148846427Y-99641071D01*
X149132141Y-99641071D01*
X149274999Y-99569643D01*
X149346427Y-99498214D01*
X149417856Y-99355357D01*
X149417856Y-98926786D01*
X149346427Y-98783929D01*
X149274999Y-98712500D01*
X149132141Y-98641071D01*
X148846427Y-98641071D01*
X148703570Y-98712500D01*
X147346427Y-99641071D02*
X147346427Y-98141071D01*
X147346427Y-99569643D02*
X147489284Y-99641071D01*
X147774998Y-99641071D01*
X147917856Y-99569643D01*
X147989284Y-99498214D01*
X148060713Y-99355357D01*
X148060713Y-98926786D01*
X147989284Y-98783929D01*
X147917856Y-98712500D01*
X147774998Y-98641071D01*
X147489284Y-98641071D01*
X147346427Y-98712500D01*
X146060713Y-99569643D02*
X146203570Y-99641071D01*
X146489284Y-99641071D01*
X146632141Y-99569643D01*
X146703570Y-99426786D01*
X146703570Y-98855357D01*
X146632141Y-98712500D01*
X146489284Y-98641071D01*
X146203570Y-98641071D01*
X146060713Y-98712500D01*
X145989284Y-98855357D01*
X145989284Y-98998214D01*
X146703570Y-99141071D01*
X144274999Y-98069643D02*
X145560713Y-99998214D01*
X143774998Y-99641071D02*
X143774998Y-98641071D01*
X143774998Y-98926786D02*
X143703570Y-98783929D01*
X143632141Y-98712500D01*
X143489284Y-98641071D01*
X143346427Y-98641071D01*
X142203570Y-98141071D02*
X142489284Y-98141071D01*
X142632141Y-98212500D01*
X142703570Y-98283929D01*
X142846427Y-98498214D01*
X142917856Y-98783929D01*
X142917856Y-99355357D01*
X142846427Y-99498214D01*
X142774999Y-99569643D01*
X142632141Y-99641071D01*
X142346427Y-99641071D01*
X142203570Y-99569643D01*
X142132141Y-99498214D01*
X142060713Y-99355357D01*
X142060713Y-98998214D01*
X142132141Y-98855357D01*
X142203570Y-98783929D01*
X142346427Y-98712500D01*
X142632141Y-98712500D01*
X142774999Y-98783929D01*
X142846427Y-98855357D01*
X142917856Y-98998214D01*
X141132142Y-98141071D02*
X140989285Y-98141071D01*
X140846428Y-98212500D01*
X140774999Y-98283929D01*
X140703570Y-98426786D01*
X140632142Y-98712500D01*
X140632142Y-99069643D01*
X140703570Y-99355357D01*
X140774999Y-99498214D01*
X140846428Y-99569643D01*
X140989285Y-99641071D01*
X141132142Y-99641071D01*
X141274999Y-99569643D01*
X141346428Y-99498214D01*
X141417856Y-99355357D01*
X141489285Y-99069643D01*
X141489285Y-98712500D01*
X141417856Y-98426786D01*
X141346428Y-98283929D01*
X141274999Y-98212500D01*
X141132142Y-98141071D01*
X139989285Y-99069643D02*
X138846428Y-99069643D01*
X138203571Y-99569643D02*
X138060714Y-99641071D01*
X137774999Y-99641071D01*
X137632142Y-99569643D01*
X137560714Y-99426786D01*
X137560714Y-99355357D01*
X137632142Y-99212500D01*
X137774999Y-99141071D01*
X137989285Y-99141071D01*
X138132142Y-99069643D01*
X138203571Y-98926786D01*
X138203571Y-98855357D01*
X138132142Y-98712500D01*
X137989285Y-98641071D01*
X137774999Y-98641071D01*
X137632142Y-98712500D01*
X137132142Y-98641071D02*
X136560713Y-98641071D01*
X136917856Y-98141071D02*
X136917856Y-99426786D01*
X136846428Y-99569643D01*
X136703570Y-99641071D01*
X136560713Y-99641071D01*
X135417856Y-99641071D02*
X135417856Y-98141071D01*
X135417856Y-99569643D02*
X135560713Y-99641071D01*
X135846427Y-99641071D01*
X135989285Y-99569643D01*
X136060713Y-99498214D01*
X136132142Y-99355357D01*
X136132142Y-98926786D01*
X136060713Y-98783929D01*
X135989285Y-98712500D01*
X135846427Y-98641071D01*
X135560713Y-98641071D01*
X135417856Y-98712500D01*
X174324998Y-101841071D02*
X174824998Y-101126786D01*
X175182141Y-101841071D02*
X175182141Y-100341071D01*
X174610713Y-100341071D01*
X174467855Y-100412500D01*
X174396427Y-100483929D01*
X174324998Y-100626786D01*
X174324998Y-100841071D01*
X174396427Y-100983929D01*
X174467855Y-101055357D01*
X174610713Y-101126786D01*
X175182141Y-101126786D01*
X173039284Y-100341071D02*
X173324998Y-100341071D01*
X173467855Y-100412500D01*
X173539284Y-100483929D01*
X173682141Y-100698214D01*
X173753570Y-100983929D01*
X173753570Y-101555357D01*
X173682141Y-101698214D01*
X173610713Y-101769643D01*
X173467855Y-101841071D01*
X173182141Y-101841071D01*
X173039284Y-101769643D01*
X172967855Y-101698214D01*
X172896427Y-101555357D01*
X172896427Y-101198214D01*
X172967855Y-101055357D01*
X173039284Y-100983929D01*
X173182141Y-100912500D01*
X173467855Y-100912500D01*
X173610713Y-100983929D01*
X173682141Y-101055357D01*
X173753570Y-101198214D01*
X171967856Y-100341071D02*
X171824999Y-100341071D01*
X171682142Y-100412500D01*
X171610713Y-100483929D01*
X171539284Y-100626786D01*
X171467856Y-100912500D01*
X171467856Y-101269643D01*
X171539284Y-101555357D01*
X171610713Y-101698214D01*
X171682142Y-101769643D01*
X171824999Y-101841071D01*
X171967856Y-101841071D01*
X172110713Y-101769643D01*
X172182142Y-101698214D01*
X172253570Y-101555357D01*
X172324999Y-101269643D01*
X172324999Y-100912500D01*
X172253570Y-100626786D01*
X172182142Y-100483929D01*
X172110713Y-100412500D01*
X171967856Y-100341071D01*
X169753571Y-101769643D02*
X169539285Y-101841071D01*
X169182142Y-101841071D01*
X169039285Y-101769643D01*
X168967856Y-101698214D01*
X168896428Y-101555357D01*
X168896428Y-101412500D01*
X168967856Y-101269643D01*
X169039285Y-101198214D01*
X169182142Y-101126786D01*
X169467856Y-101055357D01*
X169610714Y-100983929D01*
X169682142Y-100912500D01*
X169753571Y-100769643D01*
X169753571Y-100626786D01*
X169682142Y-100483929D01*
X169610714Y-100412500D01*
X169467856Y-100341071D01*
X169110714Y-100341071D01*
X168896428Y-100412500D01*
X168467857Y-100841071D02*
X167896428Y-100841071D01*
X168253571Y-100341071D02*
X168253571Y-101626786D01*
X168182143Y-101769643D01*
X168039285Y-101841071D01*
X167896428Y-101841071D01*
X166753571Y-101841071D02*
X166753571Y-101055357D01*
X166825000Y-100912500D01*
X166967857Y-100841071D01*
X167253571Y-100841071D01*
X167396428Y-100912500D01*
X166753571Y-101769643D02*
X166896428Y-101841071D01*
X167253571Y-101841071D01*
X167396428Y-101769643D01*
X167467857Y-101626786D01*
X167467857Y-101483929D01*
X167396428Y-101341071D01*
X167253571Y-101269643D01*
X166896428Y-101269643D01*
X166753571Y-101198214D01*
X166039285Y-100841071D02*
X166039285Y-101841071D01*
X166039285Y-100983929D02*
X165967857Y-100912500D01*
X165824999Y-100841071D01*
X165610714Y-100841071D01*
X165467857Y-100912500D01*
X165396428Y-101055357D01*
X165396428Y-101841071D01*
X164039285Y-101841071D02*
X164039285Y-100341071D01*
X164039285Y-101769643D02*
X164182142Y-101841071D01*
X164467856Y-101841071D01*
X164610714Y-101769643D01*
X164682142Y-101698214D01*
X164753571Y-101555357D01*
X164753571Y-101126786D01*
X164682142Y-100983929D01*
X164610714Y-100912500D01*
X164467856Y-100841071D01*
X164182142Y-100841071D01*
X164039285Y-100912500D01*
X162682142Y-101841071D02*
X162682142Y-101055357D01*
X162753571Y-100912500D01*
X162896428Y-100841071D01*
X163182142Y-100841071D01*
X163324999Y-100912500D01*
X162682142Y-101769643D02*
X162824999Y-101841071D01*
X163182142Y-101841071D01*
X163324999Y-101769643D01*
X163396428Y-101626786D01*
X163396428Y-101483929D01*
X163324999Y-101341071D01*
X163182142Y-101269643D01*
X162824999Y-101269643D01*
X162682142Y-101198214D01*
X161967856Y-101841071D02*
X161967856Y-100841071D01*
X161967856Y-101126786D02*
X161896428Y-100983929D01*
X161824999Y-100912500D01*
X161682142Y-100841071D01*
X161539285Y-100841071D01*
X160396428Y-101841071D02*
X160396428Y-100341071D01*
X160396428Y-101769643D02*
X160539285Y-101841071D01*
X160824999Y-101841071D01*
X160967857Y-101769643D01*
X161039285Y-101698214D01*
X161110714Y-101555357D01*
X161110714Y-101126786D01*
X161039285Y-100983929D01*
X160967857Y-100912500D01*
X160824999Y-100841071D01*
X160539285Y-100841071D01*
X160396428Y-100912500D01*
X158039285Y-101055357D02*
X157824999Y-101126786D01*
X157753571Y-101198214D01*
X157682142Y-101341071D01*
X157682142Y-101555357D01*
X157753571Y-101698214D01*
X157824999Y-101769643D01*
X157967857Y-101841071D01*
X158539285Y-101841071D01*
X158539285Y-100341071D01*
X158039285Y-100341071D01*
X157896428Y-100412500D01*
X157824999Y-100483929D01*
X157753571Y-100626786D01*
X157753571Y-100769643D01*
X157824999Y-100912500D01*
X157896428Y-100983929D01*
X158039285Y-101055357D01*
X158539285Y-101055357D01*
X156824999Y-101841071D02*
X156967857Y-101769643D01*
X157039285Y-101698214D01*
X157110714Y-101555357D01*
X157110714Y-101126786D01*
X157039285Y-100983929D01*
X156967857Y-100912500D01*
X156824999Y-100841071D01*
X156610714Y-100841071D01*
X156467857Y-100912500D01*
X156396428Y-100983929D01*
X156324999Y-101126786D01*
X156324999Y-101555357D01*
X156396428Y-101698214D01*
X156467857Y-101769643D01*
X156610714Y-101841071D01*
X156824999Y-101841071D01*
X155039285Y-101841071D02*
X155039285Y-101055357D01*
X155110714Y-100912500D01*
X155253571Y-100841071D01*
X155539285Y-100841071D01*
X155682142Y-100912500D01*
X155039285Y-101769643D02*
X155182142Y-101841071D01*
X155539285Y-101841071D01*
X155682142Y-101769643D01*
X155753571Y-101626786D01*
X155753571Y-101483929D01*
X155682142Y-101341071D01*
X155539285Y-101269643D01*
X155182142Y-101269643D01*
X155039285Y-101198214D01*
X154324999Y-101841071D02*
X154324999Y-100841071D01*
X154324999Y-101126786D02*
X154253571Y-100983929D01*
X154182142Y-100912500D01*
X154039285Y-100841071D01*
X153896428Y-100841071D01*
X152753571Y-101841071D02*
X152753571Y-100341071D01*
X152753571Y-101769643D02*
X152896428Y-101841071D01*
X153182142Y-101841071D01*
X153325000Y-101769643D01*
X153396428Y-101698214D01*
X153467857Y-101555357D01*
X153467857Y-101126786D01*
X153396428Y-100983929D01*
X153325000Y-100912500D01*
X153182142Y-100841071D01*
X152896428Y-100841071D01*
X152753571Y-100912500D01*
X150039285Y-101841071D02*
X150539285Y-101126786D01*
X150896428Y-101841071D02*
X150896428Y-100341071D01*
X150325000Y-100341071D01*
X150182142Y-100412500D01*
X150110714Y-100483929D01*
X150039285Y-100626786D01*
X150039285Y-100841071D01*
X150110714Y-100983929D01*
X150182142Y-101055357D01*
X150325000Y-101126786D01*
X150896428Y-101126786D01*
X148825000Y-101769643D02*
X148967857Y-101841071D01*
X149253571Y-101841071D01*
X149396428Y-101769643D01*
X149467857Y-101626786D01*
X149467857Y-101055357D01*
X149396428Y-100912500D01*
X149253571Y-100841071D01*
X148967857Y-100841071D01*
X148825000Y-100912500D01*
X148753571Y-101055357D01*
X148753571Y-101198214D01*
X149467857Y-101341071D01*
X148253571Y-100841071D02*
X147896428Y-101841071D01*
X147539286Y-100841071D01*
X145182143Y-100841071D02*
X145182143Y-101841071D01*
X145539286Y-100269643D02*
X145896429Y-101341071D01*
X144967857Y-101341071D01*
X144396429Y-101698214D02*
X144325001Y-101769643D01*
X144396429Y-101841071D01*
X144467858Y-101769643D01*
X144396429Y-101698214D01*
X144396429Y-101841071D01*
X143396429Y-100341071D02*
X143253572Y-100341071D01*
X143110715Y-100412500D01*
X143039286Y-100483929D01*
X142967857Y-100626786D01*
X142896429Y-100912500D01*
X142896429Y-101269643D01*
X142967857Y-101555357D01*
X143039286Y-101698214D01*
X143110715Y-101769643D01*
X143253572Y-101841071D01*
X143396429Y-101841071D01*
X143539286Y-101769643D01*
X143610715Y-101698214D01*
X143682143Y-101555357D01*
X143753572Y-101269643D01*
X143753572Y-100912500D01*
X143682143Y-100626786D01*
X143610715Y-100483929D01*
X143539286Y-100412500D01*
X143396429Y-100341071D01*
D12*
X179065286Y-82518024D02*
X179065286Y-78518024D01*
X178112905Y-78518024D01*
X177541477Y-78708500D01*
X177160524Y-79089452D01*
X176970048Y-79470405D01*
X176779572Y-80232310D01*
X176779572Y-80803738D01*
X176970048Y-81565643D01*
X177160524Y-81946595D01*
X177541477Y-82327548D01*
X178112905Y-82518024D01*
X179065286Y-82518024D01*
X174493857Y-82518024D02*
X174874810Y-82327548D01*
X175065286Y-82137071D01*
X175255762Y-81756119D01*
X175255762Y-80613262D01*
X175065286Y-80232310D01*
X174874810Y-80041833D01*
X174493857Y-79851357D01*
X173922429Y-79851357D01*
X173541477Y-80041833D01*
X173351000Y-80232310D01*
X173160524Y-80613262D01*
X173160524Y-81756119D01*
X173351000Y-82137071D01*
X173541477Y-82327548D01*
X173922429Y-82518024D01*
X174493857Y-82518024D01*
X171446238Y-82518024D02*
X171446238Y-79851357D01*
X171446238Y-78518024D02*
X171636714Y-78708500D01*
X171446238Y-78898976D01*
X171255762Y-78708500D01*
X171446238Y-78518024D01*
X171446238Y-78898976D01*
X169541476Y-79851357D02*
X169541476Y-82518024D01*
X169541476Y-80232310D02*
X169351000Y-80041833D01*
X168970047Y-79851357D01*
X168398619Y-79851357D01*
X168017667Y-80041833D01*
X167827190Y-80422786D01*
X167827190Y-82518024D01*
X164208142Y-79851357D02*
X164208142Y-83089452D01*
X164398619Y-83470405D01*
X164589095Y-83660881D01*
X164970047Y-83851357D01*
X165541476Y-83851357D01*
X165922428Y-83660881D01*
X164208142Y-82327548D02*
X164589095Y-82518024D01*
X165350999Y-82518024D01*
X165731952Y-82327548D01*
X165922428Y-82137071D01*
X166112904Y-81756119D01*
X166112904Y-80613262D01*
X165922428Y-80232310D01*
X165731952Y-80041833D01*
X165350999Y-79851357D01*
X164589095Y-79851357D01*
X164208142Y-80041833D01*
X159255761Y-82518024D02*
X159255761Y-78518024D01*
X157922428Y-79851357D02*
X156398618Y-79851357D01*
X157350999Y-78518024D02*
X157350999Y-81946595D01*
X157160523Y-82327548D01*
X156779570Y-82518024D01*
X156398618Y-82518024D01*
X152398618Y-78518024D02*
X151446237Y-82518024D01*
X150684333Y-79660881D01*
X149922428Y-82518024D01*
X148970047Y-78518024D01*
X147446237Y-82518024D02*
X147446237Y-79851357D01*
X147446237Y-80613262D02*
X147255761Y-80232310D01*
X147065285Y-80041833D01*
X146684332Y-79851357D01*
X146303380Y-79851357D01*
X144398618Y-82518024D02*
X144779571Y-82327548D01*
X144970047Y-82137071D01*
X145160523Y-81756119D01*
X145160523Y-80613262D01*
X144970047Y-80232310D01*
X144779571Y-80041833D01*
X144398618Y-79851357D01*
X143827190Y-79851357D01*
X143446238Y-80041833D01*
X143255761Y-80232310D01*
X143065285Y-80613262D01*
X143065285Y-81756119D01*
X143255761Y-82137071D01*
X143446238Y-82327548D01*
X143827190Y-82518024D01*
X144398618Y-82518024D01*
X141350999Y-79851357D02*
X141350999Y-82518024D01*
X141350999Y-80232310D02*
X141160523Y-80041833D01*
X140779570Y-79851357D01*
X140208142Y-79851357D01*
X139827190Y-80041833D01*
X139636713Y-80422786D01*
X139636713Y-82518024D01*
X136017665Y-79851357D02*
X136017665Y-83089452D01*
X136208142Y-83470405D01*
X136398618Y-83660881D01*
X136779570Y-83851357D01*
X137350999Y-83851357D01*
X137731951Y-83660881D01*
X136017665Y-82327548D02*
X136398618Y-82518024D01*
X137160522Y-82518024D01*
X137541475Y-82327548D01*
X137731951Y-82137071D01*
X137922427Y-81756119D01*
X137922427Y-80613262D01*
X137731951Y-80232310D01*
X137541475Y-80041833D01*
X137160522Y-79851357D01*
X136398618Y-79851357D01*
X136017665Y-80041833D01*
X131065284Y-82518024D02*
X131065284Y-78518024D01*
X129160522Y-79851357D02*
X129160522Y-82518024D01*
X129160522Y-80232310D02*
X128970046Y-80041833D01*
X128589093Y-79851357D01*
X128017665Y-79851357D01*
X127636713Y-80041833D01*
X127446236Y-80422786D01*
X127446236Y-82518024D01*
X123827188Y-82518024D02*
X123827188Y-78518024D01*
X123827188Y-82327548D02*
X124208141Y-82518024D01*
X124970045Y-82518024D01*
X125350998Y-82327548D01*
X125541474Y-82137071D01*
X125731950Y-81756119D01*
X125731950Y-80613262D01*
X125541474Y-80232310D01*
X125350998Y-80041833D01*
X124970045Y-79851357D01*
X124208141Y-79851357D01*
X123827188Y-80041833D01*
X120208140Y-79851357D02*
X120208140Y-82518024D01*
X121922426Y-79851357D02*
X121922426Y-81946595D01*
X121731950Y-82327548D01*
X121350997Y-82518024D01*
X120779569Y-82518024D01*
X120398617Y-82327548D01*
X120208140Y-82137071D01*
X118493854Y-82327548D02*
X118112902Y-82518024D01*
X117350997Y-82518024D01*
X116970045Y-82327548D01*
X116779569Y-81946595D01*
X116779569Y-81756119D01*
X116970045Y-81375167D01*
X117350997Y-81184690D01*
X117922426Y-81184690D01*
X118303378Y-80994214D01*
X118493854Y-80613262D01*
X118493854Y-80422786D01*
X118303378Y-80041833D01*
X117922426Y-79851357D01*
X117350997Y-79851357D01*
X116970045Y-80041833D01*
X115636712Y-79851357D02*
X114112902Y-79851357D01*
X115065283Y-78518024D02*
X115065283Y-81946595D01*
X114874807Y-82327548D01*
X114493854Y-82518024D01*
X114112902Y-82518024D01*
X112779569Y-82518024D02*
X112779569Y-79851357D01*
X112779569Y-80613262D02*
X112589093Y-80232310D01*
X112398617Y-80041833D01*
X112017664Y-79851357D01*
X111636712Y-79851357D01*
X110303379Y-82518024D02*
X110303379Y-79851357D01*
X110303379Y-78518024D02*
X110493855Y-78708500D01*
X110303379Y-78898976D01*
X110112903Y-78708500D01*
X110303379Y-78518024D01*
X110303379Y-78898976D01*
X106874808Y-82327548D02*
X107255760Y-82518024D01*
X108017665Y-82518024D01*
X108398617Y-82327548D01*
X108589093Y-81946595D01*
X108589093Y-80422786D01*
X108398617Y-80041833D01*
X108017665Y-79851357D01*
X107255760Y-79851357D01*
X106874808Y-80041833D01*
X106684331Y-80422786D01*
X106684331Y-80803738D01*
X108589093Y-81184690D01*
X105160522Y-82327548D02*
X104779570Y-82518024D01*
X104017665Y-82518024D01*
X103636713Y-82327548D01*
X103446237Y-81946595D01*
X103446237Y-81756119D01*
X103636713Y-81375167D01*
X104017665Y-81184690D01*
X104589094Y-81184690D01*
X104970046Y-80994214D01*
X105160522Y-80613262D01*
X105160522Y-80422786D01*
X104970046Y-80041833D01*
X104589094Y-79851357D01*
X104017665Y-79851357D01*
X103636713Y-80041833D01*
D13*
X187237500Y-99275000D02*
X190237500Y-99275000D01*
X181237500Y-99275000D02*
X184237500Y-99275000D01*
X187237500Y-99775000D02*
X187237500Y-99275000D01*
X184237500Y-99775000D02*
X187237500Y-99775000D01*
X184237500Y-99275000D02*
X184237500Y-99775000D01*
X187237500Y-110275000D02*
X190237500Y-110275000D01*
X181237500Y-110275000D02*
X184237500Y-110275000D01*
X187237500Y-109775000D02*
X187237500Y-110275000D01*
X184237500Y-109775000D02*
X187237500Y-109775000D01*
X184237500Y-110275000D02*
X184237500Y-109775000D01*
X190237500Y-99275000D02*
X190237500Y-110275000D01*
X181237500Y-110275000D02*
X181237500Y-99275000D01*
D14*
X115025000Y-136581250D02*
X115025000Y-134881250D01*
X112800000Y-134881250D02*
X115025000Y-134881250D01*
X115025000Y-136581250D02*
X112800000Y-136581250D01*
D13*
X179300000Y-124137500D02*
X178525000Y-124137500D01*
X172050000Y-131387500D02*
X172825000Y-131387500D01*
X172050000Y-124137500D02*
X172825000Y-124137500D01*
X179300000Y-131387500D02*
X179300000Y-130612500D01*
X172050000Y-131387500D02*
X172050000Y-130612500D01*
X172050000Y-124137500D02*
X172050000Y-124912500D01*
X179300000Y-124137500D02*
X179300000Y-124912500D01*
D14*
X121978125Y-116340625D02*
X121978125Y-114640625D01*
X119753125Y-114640625D02*
X121978125Y-114640625D01*
X121978125Y-116340625D02*
X119753125Y-116340625D01*
X217228125Y-116340625D02*
X217228125Y-114640625D01*
X215003125Y-114640625D02*
X217228125Y-114640625D01*
X217228125Y-116340625D02*
X215003125Y-116340625D01*
X83878125Y-116340625D02*
X83878125Y-114640625D01*
X81653125Y-114640625D02*
X83878125Y-114640625D01*
X83878125Y-116340625D02*
X81653125Y-116340625D01*
X102928125Y-116340625D02*
X102928125Y-114640625D01*
X100703125Y-114640625D02*
X102928125Y-114640625D01*
X102928125Y-116340625D02*
X100703125Y-116340625D01*
X43775000Y-42750000D02*
X51475000Y-42750000D01*
X43775000Y-41750000D02*
X51475000Y-41750000D01*
X51475000Y-41750000D02*
X51475000Y-50950000D01*
X51475000Y-50950000D02*
X43775000Y-50950000D01*
X43775000Y-50950000D02*
X43775000Y-41750000D01*
X59375000Y-88662500D02*
X59825000Y-89112500D01*
X59375000Y-92062500D02*
X59825000Y-91612500D01*
X54775000Y-92062500D02*
X54325000Y-91612500D01*
X54775000Y-88662500D02*
X54325000Y-89112500D01*
X56075000Y-93112500D02*
X58075000Y-93112500D01*
X59825000Y-89112500D02*
X59825000Y-91612500D01*
X56075000Y-87612500D02*
X58075000Y-87612500D01*
X54325000Y-89112500D02*
X54325000Y-91612500D01*
X186225000Y-115062500D02*
X186225000Y-114062500D01*
X187925000Y-114062500D02*
X187925000Y-115062500D01*
X169225000Y-130562500D02*
X165925000Y-130562500D01*
X165925000Y-130562500D02*
X165925000Y-126562500D01*
X48019600Y-57131840D02*
X48019600Y-56131840D01*
X49719600Y-56131840D02*
X49719600Y-57131840D01*
X47146580Y-56131840D02*
X47146580Y-57131840D01*
X45446580Y-57131840D02*
X45446580Y-56131840D01*
X57575000Y-96712500D02*
X56575000Y-96712500D01*
X56575000Y-95012500D02*
X57575000Y-95012500D01*
X185225000Y-114062500D02*
X185225000Y-115062500D01*
X183525000Y-115062500D02*
X183525000Y-114062500D01*
X41015625Y-59190625D02*
X41015625Y-57490625D01*
X38790625Y-57490625D02*
X41015625Y-57490625D01*
X41015625Y-59190625D02*
X38790625Y-59190625D01*
X231515625Y-59190625D02*
X231515625Y-57490625D01*
X229290625Y-57490625D02*
X231515625Y-57490625D01*
X231515625Y-59190625D02*
X229290625Y-59190625D01*
X250565625Y-59190625D02*
X250565625Y-57490625D01*
X248340625Y-57490625D02*
X250565625Y-57490625D01*
X250565625Y-59190625D02*
X248340625Y-59190625D01*
X269615625Y-59190625D02*
X269615625Y-57490625D01*
X267390625Y-57490625D02*
X269615625Y-57490625D01*
X269615625Y-59190625D02*
X267390625Y-59190625D01*
X299381250Y-59190625D02*
X299381250Y-57490625D01*
X297156250Y-57490625D02*
X299381250Y-57490625D01*
X299381250Y-59190625D02*
X297156250Y-59190625D01*
X60065625Y-59190625D02*
X60065625Y-57490625D01*
X57840625Y-57490625D02*
X60065625Y-57490625D01*
X60065625Y-59190625D02*
X57840625Y-59190625D01*
X241040625Y-78240625D02*
X241040625Y-76540625D01*
X238815625Y-76540625D02*
X241040625Y-76540625D01*
X241040625Y-78240625D02*
X238815625Y-78240625D01*
X260090625Y-78240625D02*
X260090625Y-76540625D01*
X257865625Y-76540625D02*
X260090625Y-76540625D01*
X260090625Y-78240625D02*
X257865625Y-78240625D01*
X279140625Y-78240625D02*
X279140625Y-76540625D01*
X276915625Y-76540625D02*
X279140625Y-76540625D01*
X279140625Y-78240625D02*
X276915625Y-78240625D01*
X303143750Y-78240625D02*
X303143750Y-76540625D01*
X300918750Y-76540625D02*
X303143750Y-76540625D01*
X303143750Y-78240625D02*
X300918750Y-78240625D01*
X79115625Y-59190625D02*
X79115625Y-57490625D01*
X76890625Y-57490625D02*
X79115625Y-57490625D01*
X79115625Y-59190625D02*
X76890625Y-59190625D01*
X245803125Y-97290625D02*
X245803125Y-95590625D01*
X243578125Y-95590625D02*
X245803125Y-95590625D01*
X245803125Y-97290625D02*
X243578125Y-97290625D01*
X264853125Y-97290625D02*
X264853125Y-95590625D01*
X262628125Y-95590625D02*
X264853125Y-95590625D01*
X264853125Y-97290625D02*
X262628125Y-97290625D01*
X98165625Y-59190625D02*
X98165625Y-57490625D01*
X95940625Y-57490625D02*
X98165625Y-57490625D01*
X98165625Y-59190625D02*
X95940625Y-59190625D01*
X255328125Y-116340625D02*
X255328125Y-114640625D01*
X253103125Y-114640625D02*
X255328125Y-114640625D01*
X255328125Y-116340625D02*
X253103125Y-116340625D01*
X291046875Y-116340625D02*
X291046875Y-114640625D01*
X288821875Y-114640625D02*
X291046875Y-114640625D01*
X291046875Y-116340625D02*
X288821875Y-116340625D01*
X117215625Y-59190625D02*
X117215625Y-57490625D01*
X114990625Y-57490625D02*
X117215625Y-57490625D01*
X117215625Y-59190625D02*
X114990625Y-59190625D01*
X281521875Y-135390625D02*
X281521875Y-133690625D01*
X279296875Y-133690625D02*
X281521875Y-133690625D01*
X281521875Y-135390625D02*
X279296875Y-135390625D01*
X305334375Y-135390625D02*
X305334375Y-133690625D01*
X303109375Y-133690625D02*
X305334375Y-133690625D01*
X305334375Y-135390625D02*
X303109375Y-135390625D01*
X136265625Y-59190625D02*
X136265625Y-57490625D01*
X134040625Y-57490625D02*
X136265625Y-57490625D01*
X136265625Y-59190625D02*
X134040625Y-59190625D01*
X155315625Y-59190625D02*
X155315625Y-57490625D01*
X153090625Y-57490625D02*
X155315625Y-57490625D01*
X155315625Y-59190625D02*
X153090625Y-59190625D01*
X174365625Y-59190625D02*
X174365625Y-57490625D01*
X172140625Y-57490625D02*
X174365625Y-57490625D01*
X174365625Y-59190625D02*
X172140625Y-59190625D01*
X193300000Y-59190625D02*
X193300000Y-57490625D01*
X191075000Y-57490625D02*
X193300000Y-57490625D01*
X193300000Y-59190625D02*
X191075000Y-59190625D01*
X212465625Y-59190625D02*
X212465625Y-57490625D01*
X210240625Y-57490625D02*
X212465625Y-57490625D01*
X212465625Y-59190625D02*
X210240625Y-59190625D01*
X45778125Y-78240625D02*
X45778125Y-76540625D01*
X43553125Y-76540625D02*
X45778125Y-76540625D01*
X45778125Y-78240625D02*
X43553125Y-78240625D01*
X69450000Y-78240625D02*
X69450000Y-76540625D01*
X67225000Y-76540625D02*
X69450000Y-76540625D01*
X69450000Y-78240625D02*
X67225000Y-78240625D01*
X88640625Y-78240625D02*
X88640625Y-76540625D01*
X86415625Y-76540625D02*
X88640625Y-76540625D01*
X88640625Y-78240625D02*
X86415625Y-78240625D01*
X107690625Y-78240625D02*
X107690625Y-76540625D01*
X105465625Y-76540625D02*
X107690625Y-76540625D01*
X107690625Y-78240625D02*
X105465625Y-78240625D01*
X126740625Y-78240625D02*
X126740625Y-76540625D01*
X124515625Y-76540625D02*
X126740625Y-76540625D01*
X126740625Y-78240625D02*
X124515625Y-78240625D01*
X145790625Y-78240625D02*
X145790625Y-76540625D01*
X143565625Y-76540625D02*
X145790625Y-76540625D01*
X145790625Y-78240625D02*
X143565625Y-78240625D01*
X164840625Y-78240625D02*
X164840625Y-76540625D01*
X162615625Y-76540625D02*
X164840625Y-76540625D01*
X164840625Y-78240625D02*
X162615625Y-78240625D01*
X183890625Y-78240625D02*
X183890625Y-76540625D01*
X181665625Y-76540625D02*
X183890625Y-76540625D01*
X183890625Y-78240625D02*
X181665625Y-78240625D01*
X202940625Y-78240625D02*
X202940625Y-76540625D01*
X200715625Y-76540625D02*
X202940625Y-76540625D01*
X202940625Y-78240625D02*
X200715625Y-78240625D01*
X221990625Y-78240625D02*
X221990625Y-76540625D01*
X219765625Y-76540625D02*
X221990625Y-76540625D01*
X221990625Y-78240625D02*
X219765625Y-78240625D01*
X48159375Y-97290625D02*
X48159375Y-95590625D01*
X45934375Y-95590625D02*
X48159375Y-95590625D01*
X48159375Y-97290625D02*
X45934375Y-97290625D01*
X74353125Y-97290625D02*
X74353125Y-95590625D01*
X72128125Y-95590625D02*
X74353125Y-95590625D01*
X74353125Y-97290625D02*
X72128125Y-97290625D01*
X93403125Y-97290625D02*
X93403125Y-95590625D01*
X91178125Y-95590625D02*
X93403125Y-95590625D01*
X93403125Y-97290625D02*
X91178125Y-97290625D01*
X112453125Y-97290625D02*
X112453125Y-95590625D01*
X110228125Y-95590625D02*
X112453125Y-95590625D01*
X112453125Y-97290625D02*
X110228125Y-97290625D01*
X131503125Y-97290625D02*
X131503125Y-95590625D01*
X129278125Y-95590625D02*
X131503125Y-95590625D01*
X131503125Y-97290625D02*
X129278125Y-97290625D01*
X150553125Y-97290625D02*
X150553125Y-95590625D01*
X148328125Y-95590625D02*
X150553125Y-95590625D01*
X150553125Y-97290625D02*
X148328125Y-97290625D01*
X169603125Y-97290625D02*
X169603125Y-95590625D01*
X167378125Y-95590625D02*
X169603125Y-95590625D01*
X169603125Y-97290625D02*
X167378125Y-97290625D01*
X188653125Y-96100000D02*
X188653125Y-94400000D01*
X186428125Y-94400000D02*
X188653125Y-94400000D01*
X188653125Y-96100000D02*
X186428125Y-96100000D01*
X207703125Y-97290625D02*
X207703125Y-95590625D01*
X205478125Y-95590625D02*
X207703125Y-95590625D01*
X207703125Y-97290625D02*
X205478125Y-97290625D01*
X226753125Y-97290625D02*
X226753125Y-95590625D01*
X224528125Y-95590625D02*
X226753125Y-95590625D01*
X226753125Y-97290625D02*
X224528125Y-97290625D01*
X52921875Y-116340625D02*
X52921875Y-114640625D01*
X50696875Y-114640625D02*
X52921875Y-114640625D01*
X52921875Y-116340625D02*
X50696875Y-116340625D01*
X141028125Y-116340625D02*
X141028125Y-114640625D01*
X138803125Y-114640625D02*
X141028125Y-114640625D01*
X141028125Y-116340625D02*
X138803125Y-116340625D01*
X160078125Y-116340625D02*
X160078125Y-114640625D01*
X157853125Y-114640625D02*
X160078125Y-114640625D01*
X160078125Y-116340625D02*
X157853125Y-116340625D01*
X179128125Y-116340625D02*
X179128125Y-114640625D01*
X176903125Y-114640625D02*
X179128125Y-114640625D01*
X179128125Y-116340625D02*
X176903125Y-116340625D01*
X198178125Y-116340625D02*
X198178125Y-114640625D01*
X195953125Y-114640625D02*
X198178125Y-114640625D01*
X198178125Y-116340625D02*
X195953125Y-116340625D01*
X236278125Y-116340625D02*
X236278125Y-114640625D01*
X234053125Y-114640625D02*
X236278125Y-114640625D01*
X236278125Y-116340625D02*
X234053125Y-116340625D01*
X43396875Y-135390625D02*
X43396875Y-133690625D01*
X41171875Y-133690625D02*
X43396875Y-133690625D01*
X43396875Y-135390625D02*
X41171875Y-135390625D01*
X67209375Y-135390625D02*
X67209375Y-133690625D01*
X64984375Y-133690625D02*
X67209375Y-133690625D01*
X67209375Y-135390625D02*
X64984375Y-135390625D01*
X91021875Y-135390625D02*
X91021875Y-133690625D01*
X88796875Y-133690625D02*
X91021875Y-133690625D01*
X91021875Y-135390625D02*
X88796875Y-135390625D01*
X162459375Y-136581250D02*
X162459375Y-134881250D01*
X160234375Y-134881250D02*
X162459375Y-134881250D01*
X162459375Y-136581250D02*
X160234375Y-136581250D01*
X233896875Y-135390625D02*
X233896875Y-133690625D01*
X231671875Y-133690625D02*
X233896875Y-133690625D01*
X233896875Y-135390625D02*
X231671875Y-135390625D01*
X257709375Y-135390625D02*
X257709375Y-133690625D01*
X255484375Y-133690625D02*
X257709375Y-133690625D01*
X257709375Y-135390625D02*
X255484375Y-135390625D01*
X295809375Y-97290625D02*
X295809375Y-95590625D01*
X293584375Y-95590625D02*
X295809375Y-95590625D01*
X295809375Y-97290625D02*
X293584375Y-97290625D01*
X148171875Y-136581250D02*
X148171875Y-134881250D01*
X145946875Y-134881250D02*
X148171875Y-134881250D01*
X148171875Y-136581250D02*
X145946875Y-136581250D01*
X167225000Y-126062500D02*
X167925000Y-126062500D01*
X167925000Y-124862500D02*
X167225000Y-124862500D01*
X167125000Y-132262500D02*
X167825000Y-132262500D01*
X167825000Y-131062500D02*
X167125000Y-131062500D01*
X181625000Y-131662500D02*
X182325000Y-131662500D01*
X182325000Y-130462500D02*
X181625000Y-130462500D01*
X181525000Y-125362500D02*
X182225000Y-125362500D01*
X182225000Y-124162500D02*
X181525000Y-124162500D01*
X172475000Y-122162500D02*
X171775000Y-122162500D01*
X171775000Y-123362500D02*
X172475000Y-123362500D01*
X167825000Y-132462500D02*
X167125000Y-132462500D01*
X167125000Y-133662500D02*
X167825000Y-133662500D01*
X176775000Y-133512500D02*
X176775000Y-134212500D01*
X177975000Y-134212500D02*
X177975000Y-133512500D01*
X173775000Y-133512500D02*
X173775000Y-134212500D01*
X174975000Y-134212500D02*
X174975000Y-133512500D01*
X183175000Y-122582500D02*
X182175000Y-122582500D01*
X182175000Y-123942500D02*
X183175000Y-123942500D01*
X306300000Y-122012500D02*
X306300000Y-120312500D01*
X304075000Y-120312500D02*
X306300000Y-120312500D01*
X306300000Y-122012500D02*
X304075000Y-122012500D01*
X307715625Y-116340625D02*
X307715625Y-114640625D01*
X305490625Y-114640625D02*
X307715625Y-114640625D01*
X307715625Y-116340625D02*
X305490625Y-116340625D01*
D13*
X183717857Y-99014881D02*
X184194048Y-99014881D01*
X184194048Y-98014881D01*
X183432143Y-98967262D02*
X183289286Y-99014881D01*
X183051190Y-99014881D01*
X182955952Y-98967262D01*
X182908333Y-98919643D01*
X182860714Y-98824405D01*
X182860714Y-98729167D01*
X182908333Y-98633929D01*
X182955952Y-98586310D01*
X183051190Y-98538690D01*
X183241667Y-98491071D01*
X183336905Y-98443452D01*
X183384524Y-98395833D01*
X183432143Y-98300595D01*
X183432143Y-98205357D01*
X183384524Y-98110119D01*
X183336905Y-98062500D01*
X183241667Y-98014881D01*
X183003571Y-98014881D01*
X182860714Y-98062500D01*
X181908333Y-99014881D02*
X182479762Y-99014881D01*
X182194048Y-99014881D02*
X182194048Y-98014881D01*
X182289286Y-98157738D01*
X182384524Y-98252976D01*
X182479762Y-98300595D01*
X111514286Y-136183631D02*
X111514286Y-135183631D01*
X111276191Y-135183631D01*
X111133333Y-135231250D01*
X111038095Y-135326488D01*
X110990476Y-135421726D01*
X110942857Y-135612202D01*
X110942857Y-135755060D01*
X110990476Y-135945536D01*
X111038095Y-136040774D01*
X111133333Y-136136012D01*
X111276191Y-136183631D01*
X111514286Y-136183631D01*
X110085714Y-135516964D02*
X110085714Y-136183631D01*
X110323810Y-135136012D02*
X110561905Y-135850298D01*
X109942857Y-135850298D01*
X109657143Y-135183631D02*
X109038095Y-135183631D01*
X109371429Y-135564583D01*
X109228571Y-135564583D01*
X109133333Y-135612202D01*
X109085714Y-135659821D01*
X109038095Y-135755060D01*
X109038095Y-135993155D01*
X109085714Y-136088393D01*
X109133333Y-136136012D01*
X109228571Y-136183631D01*
X109514286Y-136183631D01*
X109609524Y-136136012D01*
X109657143Y-136088393D01*
X179877381Y-127000595D02*
X180686905Y-127000595D01*
X180782143Y-127048214D01*
X180829762Y-127095833D01*
X180877381Y-127191071D01*
X180877381Y-127381548D01*
X180829762Y-127476786D01*
X180782143Y-127524405D01*
X180686905Y-127572024D01*
X179877381Y-127572024D01*
X180877381Y-128572024D02*
X180877381Y-128000595D01*
X180877381Y-128286309D02*
X179877381Y-128286309D01*
X180020238Y-128191071D01*
X180115476Y-128095833D01*
X180163095Y-128000595D01*
X118467411Y-115943006D02*
X118467411Y-114943006D01*
X118229316Y-114943006D01*
X118086458Y-114990625D01*
X117991220Y-115085863D01*
X117943601Y-115181101D01*
X117895982Y-115371577D01*
X117895982Y-115514435D01*
X117943601Y-115704911D01*
X117991220Y-115800149D01*
X118086458Y-115895387D01*
X118229316Y-115943006D01*
X118467411Y-115943006D01*
X117562649Y-114943006D02*
X116943601Y-114943006D01*
X117276935Y-115323958D01*
X117134077Y-115323958D01*
X117038839Y-115371577D01*
X116991220Y-115419196D01*
X116943601Y-115514435D01*
X116943601Y-115752530D01*
X116991220Y-115847768D01*
X117038839Y-115895387D01*
X117134077Y-115943006D01*
X117419792Y-115943006D01*
X117515030Y-115895387D01*
X117562649Y-115847768D01*
X116610268Y-114943006D02*
X115991220Y-114943006D01*
X116324554Y-115323958D01*
X116181696Y-115323958D01*
X116086458Y-115371577D01*
X116038839Y-115419196D01*
X115991220Y-115514435D01*
X115991220Y-115752530D01*
X116038839Y-115847768D01*
X116086458Y-115895387D01*
X116181696Y-115943006D01*
X116467411Y-115943006D01*
X116562649Y-115895387D01*
X116610268Y-115847768D01*
X213717411Y-115943006D02*
X213717411Y-114943006D01*
X213479316Y-114943006D01*
X213336458Y-114990625D01*
X213241220Y-115085863D01*
X213193601Y-115181101D01*
X213145982Y-115371577D01*
X213145982Y-115514435D01*
X213193601Y-115704911D01*
X213241220Y-115800149D01*
X213336458Y-115895387D01*
X213479316Y-115943006D01*
X213717411Y-115943006D01*
X212812649Y-114943006D02*
X212193601Y-114943006D01*
X212526935Y-115323958D01*
X212384077Y-115323958D01*
X212288839Y-115371577D01*
X212241220Y-115419196D01*
X212193601Y-115514435D01*
X212193601Y-115752530D01*
X212241220Y-115847768D01*
X212288839Y-115895387D01*
X212384077Y-115943006D01*
X212669792Y-115943006D01*
X212765030Y-115895387D01*
X212812649Y-115847768D01*
X211622173Y-115371577D02*
X211717411Y-115323958D01*
X211765030Y-115276339D01*
X211812649Y-115181101D01*
X211812649Y-115133482D01*
X211765030Y-115038244D01*
X211717411Y-114990625D01*
X211622173Y-114943006D01*
X211431696Y-114943006D01*
X211336458Y-114990625D01*
X211288839Y-115038244D01*
X211241220Y-115133482D01*
X211241220Y-115181101D01*
X211288839Y-115276339D01*
X211336458Y-115323958D01*
X211431696Y-115371577D01*
X211622173Y-115371577D01*
X211717411Y-115419196D01*
X211765030Y-115466815D01*
X211812649Y-115562054D01*
X211812649Y-115752530D01*
X211765030Y-115847768D01*
X211717411Y-115895387D01*
X211622173Y-115943006D01*
X211431696Y-115943006D01*
X211336458Y-115895387D01*
X211288839Y-115847768D01*
X211241220Y-115752530D01*
X211241220Y-115562054D01*
X211288839Y-115466815D01*
X211336458Y-115419196D01*
X211431696Y-115371577D01*
X80367411Y-115943006D02*
X80367411Y-114943006D01*
X80129316Y-114943006D01*
X79986458Y-114990625D01*
X79891220Y-115085863D01*
X79843601Y-115181101D01*
X79795982Y-115371577D01*
X79795982Y-115514435D01*
X79843601Y-115704911D01*
X79891220Y-115800149D01*
X79986458Y-115895387D01*
X80129316Y-115943006D01*
X80367411Y-115943006D01*
X79462649Y-114943006D02*
X78843601Y-114943006D01*
X79176935Y-115323958D01*
X79034077Y-115323958D01*
X78938839Y-115371577D01*
X78891220Y-115419196D01*
X78843601Y-115514435D01*
X78843601Y-115752530D01*
X78891220Y-115847768D01*
X78938839Y-115895387D01*
X79034077Y-115943006D01*
X79319792Y-115943006D01*
X79415030Y-115895387D01*
X79462649Y-115847768D01*
X77891220Y-115943006D02*
X78462649Y-115943006D01*
X78176935Y-115943006D02*
X78176935Y-114943006D01*
X78272173Y-115085863D01*
X78367411Y-115181101D01*
X78462649Y-115228720D01*
X99417411Y-115943006D02*
X99417411Y-114943006D01*
X99179316Y-114943006D01*
X99036458Y-114990625D01*
X98941220Y-115085863D01*
X98893601Y-115181101D01*
X98845982Y-115371577D01*
X98845982Y-115514435D01*
X98893601Y-115704911D01*
X98941220Y-115800149D01*
X99036458Y-115895387D01*
X99179316Y-115943006D01*
X99417411Y-115943006D01*
X98512649Y-114943006D02*
X97893601Y-114943006D01*
X98226935Y-115323958D01*
X98084077Y-115323958D01*
X97988839Y-115371577D01*
X97941220Y-115419196D01*
X97893601Y-115514435D01*
X97893601Y-115752530D01*
X97941220Y-115847768D01*
X97988839Y-115895387D01*
X98084077Y-115943006D01*
X98369792Y-115943006D01*
X98465030Y-115895387D01*
X98512649Y-115847768D01*
X97512649Y-115038244D02*
X97465030Y-114990625D01*
X97369792Y-114943006D01*
X97131696Y-114943006D01*
X97036458Y-114990625D01*
X96988839Y-115038244D01*
X96941220Y-115133482D01*
X96941220Y-115228720D01*
X96988839Y-115371577D01*
X97560268Y-115943006D01*
X96941220Y-115943006D01*
X54977381Y-45611905D02*
X53977381Y-45611905D01*
X53977381Y-45992858D01*
X54025000Y-46088096D01*
X54072619Y-46135715D01*
X54167857Y-46183334D01*
X54310714Y-46183334D01*
X54405952Y-46135715D01*
X54453571Y-46088096D01*
X54501190Y-45992858D01*
X54501190Y-45611905D01*
X54977381Y-47135715D02*
X54977381Y-46564286D01*
X54977381Y-46850000D02*
X53977381Y-46850000D01*
X54120238Y-46754762D01*
X54215476Y-46659524D01*
X54263095Y-46564286D01*
X53729762Y-89029167D02*
X53777381Y-89172024D01*
X53777381Y-89410120D01*
X53729762Y-89505358D01*
X53682143Y-89552977D01*
X53586905Y-89600596D01*
X53491667Y-89600596D01*
X53396429Y-89552977D01*
X53348810Y-89505358D01*
X53301190Y-89410120D01*
X53253571Y-89219643D01*
X53205952Y-89124405D01*
X53158333Y-89076786D01*
X53063095Y-89029167D01*
X52967857Y-89029167D01*
X52872619Y-89076786D01*
X52825000Y-89124405D01*
X52777381Y-89219643D01*
X52777381Y-89457739D01*
X52825000Y-89600596D01*
X52777381Y-89933929D02*
X53777381Y-90172024D01*
X53063095Y-90362501D01*
X53777381Y-90552977D01*
X52777381Y-90791072D01*
X53777381Y-91695834D02*
X53777381Y-91124405D01*
X53777381Y-91410119D02*
X52777381Y-91410119D01*
X52920238Y-91314881D01*
X53015476Y-91219643D01*
X53063095Y-91124405D01*
X187432143Y-117095834D02*
X187479762Y-117048215D01*
X187527381Y-116905358D01*
X187527381Y-116810120D01*
X187479762Y-116667262D01*
X187384524Y-116572024D01*
X187289286Y-116524405D01*
X187098810Y-116476786D01*
X186955952Y-116476786D01*
X186765476Y-116524405D01*
X186670238Y-116572024D01*
X186575000Y-116667262D01*
X186527381Y-116810120D01*
X186527381Y-116905358D01*
X186575000Y-117048215D01*
X186622619Y-117095834D01*
X187527381Y-117572024D02*
X187527381Y-117762500D01*
X187479762Y-117857739D01*
X187432143Y-117905358D01*
X187289286Y-118000596D01*
X187098810Y-118048215D01*
X186717857Y-118048215D01*
X186622619Y-118000596D01*
X186575000Y-117952977D01*
X186527381Y-117857739D01*
X186527381Y-117667262D01*
X186575000Y-117572024D01*
X186622619Y-117524405D01*
X186717857Y-117476786D01*
X186955952Y-117476786D01*
X187051190Y-117524405D01*
X187098810Y-117572024D01*
X187146429Y-117667262D01*
X187146429Y-117857739D01*
X187098810Y-117952977D01*
X187051190Y-118000596D01*
X186955952Y-118048215D01*
X170754316Y-128538690D02*
X170754316Y-129014881D01*
X171087649Y-128014881D02*
X170754316Y-128538690D01*
X170420982Y-128014881D01*
X169563839Y-129014881D02*
X170135268Y-129014881D01*
X169849554Y-129014881D02*
X169849554Y-128014881D01*
X169944792Y-128157738D01*
X170040030Y-128252976D01*
X170135268Y-128300595D01*
X49321981Y-59495834D02*
X48845790Y-59162500D01*
X49321981Y-58924405D02*
X48321981Y-58924405D01*
X48321981Y-59305358D01*
X48369600Y-59400596D01*
X48417219Y-59448215D01*
X48512457Y-59495834D01*
X48655314Y-59495834D01*
X48750552Y-59448215D01*
X48798171Y-59400596D01*
X48845790Y-59305358D01*
X48845790Y-58924405D01*
X49321981Y-60448215D02*
X49321981Y-59876786D01*
X49321981Y-60162500D02*
X48321981Y-60162500D01*
X48464838Y-60067262D01*
X48560076Y-59972024D01*
X48607695Y-59876786D01*
X46827381Y-59495834D02*
X46351190Y-59162500D01*
X46827381Y-58924405D02*
X45827381Y-58924405D01*
X45827381Y-59305358D01*
X45875000Y-59400596D01*
X45922619Y-59448215D01*
X46017857Y-59495834D01*
X46160714Y-59495834D01*
X46255952Y-59448215D01*
X46303571Y-59400596D01*
X46351190Y-59305358D01*
X46351190Y-58924405D01*
X45922619Y-59876786D02*
X45875000Y-59924405D01*
X45827381Y-60019643D01*
X45827381Y-60257739D01*
X45875000Y-60352977D01*
X45922619Y-60400596D01*
X46017857Y-60448215D01*
X46113095Y-60448215D01*
X46255952Y-60400596D01*
X46827381Y-59829167D01*
X46827381Y-60448215D01*
X60241666Y-96314881D02*
X60575000Y-95838690D01*
X60813095Y-96314881D02*
X60813095Y-95314881D01*
X60432142Y-95314881D01*
X60336904Y-95362500D01*
X60289285Y-95410119D01*
X60241666Y-95505357D01*
X60241666Y-95648214D01*
X60289285Y-95743452D01*
X60336904Y-95791071D01*
X60432142Y-95838690D01*
X60813095Y-95838690D01*
X59908333Y-95314881D02*
X59289285Y-95314881D01*
X59622619Y-95695833D01*
X59479761Y-95695833D01*
X59384523Y-95743452D01*
X59336904Y-95791071D01*
X59289285Y-95886310D01*
X59289285Y-96124405D01*
X59336904Y-96219643D01*
X59384523Y-96267262D01*
X59479761Y-96314881D01*
X59765476Y-96314881D01*
X59860714Y-96267262D01*
X59908333Y-96219643D01*
X185227381Y-117095834D02*
X184751190Y-116762500D01*
X185227381Y-116524405D02*
X184227381Y-116524405D01*
X184227381Y-116905358D01*
X184275000Y-117000596D01*
X184322619Y-117048215D01*
X184417857Y-117095834D01*
X184560714Y-117095834D01*
X184655952Y-117048215D01*
X184703571Y-117000596D01*
X184751190Y-116905358D01*
X184751190Y-116524405D01*
X184227381Y-118000596D02*
X184227381Y-117524405D01*
X184703571Y-117476786D01*
X184655952Y-117524405D01*
X184608333Y-117619643D01*
X184608333Y-117857739D01*
X184655952Y-117952977D01*
X184703571Y-118000596D01*
X184798810Y-118048215D01*
X185036905Y-118048215D01*
X185132143Y-118000596D01*
X185179762Y-117952977D01*
X185227381Y-117857739D01*
X185227381Y-117619643D01*
X185179762Y-117524405D01*
X185132143Y-117476786D01*
X37028720Y-58793006D02*
X37028720Y-57793006D01*
X36790625Y-57793006D01*
X36647767Y-57840625D01*
X36552529Y-57935863D01*
X36504910Y-58031101D01*
X36457291Y-58221577D01*
X36457291Y-58364435D01*
X36504910Y-58554911D01*
X36552529Y-58650149D01*
X36647767Y-58745387D01*
X36790625Y-58793006D01*
X37028720Y-58793006D01*
X35838244Y-57793006D02*
X35743005Y-57793006D01*
X35647767Y-57840625D01*
X35600148Y-57888244D01*
X35552529Y-57983482D01*
X35504910Y-58173958D01*
X35504910Y-58412054D01*
X35552529Y-58602530D01*
X35600148Y-58697768D01*
X35647767Y-58745387D01*
X35743005Y-58793006D01*
X35838244Y-58793006D01*
X35933482Y-58745387D01*
X35981101Y-58697768D01*
X36028720Y-58602530D01*
X36076339Y-58412054D01*
X36076339Y-58173958D01*
X36028720Y-57983482D01*
X35981101Y-57888244D01*
X35933482Y-57840625D01*
X35838244Y-57793006D01*
X228433482Y-58793006D02*
X228433482Y-57793006D01*
X228195387Y-57793006D01*
X228052529Y-57840625D01*
X227957291Y-57935863D01*
X227909672Y-58031101D01*
X227862053Y-58221577D01*
X227862053Y-58364435D01*
X227909672Y-58554911D01*
X227957291Y-58650149D01*
X228052529Y-58745387D01*
X228195387Y-58793006D01*
X228433482Y-58793006D01*
X227243006Y-57793006D02*
X227147767Y-57793006D01*
X227052529Y-57840625D01*
X227004910Y-57888244D01*
X226957291Y-57983482D01*
X226909672Y-58173958D01*
X226909672Y-58412054D01*
X226957291Y-58602530D01*
X227004910Y-58697768D01*
X227052529Y-58745387D01*
X227147767Y-58793006D01*
X227243006Y-58793006D01*
X227338244Y-58745387D01*
X227385863Y-58697768D01*
X227433482Y-58602530D01*
X227481101Y-58412054D01*
X227481101Y-58173958D01*
X227433482Y-57983482D01*
X227385863Y-57888244D01*
X227338244Y-57840625D01*
X227243006Y-57793006D01*
X226528720Y-58507292D02*
X226052529Y-58507292D01*
X226623958Y-58793006D02*
X226290625Y-57793006D01*
X225957291Y-58793006D01*
X225100148Y-58793006D02*
X225671577Y-58793006D01*
X225385863Y-58793006D02*
X225385863Y-57793006D01*
X225481101Y-57935863D01*
X225576339Y-58031101D01*
X225671577Y-58078720D01*
X247554911Y-58793006D02*
X247554911Y-57793006D01*
X247316816Y-57793006D01*
X247173958Y-57840625D01*
X247078720Y-57935863D01*
X247031101Y-58031101D01*
X246983482Y-58221577D01*
X246983482Y-58364435D01*
X247031101Y-58554911D01*
X247078720Y-58650149D01*
X247173958Y-58745387D01*
X247316816Y-58793006D01*
X247554911Y-58793006D01*
X246364435Y-57793006D02*
X246269196Y-57793006D01*
X246173958Y-57840625D01*
X246126339Y-57888244D01*
X246078720Y-57983482D01*
X246031101Y-58173958D01*
X246031101Y-58412054D01*
X246078720Y-58602530D01*
X246126339Y-58697768D01*
X246173958Y-58745387D01*
X246269196Y-58793006D01*
X246364435Y-58793006D01*
X246459673Y-58745387D01*
X246507292Y-58697768D01*
X246554911Y-58602530D01*
X246602530Y-58412054D01*
X246602530Y-58173958D01*
X246554911Y-57983482D01*
X246507292Y-57888244D01*
X246459673Y-57840625D01*
X246364435Y-57793006D01*
X245269196Y-58269196D02*
X245126339Y-58316815D01*
X245078720Y-58364435D01*
X245031101Y-58459673D01*
X245031101Y-58602530D01*
X245078720Y-58697768D01*
X245126339Y-58745387D01*
X245221577Y-58793006D01*
X245602530Y-58793006D01*
X245602530Y-57793006D01*
X245269196Y-57793006D01*
X245173958Y-57840625D01*
X245126339Y-57888244D01*
X245078720Y-57983482D01*
X245078720Y-58078720D01*
X245126339Y-58173958D01*
X245173958Y-58221577D01*
X245269196Y-58269196D01*
X245602530Y-58269196D01*
X244078720Y-58793006D02*
X244650149Y-58793006D01*
X244364435Y-58793006D02*
X244364435Y-57793006D01*
X244459673Y-57935863D01*
X244554911Y-58031101D01*
X244650149Y-58078720D01*
X266604911Y-58793006D02*
X266604911Y-57793006D01*
X266366816Y-57793006D01*
X266223958Y-57840625D01*
X266128720Y-57935863D01*
X266081101Y-58031101D01*
X266033482Y-58221577D01*
X266033482Y-58364435D01*
X266081101Y-58554911D01*
X266128720Y-58650149D01*
X266223958Y-58745387D01*
X266366816Y-58793006D01*
X266604911Y-58793006D01*
X265414435Y-57793006D02*
X265319196Y-57793006D01*
X265223958Y-57840625D01*
X265176339Y-57888244D01*
X265128720Y-57983482D01*
X265081101Y-58173958D01*
X265081101Y-58412054D01*
X265128720Y-58602530D01*
X265176339Y-58697768D01*
X265223958Y-58745387D01*
X265319196Y-58793006D01*
X265414435Y-58793006D01*
X265509673Y-58745387D01*
X265557292Y-58697768D01*
X265604911Y-58602530D01*
X265652530Y-58412054D01*
X265652530Y-58173958D01*
X265604911Y-57983482D01*
X265557292Y-57888244D01*
X265509673Y-57840625D01*
X265414435Y-57793006D01*
X264081101Y-58697768D02*
X264128720Y-58745387D01*
X264271577Y-58793006D01*
X264366815Y-58793006D01*
X264509673Y-58745387D01*
X264604911Y-58650149D01*
X264652530Y-58554911D01*
X264700149Y-58364435D01*
X264700149Y-58221577D01*
X264652530Y-58031101D01*
X264604911Y-57935863D01*
X264509673Y-57840625D01*
X264366815Y-57793006D01*
X264271577Y-57793006D01*
X264128720Y-57840625D01*
X264081101Y-57888244D01*
X263128720Y-58793006D02*
X263700149Y-58793006D01*
X263414435Y-58793006D02*
X263414435Y-57793006D01*
X263509673Y-57935863D01*
X263604911Y-58031101D01*
X263700149Y-58078720D01*
X296370536Y-58793006D02*
X296370536Y-57793006D01*
X296132441Y-57793006D01*
X295989583Y-57840625D01*
X295894345Y-57935863D01*
X295846726Y-58031101D01*
X295799107Y-58221577D01*
X295799107Y-58364435D01*
X295846726Y-58554911D01*
X295894345Y-58650149D01*
X295989583Y-58745387D01*
X296132441Y-58793006D01*
X296370536Y-58793006D01*
X295180060Y-57793006D02*
X295084821Y-57793006D01*
X294989583Y-57840625D01*
X294941964Y-57888244D01*
X294894345Y-57983482D01*
X294846726Y-58173958D01*
X294846726Y-58412054D01*
X294894345Y-58602530D01*
X294941964Y-58697768D01*
X294989583Y-58745387D01*
X295084821Y-58793006D01*
X295180060Y-58793006D01*
X295275298Y-58745387D01*
X295322917Y-58697768D01*
X295370536Y-58602530D01*
X295418155Y-58412054D01*
X295418155Y-58173958D01*
X295370536Y-57983482D01*
X295322917Y-57888244D01*
X295275298Y-57840625D01*
X295180060Y-57793006D01*
X294418155Y-58793006D02*
X294418155Y-57793006D01*
X294180060Y-57793006D01*
X294037202Y-57840625D01*
X293941964Y-57935863D01*
X293894345Y-58031101D01*
X293846726Y-58221577D01*
X293846726Y-58364435D01*
X293894345Y-58554911D01*
X293941964Y-58650149D01*
X294037202Y-58745387D01*
X294180060Y-58793006D01*
X294418155Y-58793006D01*
X292894345Y-58793006D02*
X293465774Y-58793006D01*
X293180060Y-58793006D02*
X293180060Y-57793006D01*
X293275298Y-57935863D01*
X293370536Y-58031101D01*
X293465774Y-58078720D01*
X56078720Y-58793006D02*
X56078720Y-57793006D01*
X55840625Y-57793006D01*
X55697767Y-57840625D01*
X55602529Y-57935863D01*
X55554910Y-58031101D01*
X55507291Y-58221577D01*
X55507291Y-58364435D01*
X55554910Y-58554911D01*
X55602529Y-58650149D01*
X55697767Y-58745387D01*
X55840625Y-58793006D01*
X56078720Y-58793006D01*
X54554910Y-58793006D02*
X55126339Y-58793006D01*
X54840625Y-58793006D02*
X54840625Y-57793006D01*
X54935863Y-57935863D01*
X55031101Y-58031101D01*
X55126339Y-58078720D01*
X237958482Y-77843006D02*
X237958482Y-76843006D01*
X237720387Y-76843006D01*
X237577529Y-76890625D01*
X237482291Y-76985863D01*
X237434672Y-77081101D01*
X237387053Y-77271577D01*
X237387053Y-77414435D01*
X237434672Y-77604911D01*
X237482291Y-77700149D01*
X237577529Y-77795387D01*
X237720387Y-77843006D01*
X237958482Y-77843006D01*
X236434672Y-77843006D02*
X237006101Y-77843006D01*
X236720387Y-77843006D02*
X236720387Y-76843006D01*
X236815625Y-76985863D01*
X236910863Y-77081101D01*
X237006101Y-77128720D01*
X236053720Y-77557292D02*
X235577529Y-77557292D01*
X236148958Y-77843006D02*
X235815625Y-76843006D01*
X235482291Y-77843006D01*
X234625148Y-77843006D02*
X235196577Y-77843006D01*
X234910863Y-77843006D02*
X234910863Y-76843006D01*
X235006101Y-76985863D01*
X235101339Y-77081101D01*
X235196577Y-77128720D01*
X257079911Y-77843006D02*
X257079911Y-76843006D01*
X256841816Y-76843006D01*
X256698958Y-76890625D01*
X256603720Y-76985863D01*
X256556101Y-77081101D01*
X256508482Y-77271577D01*
X256508482Y-77414435D01*
X256556101Y-77604911D01*
X256603720Y-77700149D01*
X256698958Y-77795387D01*
X256841816Y-77843006D01*
X257079911Y-77843006D01*
X255556101Y-77843006D02*
X256127530Y-77843006D01*
X255841816Y-77843006D02*
X255841816Y-76843006D01*
X255937054Y-76985863D01*
X256032292Y-77081101D01*
X256127530Y-77128720D01*
X254794196Y-77319196D02*
X254651339Y-77366815D01*
X254603720Y-77414435D01*
X254556101Y-77509673D01*
X254556101Y-77652530D01*
X254603720Y-77747768D01*
X254651339Y-77795387D01*
X254746577Y-77843006D01*
X255127530Y-77843006D01*
X255127530Y-76843006D01*
X254794196Y-76843006D01*
X254698958Y-76890625D01*
X254651339Y-76938244D01*
X254603720Y-77033482D01*
X254603720Y-77128720D01*
X254651339Y-77223958D01*
X254698958Y-77271577D01*
X254794196Y-77319196D01*
X255127530Y-77319196D01*
X253603720Y-77843006D02*
X254175149Y-77843006D01*
X253889435Y-77843006D02*
X253889435Y-76843006D01*
X253984673Y-76985863D01*
X254079911Y-77081101D01*
X254175149Y-77128720D01*
X276129911Y-77843006D02*
X276129911Y-76843006D01*
X275891816Y-76843006D01*
X275748958Y-76890625D01*
X275653720Y-76985863D01*
X275606101Y-77081101D01*
X275558482Y-77271577D01*
X275558482Y-77414435D01*
X275606101Y-77604911D01*
X275653720Y-77700149D01*
X275748958Y-77795387D01*
X275891816Y-77843006D01*
X276129911Y-77843006D01*
X274606101Y-77843006D02*
X275177530Y-77843006D01*
X274891816Y-77843006D02*
X274891816Y-76843006D01*
X274987054Y-76985863D01*
X275082292Y-77081101D01*
X275177530Y-77128720D01*
X273606101Y-77747768D02*
X273653720Y-77795387D01*
X273796577Y-77843006D01*
X273891815Y-77843006D01*
X274034673Y-77795387D01*
X274129911Y-77700149D01*
X274177530Y-77604911D01*
X274225149Y-77414435D01*
X274225149Y-77271577D01*
X274177530Y-77081101D01*
X274129911Y-76985863D01*
X274034673Y-76890625D01*
X273891815Y-76843006D01*
X273796577Y-76843006D01*
X273653720Y-76890625D01*
X273606101Y-76938244D01*
X272653720Y-77843006D02*
X273225149Y-77843006D01*
X272939435Y-77843006D02*
X272939435Y-76843006D01*
X273034673Y-76985863D01*
X273129911Y-77081101D01*
X273225149Y-77128720D01*
X300133036Y-77843006D02*
X300133036Y-76843006D01*
X299894941Y-76843006D01*
X299752083Y-76890625D01*
X299656845Y-76985863D01*
X299609226Y-77081101D01*
X299561607Y-77271577D01*
X299561607Y-77414435D01*
X299609226Y-77604911D01*
X299656845Y-77700149D01*
X299752083Y-77795387D01*
X299894941Y-77843006D01*
X300133036Y-77843006D01*
X298609226Y-77843006D02*
X299180655Y-77843006D01*
X298894941Y-77843006D02*
X298894941Y-76843006D01*
X298990179Y-76985863D01*
X299085417Y-77081101D01*
X299180655Y-77128720D01*
X298180655Y-77843006D02*
X298180655Y-76843006D01*
X297942560Y-76843006D01*
X297799702Y-76890625D01*
X297704464Y-76985863D01*
X297656845Y-77081101D01*
X297609226Y-77271577D01*
X297609226Y-77414435D01*
X297656845Y-77604911D01*
X297704464Y-77700149D01*
X297799702Y-77795387D01*
X297942560Y-77843006D01*
X298180655Y-77843006D01*
X296656845Y-77843006D02*
X297228274Y-77843006D01*
X296942560Y-77843006D02*
X296942560Y-76843006D01*
X297037798Y-76985863D01*
X297133036Y-77081101D01*
X297228274Y-77128720D01*
X75128720Y-58793006D02*
X75128720Y-57793006D01*
X74890625Y-57793006D01*
X74747767Y-57840625D01*
X74652529Y-57935863D01*
X74604910Y-58031101D01*
X74557291Y-58221577D01*
X74557291Y-58364435D01*
X74604910Y-58554911D01*
X74652529Y-58650149D01*
X74747767Y-58745387D01*
X74890625Y-58793006D01*
X75128720Y-58793006D01*
X74176339Y-57888244D02*
X74128720Y-57840625D01*
X74033482Y-57793006D01*
X73795386Y-57793006D01*
X73700148Y-57840625D01*
X73652529Y-57888244D01*
X73604910Y-57983482D01*
X73604910Y-58078720D01*
X73652529Y-58221577D01*
X74223958Y-58793006D01*
X73604910Y-58793006D01*
X242720982Y-96893006D02*
X242720982Y-95893006D01*
X242482887Y-95893006D01*
X242340029Y-95940625D01*
X242244791Y-96035863D01*
X242197172Y-96131101D01*
X242149553Y-96321577D01*
X242149553Y-96464435D01*
X242197172Y-96654911D01*
X242244791Y-96750149D01*
X242340029Y-96845387D01*
X242482887Y-96893006D01*
X242720982Y-96893006D01*
X241768601Y-95988244D02*
X241720982Y-95940625D01*
X241625744Y-95893006D01*
X241387648Y-95893006D01*
X241292410Y-95940625D01*
X241244791Y-95988244D01*
X241197172Y-96083482D01*
X241197172Y-96178720D01*
X241244791Y-96321577D01*
X241816220Y-96893006D01*
X241197172Y-96893006D01*
X240816220Y-96607292D02*
X240340029Y-96607292D01*
X240911458Y-96893006D02*
X240578125Y-95893006D01*
X240244791Y-96893006D01*
X239387648Y-96893006D02*
X239959077Y-96893006D01*
X239673363Y-96893006D02*
X239673363Y-95893006D01*
X239768601Y-96035863D01*
X239863839Y-96131101D01*
X239959077Y-96178720D01*
X261842411Y-96893006D02*
X261842411Y-95893006D01*
X261604316Y-95893006D01*
X261461458Y-95940625D01*
X261366220Y-96035863D01*
X261318601Y-96131101D01*
X261270982Y-96321577D01*
X261270982Y-96464435D01*
X261318601Y-96654911D01*
X261366220Y-96750149D01*
X261461458Y-96845387D01*
X261604316Y-96893006D01*
X261842411Y-96893006D01*
X260890030Y-95988244D02*
X260842411Y-95940625D01*
X260747173Y-95893006D01*
X260509077Y-95893006D01*
X260413839Y-95940625D01*
X260366220Y-95988244D01*
X260318601Y-96083482D01*
X260318601Y-96178720D01*
X260366220Y-96321577D01*
X260937649Y-96893006D01*
X260318601Y-96893006D01*
X259556696Y-96369196D02*
X259413839Y-96416815D01*
X259366220Y-96464435D01*
X259318601Y-96559673D01*
X259318601Y-96702530D01*
X259366220Y-96797768D01*
X259413839Y-96845387D01*
X259509077Y-96893006D01*
X259890030Y-96893006D01*
X259890030Y-95893006D01*
X259556696Y-95893006D01*
X259461458Y-95940625D01*
X259413839Y-95988244D01*
X259366220Y-96083482D01*
X259366220Y-96178720D01*
X259413839Y-96273958D01*
X259461458Y-96321577D01*
X259556696Y-96369196D01*
X259890030Y-96369196D01*
X258366220Y-96893006D02*
X258937649Y-96893006D01*
X258651935Y-96893006D02*
X258651935Y-95893006D01*
X258747173Y-96035863D01*
X258842411Y-96131101D01*
X258937649Y-96178720D01*
X94178720Y-58793006D02*
X94178720Y-57793006D01*
X93940625Y-57793006D01*
X93797767Y-57840625D01*
X93702529Y-57935863D01*
X93654910Y-58031101D01*
X93607291Y-58221577D01*
X93607291Y-58364435D01*
X93654910Y-58554911D01*
X93702529Y-58650149D01*
X93797767Y-58745387D01*
X93940625Y-58793006D01*
X94178720Y-58793006D01*
X93273958Y-57793006D02*
X92654910Y-57793006D01*
X92988244Y-58173958D01*
X92845386Y-58173958D01*
X92750148Y-58221577D01*
X92702529Y-58269196D01*
X92654910Y-58364435D01*
X92654910Y-58602530D01*
X92702529Y-58697768D01*
X92750148Y-58745387D01*
X92845386Y-58793006D01*
X93131101Y-58793006D01*
X93226339Y-58745387D01*
X93273958Y-58697768D01*
X252245982Y-115943006D02*
X252245982Y-114943006D01*
X252007887Y-114943006D01*
X251865029Y-114990625D01*
X251769791Y-115085863D01*
X251722172Y-115181101D01*
X251674553Y-115371577D01*
X251674553Y-115514435D01*
X251722172Y-115704911D01*
X251769791Y-115800149D01*
X251865029Y-115895387D01*
X252007887Y-115943006D01*
X252245982Y-115943006D01*
X251341220Y-114943006D02*
X250722172Y-114943006D01*
X251055506Y-115323958D01*
X250912648Y-115323958D01*
X250817410Y-115371577D01*
X250769791Y-115419196D01*
X250722172Y-115514435D01*
X250722172Y-115752530D01*
X250769791Y-115847768D01*
X250817410Y-115895387D01*
X250912648Y-115943006D01*
X251198363Y-115943006D01*
X251293601Y-115895387D01*
X251341220Y-115847768D01*
X250341220Y-115657292D02*
X249865029Y-115657292D01*
X250436458Y-115943006D02*
X250103125Y-114943006D01*
X249769791Y-115943006D01*
X248912648Y-115943006D02*
X249484077Y-115943006D01*
X249198363Y-115943006D02*
X249198363Y-114943006D01*
X249293601Y-115085863D01*
X249388839Y-115181101D01*
X249484077Y-115228720D01*
X288036161Y-115943006D02*
X288036161Y-114943006D01*
X287798066Y-114943006D01*
X287655208Y-114990625D01*
X287559970Y-115085863D01*
X287512351Y-115181101D01*
X287464732Y-115371577D01*
X287464732Y-115514435D01*
X287512351Y-115704911D01*
X287559970Y-115800149D01*
X287655208Y-115895387D01*
X287798066Y-115943006D01*
X288036161Y-115943006D01*
X287131399Y-114943006D02*
X286512351Y-114943006D01*
X286845685Y-115323958D01*
X286702827Y-115323958D01*
X286607589Y-115371577D01*
X286559970Y-115419196D01*
X286512351Y-115514435D01*
X286512351Y-115752530D01*
X286559970Y-115847768D01*
X286607589Y-115895387D01*
X286702827Y-115943006D01*
X286988542Y-115943006D01*
X287083780Y-115895387D01*
X287131399Y-115847768D01*
X285750446Y-115419196D02*
X285607589Y-115466815D01*
X285559970Y-115514435D01*
X285512351Y-115609673D01*
X285512351Y-115752530D01*
X285559970Y-115847768D01*
X285607589Y-115895387D01*
X285702827Y-115943006D01*
X286083780Y-115943006D01*
X286083780Y-114943006D01*
X285750446Y-114943006D01*
X285655208Y-114990625D01*
X285607589Y-115038244D01*
X285559970Y-115133482D01*
X285559970Y-115228720D01*
X285607589Y-115323958D01*
X285655208Y-115371577D01*
X285750446Y-115419196D01*
X286083780Y-115419196D01*
X284559970Y-115943006D02*
X285131399Y-115943006D01*
X284845685Y-115943006D02*
X284845685Y-114943006D01*
X284940923Y-115085863D01*
X285036161Y-115181101D01*
X285131399Y-115228720D01*
X113228720Y-58793006D02*
X113228720Y-57793006D01*
X112990625Y-57793006D01*
X112847767Y-57840625D01*
X112752529Y-57935863D01*
X112704910Y-58031101D01*
X112657291Y-58221577D01*
X112657291Y-58364435D01*
X112704910Y-58554911D01*
X112752529Y-58650149D01*
X112847767Y-58745387D01*
X112990625Y-58793006D01*
X113228720Y-58793006D01*
X111800148Y-58126339D02*
X111800148Y-58793006D01*
X112038244Y-57745387D02*
X112276339Y-58459673D01*
X111657291Y-58459673D01*
X278439732Y-134993006D02*
X278439732Y-133993006D01*
X278201637Y-133993006D01*
X278058779Y-134040625D01*
X277963541Y-134135863D01*
X277915922Y-134231101D01*
X277868303Y-134421577D01*
X277868303Y-134564435D01*
X277915922Y-134754911D01*
X277963541Y-134850149D01*
X278058779Y-134945387D01*
X278201637Y-134993006D01*
X278439732Y-134993006D01*
X277011160Y-134326339D02*
X277011160Y-134993006D01*
X277249256Y-133945387D02*
X277487351Y-134659673D01*
X276868303Y-134659673D01*
X276534970Y-134707292D02*
X276058779Y-134707292D01*
X276630208Y-134993006D02*
X276296875Y-133993006D01*
X275963541Y-134993006D01*
X275106398Y-134993006D02*
X275677827Y-134993006D01*
X275392113Y-134993006D02*
X275392113Y-133993006D01*
X275487351Y-134135863D01*
X275582589Y-134231101D01*
X275677827Y-134278720D01*
X302323661Y-134993006D02*
X302323661Y-133993006D01*
X302085566Y-133993006D01*
X301942708Y-134040625D01*
X301847470Y-134135863D01*
X301799851Y-134231101D01*
X301752232Y-134421577D01*
X301752232Y-134564435D01*
X301799851Y-134754911D01*
X301847470Y-134850149D01*
X301942708Y-134945387D01*
X302085566Y-134993006D01*
X302323661Y-134993006D01*
X300895089Y-134326339D02*
X300895089Y-134993006D01*
X301133185Y-133945387D02*
X301371280Y-134659673D01*
X300752232Y-134659673D01*
X300037946Y-134469196D02*
X299895089Y-134516815D01*
X299847470Y-134564435D01*
X299799851Y-134659673D01*
X299799851Y-134802530D01*
X299847470Y-134897768D01*
X299895089Y-134945387D01*
X299990327Y-134993006D01*
X300371280Y-134993006D01*
X300371280Y-133993006D01*
X300037946Y-133993006D01*
X299942708Y-134040625D01*
X299895089Y-134088244D01*
X299847470Y-134183482D01*
X299847470Y-134278720D01*
X299895089Y-134373958D01*
X299942708Y-134421577D01*
X300037946Y-134469196D01*
X300371280Y-134469196D01*
X298847470Y-134993006D02*
X299418899Y-134993006D01*
X299133185Y-134993006D02*
X299133185Y-133993006D01*
X299228423Y-134135863D01*
X299323661Y-134231101D01*
X299418899Y-134278720D01*
X132278720Y-58793006D02*
X132278720Y-57793006D01*
X132040625Y-57793006D01*
X131897767Y-57840625D01*
X131802529Y-57935863D01*
X131754910Y-58031101D01*
X131707291Y-58221577D01*
X131707291Y-58364435D01*
X131754910Y-58554911D01*
X131802529Y-58650149D01*
X131897767Y-58745387D01*
X132040625Y-58793006D01*
X132278720Y-58793006D01*
X130802529Y-57793006D02*
X131278720Y-57793006D01*
X131326339Y-58269196D01*
X131278720Y-58221577D01*
X131183482Y-58173958D01*
X130945386Y-58173958D01*
X130850148Y-58221577D01*
X130802529Y-58269196D01*
X130754910Y-58364435D01*
X130754910Y-58602530D01*
X130802529Y-58697768D01*
X130850148Y-58745387D01*
X130945386Y-58793006D01*
X131183482Y-58793006D01*
X131278720Y-58745387D01*
X131326339Y-58697768D01*
X151328720Y-58793006D02*
X151328720Y-57793006D01*
X151090625Y-57793006D01*
X150947767Y-57840625D01*
X150852529Y-57935863D01*
X150804910Y-58031101D01*
X150757291Y-58221577D01*
X150757291Y-58364435D01*
X150804910Y-58554911D01*
X150852529Y-58650149D01*
X150947767Y-58745387D01*
X151090625Y-58793006D01*
X151328720Y-58793006D01*
X149900148Y-57793006D02*
X150090625Y-57793006D01*
X150185863Y-57840625D01*
X150233482Y-57888244D01*
X150328720Y-58031101D01*
X150376339Y-58221577D01*
X150376339Y-58602530D01*
X150328720Y-58697768D01*
X150281101Y-58745387D01*
X150185863Y-58793006D01*
X149995386Y-58793006D01*
X149900148Y-58745387D01*
X149852529Y-58697768D01*
X149804910Y-58602530D01*
X149804910Y-58364435D01*
X149852529Y-58269196D01*
X149900148Y-58221577D01*
X149995386Y-58173958D01*
X150185863Y-58173958D01*
X150281101Y-58221577D01*
X150328720Y-58269196D01*
X150376339Y-58364435D01*
X170378720Y-58793006D02*
X170378720Y-57793006D01*
X170140625Y-57793006D01*
X169997767Y-57840625D01*
X169902529Y-57935863D01*
X169854910Y-58031101D01*
X169807291Y-58221577D01*
X169807291Y-58364435D01*
X169854910Y-58554911D01*
X169902529Y-58650149D01*
X169997767Y-58745387D01*
X170140625Y-58793006D01*
X170378720Y-58793006D01*
X169473958Y-57793006D02*
X168807291Y-57793006D01*
X169235863Y-58793006D01*
X189313095Y-58793006D02*
X189313095Y-57793006D01*
X189075000Y-57793006D01*
X188932142Y-57840625D01*
X188836904Y-57935863D01*
X188789285Y-58031101D01*
X188741666Y-58221577D01*
X188741666Y-58364435D01*
X188789285Y-58554911D01*
X188836904Y-58650149D01*
X188932142Y-58745387D01*
X189075000Y-58793006D01*
X189313095Y-58793006D01*
X188170238Y-58221577D02*
X188265476Y-58173958D01*
X188313095Y-58126339D01*
X188360714Y-58031101D01*
X188360714Y-57983482D01*
X188313095Y-57888244D01*
X188265476Y-57840625D01*
X188170238Y-57793006D01*
X187979761Y-57793006D01*
X187884523Y-57840625D01*
X187836904Y-57888244D01*
X187789285Y-57983482D01*
X187789285Y-58031101D01*
X187836904Y-58126339D01*
X187884523Y-58173958D01*
X187979761Y-58221577D01*
X188170238Y-58221577D01*
X188265476Y-58269196D01*
X188313095Y-58316815D01*
X188360714Y-58412054D01*
X188360714Y-58602530D01*
X188313095Y-58697768D01*
X188265476Y-58745387D01*
X188170238Y-58793006D01*
X187979761Y-58793006D01*
X187884523Y-58745387D01*
X187836904Y-58697768D01*
X187789285Y-58602530D01*
X187789285Y-58412054D01*
X187836904Y-58316815D01*
X187884523Y-58269196D01*
X187979761Y-58221577D01*
X208478720Y-58793006D02*
X208478720Y-57793006D01*
X208240625Y-57793006D01*
X208097767Y-57840625D01*
X208002529Y-57935863D01*
X207954910Y-58031101D01*
X207907291Y-58221577D01*
X207907291Y-58364435D01*
X207954910Y-58554911D01*
X208002529Y-58650149D01*
X208097767Y-58745387D01*
X208240625Y-58793006D01*
X208478720Y-58793006D01*
X207431101Y-58793006D02*
X207240625Y-58793006D01*
X207145386Y-58745387D01*
X207097767Y-58697768D01*
X207002529Y-58554911D01*
X206954910Y-58364435D01*
X206954910Y-57983482D01*
X207002529Y-57888244D01*
X207050148Y-57840625D01*
X207145386Y-57793006D01*
X207335863Y-57793006D01*
X207431101Y-57840625D01*
X207478720Y-57888244D01*
X207526339Y-57983482D01*
X207526339Y-58221577D01*
X207478720Y-58316815D01*
X207431101Y-58364435D01*
X207335863Y-58412054D01*
X207145386Y-58412054D01*
X207050148Y-58364435D01*
X207002529Y-58316815D01*
X206954910Y-58221577D01*
X42267411Y-77843006D02*
X42267411Y-76843006D01*
X42029316Y-76843006D01*
X41886458Y-76890625D01*
X41791220Y-76985863D01*
X41743601Y-77081101D01*
X41695982Y-77271577D01*
X41695982Y-77414435D01*
X41743601Y-77604911D01*
X41791220Y-77700149D01*
X41886458Y-77795387D01*
X42029316Y-77843006D01*
X42267411Y-77843006D01*
X40743601Y-77843006D02*
X41315030Y-77843006D01*
X41029316Y-77843006D02*
X41029316Y-76843006D01*
X41124554Y-76985863D01*
X41219792Y-77081101D01*
X41315030Y-77128720D01*
X40124554Y-76843006D02*
X40029315Y-76843006D01*
X39934077Y-76890625D01*
X39886458Y-76938244D01*
X39838839Y-77033482D01*
X39791220Y-77223958D01*
X39791220Y-77462054D01*
X39838839Y-77652530D01*
X39886458Y-77747768D01*
X39934077Y-77795387D01*
X40029315Y-77843006D01*
X40124554Y-77843006D01*
X40219792Y-77795387D01*
X40267411Y-77747768D01*
X40315030Y-77652530D01*
X40362649Y-77462054D01*
X40362649Y-77223958D01*
X40315030Y-77033482D01*
X40267411Y-76938244D01*
X40219792Y-76890625D01*
X40124554Y-76843006D01*
X65939286Y-77843006D02*
X65939286Y-76843006D01*
X65701191Y-76843006D01*
X65558333Y-76890625D01*
X65463095Y-76985863D01*
X65415476Y-77081101D01*
X65367857Y-77271577D01*
X65367857Y-77414435D01*
X65415476Y-77604911D01*
X65463095Y-77700149D01*
X65558333Y-77795387D01*
X65701191Y-77843006D01*
X65939286Y-77843006D01*
X64415476Y-77843006D02*
X64986905Y-77843006D01*
X64701191Y-77843006D02*
X64701191Y-76843006D01*
X64796429Y-76985863D01*
X64891667Y-77081101D01*
X64986905Y-77128720D01*
X63463095Y-77843006D02*
X64034524Y-77843006D01*
X63748810Y-77843006D02*
X63748810Y-76843006D01*
X63844048Y-76985863D01*
X63939286Y-77081101D01*
X64034524Y-77128720D01*
X85129911Y-77843006D02*
X85129911Y-76843006D01*
X84891816Y-76843006D01*
X84748958Y-76890625D01*
X84653720Y-76985863D01*
X84606101Y-77081101D01*
X84558482Y-77271577D01*
X84558482Y-77414435D01*
X84606101Y-77604911D01*
X84653720Y-77700149D01*
X84748958Y-77795387D01*
X84891816Y-77843006D01*
X85129911Y-77843006D01*
X83606101Y-77843006D02*
X84177530Y-77843006D01*
X83891816Y-77843006D02*
X83891816Y-76843006D01*
X83987054Y-76985863D01*
X84082292Y-77081101D01*
X84177530Y-77128720D01*
X83225149Y-76938244D02*
X83177530Y-76890625D01*
X83082292Y-76843006D01*
X82844196Y-76843006D01*
X82748958Y-76890625D01*
X82701339Y-76938244D01*
X82653720Y-77033482D01*
X82653720Y-77128720D01*
X82701339Y-77271577D01*
X83272768Y-77843006D01*
X82653720Y-77843006D01*
X104179911Y-77843006D02*
X104179911Y-76843006D01*
X103941816Y-76843006D01*
X103798958Y-76890625D01*
X103703720Y-76985863D01*
X103656101Y-77081101D01*
X103608482Y-77271577D01*
X103608482Y-77414435D01*
X103656101Y-77604911D01*
X103703720Y-77700149D01*
X103798958Y-77795387D01*
X103941816Y-77843006D01*
X104179911Y-77843006D01*
X102656101Y-77843006D02*
X103227530Y-77843006D01*
X102941816Y-77843006D02*
X102941816Y-76843006D01*
X103037054Y-76985863D01*
X103132292Y-77081101D01*
X103227530Y-77128720D01*
X102322768Y-76843006D02*
X101703720Y-76843006D01*
X102037054Y-77223958D01*
X101894196Y-77223958D01*
X101798958Y-77271577D01*
X101751339Y-77319196D01*
X101703720Y-77414435D01*
X101703720Y-77652530D01*
X101751339Y-77747768D01*
X101798958Y-77795387D01*
X101894196Y-77843006D01*
X102179911Y-77843006D01*
X102275149Y-77795387D01*
X102322768Y-77747768D01*
X123229911Y-77843006D02*
X123229911Y-76843006D01*
X122991816Y-76843006D01*
X122848958Y-76890625D01*
X122753720Y-76985863D01*
X122706101Y-77081101D01*
X122658482Y-77271577D01*
X122658482Y-77414435D01*
X122706101Y-77604911D01*
X122753720Y-77700149D01*
X122848958Y-77795387D01*
X122991816Y-77843006D01*
X123229911Y-77843006D01*
X121706101Y-77843006D02*
X122277530Y-77843006D01*
X121991816Y-77843006D02*
X121991816Y-76843006D01*
X122087054Y-76985863D01*
X122182292Y-77081101D01*
X122277530Y-77128720D01*
X120848958Y-77176339D02*
X120848958Y-77843006D01*
X121087054Y-76795387D02*
X121325149Y-77509673D01*
X120706101Y-77509673D01*
X142279911Y-77843006D02*
X142279911Y-76843006D01*
X142041816Y-76843006D01*
X141898958Y-76890625D01*
X141803720Y-76985863D01*
X141756101Y-77081101D01*
X141708482Y-77271577D01*
X141708482Y-77414435D01*
X141756101Y-77604911D01*
X141803720Y-77700149D01*
X141898958Y-77795387D01*
X142041816Y-77843006D01*
X142279911Y-77843006D01*
X140756101Y-77843006D02*
X141327530Y-77843006D01*
X141041816Y-77843006D02*
X141041816Y-76843006D01*
X141137054Y-76985863D01*
X141232292Y-77081101D01*
X141327530Y-77128720D01*
X139851339Y-76843006D02*
X140327530Y-76843006D01*
X140375149Y-77319196D01*
X140327530Y-77271577D01*
X140232292Y-77223958D01*
X139994196Y-77223958D01*
X139898958Y-77271577D01*
X139851339Y-77319196D01*
X139803720Y-77414435D01*
X139803720Y-77652530D01*
X139851339Y-77747768D01*
X139898958Y-77795387D01*
X139994196Y-77843006D01*
X140232292Y-77843006D01*
X140327530Y-77795387D01*
X140375149Y-77747768D01*
X161329911Y-77843006D02*
X161329911Y-76843006D01*
X161091816Y-76843006D01*
X160948958Y-76890625D01*
X160853720Y-76985863D01*
X160806101Y-77081101D01*
X160758482Y-77271577D01*
X160758482Y-77414435D01*
X160806101Y-77604911D01*
X160853720Y-77700149D01*
X160948958Y-77795387D01*
X161091816Y-77843006D01*
X161329911Y-77843006D01*
X159806101Y-77843006D02*
X160377530Y-77843006D01*
X160091816Y-77843006D02*
X160091816Y-76843006D01*
X160187054Y-76985863D01*
X160282292Y-77081101D01*
X160377530Y-77128720D01*
X158948958Y-76843006D02*
X159139435Y-76843006D01*
X159234673Y-76890625D01*
X159282292Y-76938244D01*
X159377530Y-77081101D01*
X159425149Y-77271577D01*
X159425149Y-77652530D01*
X159377530Y-77747768D01*
X159329911Y-77795387D01*
X159234673Y-77843006D01*
X159044196Y-77843006D01*
X158948958Y-77795387D01*
X158901339Y-77747768D01*
X158853720Y-77652530D01*
X158853720Y-77414435D01*
X158901339Y-77319196D01*
X158948958Y-77271577D01*
X159044196Y-77223958D01*
X159234673Y-77223958D01*
X159329911Y-77271577D01*
X159377530Y-77319196D01*
X159425149Y-77414435D01*
X180379911Y-77843006D02*
X180379911Y-76843006D01*
X180141816Y-76843006D01*
X179998958Y-76890625D01*
X179903720Y-76985863D01*
X179856101Y-77081101D01*
X179808482Y-77271577D01*
X179808482Y-77414435D01*
X179856101Y-77604911D01*
X179903720Y-77700149D01*
X179998958Y-77795387D01*
X180141816Y-77843006D01*
X180379911Y-77843006D01*
X178856101Y-77843006D02*
X179427530Y-77843006D01*
X179141816Y-77843006D02*
X179141816Y-76843006D01*
X179237054Y-76985863D01*
X179332292Y-77081101D01*
X179427530Y-77128720D01*
X178522768Y-76843006D02*
X177856101Y-76843006D01*
X178284673Y-77843006D01*
X199429911Y-77843006D02*
X199429911Y-76843006D01*
X199191816Y-76843006D01*
X199048958Y-76890625D01*
X198953720Y-76985863D01*
X198906101Y-77081101D01*
X198858482Y-77271577D01*
X198858482Y-77414435D01*
X198906101Y-77604911D01*
X198953720Y-77700149D01*
X199048958Y-77795387D01*
X199191816Y-77843006D01*
X199429911Y-77843006D01*
X197906101Y-77843006D02*
X198477530Y-77843006D01*
X198191816Y-77843006D02*
X198191816Y-76843006D01*
X198287054Y-76985863D01*
X198382292Y-77081101D01*
X198477530Y-77128720D01*
X197334673Y-77271577D02*
X197429911Y-77223958D01*
X197477530Y-77176339D01*
X197525149Y-77081101D01*
X197525149Y-77033482D01*
X197477530Y-76938244D01*
X197429911Y-76890625D01*
X197334673Y-76843006D01*
X197144196Y-76843006D01*
X197048958Y-76890625D01*
X197001339Y-76938244D01*
X196953720Y-77033482D01*
X196953720Y-77081101D01*
X197001339Y-77176339D01*
X197048958Y-77223958D01*
X197144196Y-77271577D01*
X197334673Y-77271577D01*
X197429911Y-77319196D01*
X197477530Y-77366815D01*
X197525149Y-77462054D01*
X197525149Y-77652530D01*
X197477530Y-77747768D01*
X197429911Y-77795387D01*
X197334673Y-77843006D01*
X197144196Y-77843006D01*
X197048958Y-77795387D01*
X197001339Y-77747768D01*
X196953720Y-77652530D01*
X196953720Y-77462054D01*
X197001339Y-77366815D01*
X197048958Y-77319196D01*
X197144196Y-77271577D01*
X218479911Y-77843006D02*
X218479911Y-76843006D01*
X218241816Y-76843006D01*
X218098958Y-76890625D01*
X218003720Y-76985863D01*
X217956101Y-77081101D01*
X217908482Y-77271577D01*
X217908482Y-77414435D01*
X217956101Y-77604911D01*
X218003720Y-77700149D01*
X218098958Y-77795387D01*
X218241816Y-77843006D01*
X218479911Y-77843006D01*
X216956101Y-77843006D02*
X217527530Y-77843006D01*
X217241816Y-77843006D02*
X217241816Y-76843006D01*
X217337054Y-76985863D01*
X217432292Y-77081101D01*
X217527530Y-77128720D01*
X216479911Y-77843006D02*
X216289435Y-77843006D01*
X216194196Y-77795387D01*
X216146577Y-77747768D01*
X216051339Y-77604911D01*
X216003720Y-77414435D01*
X216003720Y-77033482D01*
X216051339Y-76938244D01*
X216098958Y-76890625D01*
X216194196Y-76843006D01*
X216384673Y-76843006D01*
X216479911Y-76890625D01*
X216527530Y-76938244D01*
X216575149Y-77033482D01*
X216575149Y-77271577D01*
X216527530Y-77366815D01*
X216479911Y-77414435D01*
X216384673Y-77462054D01*
X216194196Y-77462054D01*
X216098958Y-77414435D01*
X216051339Y-77366815D01*
X216003720Y-77271577D01*
X44648661Y-96893006D02*
X44648661Y-95893006D01*
X44410566Y-95893006D01*
X44267708Y-95940625D01*
X44172470Y-96035863D01*
X44124851Y-96131101D01*
X44077232Y-96321577D01*
X44077232Y-96464435D01*
X44124851Y-96654911D01*
X44172470Y-96750149D01*
X44267708Y-96845387D01*
X44410566Y-96893006D01*
X44648661Y-96893006D01*
X43696280Y-95988244D02*
X43648661Y-95940625D01*
X43553423Y-95893006D01*
X43315327Y-95893006D01*
X43220089Y-95940625D01*
X43172470Y-95988244D01*
X43124851Y-96083482D01*
X43124851Y-96178720D01*
X43172470Y-96321577D01*
X43743899Y-96893006D01*
X43124851Y-96893006D01*
X42505804Y-95893006D02*
X42410565Y-95893006D01*
X42315327Y-95940625D01*
X42267708Y-95988244D01*
X42220089Y-96083482D01*
X42172470Y-96273958D01*
X42172470Y-96512054D01*
X42220089Y-96702530D01*
X42267708Y-96797768D01*
X42315327Y-96845387D01*
X42410565Y-96893006D01*
X42505804Y-96893006D01*
X42601042Y-96845387D01*
X42648661Y-96797768D01*
X42696280Y-96702530D01*
X42743899Y-96512054D01*
X42743899Y-96273958D01*
X42696280Y-96083482D01*
X42648661Y-95988244D01*
X42601042Y-95940625D01*
X42505804Y-95893006D01*
X70842411Y-96893006D02*
X70842411Y-95893006D01*
X70604316Y-95893006D01*
X70461458Y-95940625D01*
X70366220Y-96035863D01*
X70318601Y-96131101D01*
X70270982Y-96321577D01*
X70270982Y-96464435D01*
X70318601Y-96654911D01*
X70366220Y-96750149D01*
X70461458Y-96845387D01*
X70604316Y-96893006D01*
X70842411Y-96893006D01*
X69890030Y-95988244D02*
X69842411Y-95940625D01*
X69747173Y-95893006D01*
X69509077Y-95893006D01*
X69413839Y-95940625D01*
X69366220Y-95988244D01*
X69318601Y-96083482D01*
X69318601Y-96178720D01*
X69366220Y-96321577D01*
X69937649Y-96893006D01*
X69318601Y-96893006D01*
X68366220Y-96893006D02*
X68937649Y-96893006D01*
X68651935Y-96893006D02*
X68651935Y-95893006D01*
X68747173Y-96035863D01*
X68842411Y-96131101D01*
X68937649Y-96178720D01*
X89892411Y-96893006D02*
X89892411Y-95893006D01*
X89654316Y-95893006D01*
X89511458Y-95940625D01*
X89416220Y-96035863D01*
X89368601Y-96131101D01*
X89320982Y-96321577D01*
X89320982Y-96464435D01*
X89368601Y-96654911D01*
X89416220Y-96750149D01*
X89511458Y-96845387D01*
X89654316Y-96893006D01*
X89892411Y-96893006D01*
X88940030Y-95988244D02*
X88892411Y-95940625D01*
X88797173Y-95893006D01*
X88559077Y-95893006D01*
X88463839Y-95940625D01*
X88416220Y-95988244D01*
X88368601Y-96083482D01*
X88368601Y-96178720D01*
X88416220Y-96321577D01*
X88987649Y-96893006D01*
X88368601Y-96893006D01*
X87987649Y-95988244D02*
X87940030Y-95940625D01*
X87844792Y-95893006D01*
X87606696Y-95893006D01*
X87511458Y-95940625D01*
X87463839Y-95988244D01*
X87416220Y-96083482D01*
X87416220Y-96178720D01*
X87463839Y-96321577D01*
X88035268Y-96893006D01*
X87416220Y-96893006D01*
X108942411Y-96893006D02*
X108942411Y-95893006D01*
X108704316Y-95893006D01*
X108561458Y-95940625D01*
X108466220Y-96035863D01*
X108418601Y-96131101D01*
X108370982Y-96321577D01*
X108370982Y-96464435D01*
X108418601Y-96654911D01*
X108466220Y-96750149D01*
X108561458Y-96845387D01*
X108704316Y-96893006D01*
X108942411Y-96893006D01*
X107990030Y-95988244D02*
X107942411Y-95940625D01*
X107847173Y-95893006D01*
X107609077Y-95893006D01*
X107513839Y-95940625D01*
X107466220Y-95988244D01*
X107418601Y-96083482D01*
X107418601Y-96178720D01*
X107466220Y-96321577D01*
X108037649Y-96893006D01*
X107418601Y-96893006D01*
X107085268Y-95893006D02*
X106466220Y-95893006D01*
X106799554Y-96273958D01*
X106656696Y-96273958D01*
X106561458Y-96321577D01*
X106513839Y-96369196D01*
X106466220Y-96464435D01*
X106466220Y-96702530D01*
X106513839Y-96797768D01*
X106561458Y-96845387D01*
X106656696Y-96893006D01*
X106942411Y-96893006D01*
X107037649Y-96845387D01*
X107085268Y-96797768D01*
X127992411Y-96893006D02*
X127992411Y-95893006D01*
X127754316Y-95893006D01*
X127611458Y-95940625D01*
X127516220Y-96035863D01*
X127468601Y-96131101D01*
X127420982Y-96321577D01*
X127420982Y-96464435D01*
X127468601Y-96654911D01*
X127516220Y-96750149D01*
X127611458Y-96845387D01*
X127754316Y-96893006D01*
X127992411Y-96893006D01*
X127040030Y-95988244D02*
X126992411Y-95940625D01*
X126897173Y-95893006D01*
X126659077Y-95893006D01*
X126563839Y-95940625D01*
X126516220Y-95988244D01*
X126468601Y-96083482D01*
X126468601Y-96178720D01*
X126516220Y-96321577D01*
X127087649Y-96893006D01*
X126468601Y-96893006D01*
X125611458Y-96226339D02*
X125611458Y-96893006D01*
X125849554Y-95845387D02*
X126087649Y-96559673D01*
X125468601Y-96559673D01*
X147042411Y-96893006D02*
X147042411Y-95893006D01*
X146804316Y-95893006D01*
X146661458Y-95940625D01*
X146566220Y-96035863D01*
X146518601Y-96131101D01*
X146470982Y-96321577D01*
X146470982Y-96464435D01*
X146518601Y-96654911D01*
X146566220Y-96750149D01*
X146661458Y-96845387D01*
X146804316Y-96893006D01*
X147042411Y-96893006D01*
X146090030Y-95988244D02*
X146042411Y-95940625D01*
X145947173Y-95893006D01*
X145709077Y-95893006D01*
X145613839Y-95940625D01*
X145566220Y-95988244D01*
X145518601Y-96083482D01*
X145518601Y-96178720D01*
X145566220Y-96321577D01*
X146137649Y-96893006D01*
X145518601Y-96893006D01*
X144613839Y-95893006D02*
X145090030Y-95893006D01*
X145137649Y-96369196D01*
X145090030Y-96321577D01*
X144994792Y-96273958D01*
X144756696Y-96273958D01*
X144661458Y-96321577D01*
X144613839Y-96369196D01*
X144566220Y-96464435D01*
X144566220Y-96702530D01*
X144613839Y-96797768D01*
X144661458Y-96845387D01*
X144756696Y-96893006D01*
X144994792Y-96893006D01*
X145090030Y-96845387D01*
X145137649Y-96797768D01*
X166092411Y-96893006D02*
X166092411Y-95893006D01*
X165854316Y-95893006D01*
X165711458Y-95940625D01*
X165616220Y-96035863D01*
X165568601Y-96131101D01*
X165520982Y-96321577D01*
X165520982Y-96464435D01*
X165568601Y-96654911D01*
X165616220Y-96750149D01*
X165711458Y-96845387D01*
X165854316Y-96893006D01*
X166092411Y-96893006D01*
X165140030Y-95988244D02*
X165092411Y-95940625D01*
X164997173Y-95893006D01*
X164759077Y-95893006D01*
X164663839Y-95940625D01*
X164616220Y-95988244D01*
X164568601Y-96083482D01*
X164568601Y-96178720D01*
X164616220Y-96321577D01*
X165187649Y-96893006D01*
X164568601Y-96893006D01*
X163711458Y-95893006D02*
X163901935Y-95893006D01*
X163997173Y-95940625D01*
X164044792Y-95988244D01*
X164140030Y-96131101D01*
X164187649Y-96321577D01*
X164187649Y-96702530D01*
X164140030Y-96797768D01*
X164092411Y-96845387D01*
X163997173Y-96893006D01*
X163806696Y-96893006D01*
X163711458Y-96845387D01*
X163663839Y-96797768D01*
X163616220Y-96702530D01*
X163616220Y-96464435D01*
X163663839Y-96369196D01*
X163711458Y-96321577D01*
X163806696Y-96273958D01*
X163997173Y-96273958D01*
X164092411Y-96321577D01*
X164140030Y-96369196D01*
X164187649Y-96464435D01*
X185142411Y-95702381D02*
X185142411Y-94702381D01*
X184904316Y-94702381D01*
X184761458Y-94750000D01*
X184666220Y-94845238D01*
X184618601Y-94940476D01*
X184570982Y-95130952D01*
X184570982Y-95273810D01*
X184618601Y-95464286D01*
X184666220Y-95559524D01*
X184761458Y-95654762D01*
X184904316Y-95702381D01*
X185142411Y-95702381D01*
X184190030Y-94797619D02*
X184142411Y-94750000D01*
X184047173Y-94702381D01*
X183809077Y-94702381D01*
X183713839Y-94750000D01*
X183666220Y-94797619D01*
X183618601Y-94892857D01*
X183618601Y-94988095D01*
X183666220Y-95130952D01*
X184237649Y-95702381D01*
X183618601Y-95702381D01*
X183285268Y-94702381D02*
X182618601Y-94702381D01*
X183047173Y-95702381D01*
X204192411Y-96893006D02*
X204192411Y-95893006D01*
X203954316Y-95893006D01*
X203811458Y-95940625D01*
X203716220Y-96035863D01*
X203668601Y-96131101D01*
X203620982Y-96321577D01*
X203620982Y-96464435D01*
X203668601Y-96654911D01*
X203716220Y-96750149D01*
X203811458Y-96845387D01*
X203954316Y-96893006D01*
X204192411Y-96893006D01*
X203240030Y-95988244D02*
X203192411Y-95940625D01*
X203097173Y-95893006D01*
X202859077Y-95893006D01*
X202763839Y-95940625D01*
X202716220Y-95988244D01*
X202668601Y-96083482D01*
X202668601Y-96178720D01*
X202716220Y-96321577D01*
X203287649Y-96893006D01*
X202668601Y-96893006D01*
X202097173Y-96321577D02*
X202192411Y-96273958D01*
X202240030Y-96226339D01*
X202287649Y-96131101D01*
X202287649Y-96083482D01*
X202240030Y-95988244D01*
X202192411Y-95940625D01*
X202097173Y-95893006D01*
X201906696Y-95893006D01*
X201811458Y-95940625D01*
X201763839Y-95988244D01*
X201716220Y-96083482D01*
X201716220Y-96131101D01*
X201763839Y-96226339D01*
X201811458Y-96273958D01*
X201906696Y-96321577D01*
X202097173Y-96321577D01*
X202192411Y-96369196D01*
X202240030Y-96416815D01*
X202287649Y-96512054D01*
X202287649Y-96702530D01*
X202240030Y-96797768D01*
X202192411Y-96845387D01*
X202097173Y-96893006D01*
X201906696Y-96893006D01*
X201811458Y-96845387D01*
X201763839Y-96797768D01*
X201716220Y-96702530D01*
X201716220Y-96512054D01*
X201763839Y-96416815D01*
X201811458Y-96369196D01*
X201906696Y-96321577D01*
X223242411Y-96893006D02*
X223242411Y-95893006D01*
X223004316Y-95893006D01*
X222861458Y-95940625D01*
X222766220Y-96035863D01*
X222718601Y-96131101D01*
X222670982Y-96321577D01*
X222670982Y-96464435D01*
X222718601Y-96654911D01*
X222766220Y-96750149D01*
X222861458Y-96845387D01*
X223004316Y-96893006D01*
X223242411Y-96893006D01*
X222290030Y-95988244D02*
X222242411Y-95940625D01*
X222147173Y-95893006D01*
X221909077Y-95893006D01*
X221813839Y-95940625D01*
X221766220Y-95988244D01*
X221718601Y-96083482D01*
X221718601Y-96178720D01*
X221766220Y-96321577D01*
X222337649Y-96893006D01*
X221718601Y-96893006D01*
X221242411Y-96893006D02*
X221051935Y-96893006D01*
X220956696Y-96845387D01*
X220909077Y-96797768D01*
X220813839Y-96654911D01*
X220766220Y-96464435D01*
X220766220Y-96083482D01*
X220813839Y-95988244D01*
X220861458Y-95940625D01*
X220956696Y-95893006D01*
X221147173Y-95893006D01*
X221242411Y-95940625D01*
X221290030Y-95988244D01*
X221337649Y-96083482D01*
X221337649Y-96321577D01*
X221290030Y-96416815D01*
X221242411Y-96464435D01*
X221147173Y-96512054D01*
X220956696Y-96512054D01*
X220861458Y-96464435D01*
X220813839Y-96416815D01*
X220766220Y-96321577D01*
X49411161Y-115943006D02*
X49411161Y-114943006D01*
X49173066Y-114943006D01*
X49030208Y-114990625D01*
X48934970Y-115085863D01*
X48887351Y-115181101D01*
X48839732Y-115371577D01*
X48839732Y-115514435D01*
X48887351Y-115704911D01*
X48934970Y-115800149D01*
X49030208Y-115895387D01*
X49173066Y-115943006D01*
X49411161Y-115943006D01*
X48506399Y-114943006D02*
X47887351Y-114943006D01*
X48220685Y-115323958D01*
X48077827Y-115323958D01*
X47982589Y-115371577D01*
X47934970Y-115419196D01*
X47887351Y-115514435D01*
X47887351Y-115752530D01*
X47934970Y-115847768D01*
X47982589Y-115895387D01*
X48077827Y-115943006D01*
X48363542Y-115943006D01*
X48458780Y-115895387D01*
X48506399Y-115847768D01*
X47268304Y-114943006D02*
X47173065Y-114943006D01*
X47077827Y-114990625D01*
X47030208Y-115038244D01*
X46982589Y-115133482D01*
X46934970Y-115323958D01*
X46934970Y-115562054D01*
X46982589Y-115752530D01*
X47030208Y-115847768D01*
X47077827Y-115895387D01*
X47173065Y-115943006D01*
X47268304Y-115943006D01*
X47363542Y-115895387D01*
X47411161Y-115847768D01*
X47458780Y-115752530D01*
X47506399Y-115562054D01*
X47506399Y-115323958D01*
X47458780Y-115133482D01*
X47411161Y-115038244D01*
X47363542Y-114990625D01*
X47268304Y-114943006D01*
X137517411Y-115943006D02*
X137517411Y-114943006D01*
X137279316Y-114943006D01*
X137136458Y-114990625D01*
X137041220Y-115085863D01*
X136993601Y-115181101D01*
X136945982Y-115371577D01*
X136945982Y-115514435D01*
X136993601Y-115704911D01*
X137041220Y-115800149D01*
X137136458Y-115895387D01*
X137279316Y-115943006D01*
X137517411Y-115943006D01*
X136612649Y-114943006D02*
X135993601Y-114943006D01*
X136326935Y-115323958D01*
X136184077Y-115323958D01*
X136088839Y-115371577D01*
X136041220Y-115419196D01*
X135993601Y-115514435D01*
X135993601Y-115752530D01*
X136041220Y-115847768D01*
X136088839Y-115895387D01*
X136184077Y-115943006D01*
X136469792Y-115943006D01*
X136565030Y-115895387D01*
X136612649Y-115847768D01*
X135136458Y-115276339D02*
X135136458Y-115943006D01*
X135374554Y-114895387D02*
X135612649Y-115609673D01*
X134993601Y-115609673D01*
X156567411Y-115943006D02*
X156567411Y-114943006D01*
X156329316Y-114943006D01*
X156186458Y-114990625D01*
X156091220Y-115085863D01*
X156043601Y-115181101D01*
X155995982Y-115371577D01*
X155995982Y-115514435D01*
X156043601Y-115704911D01*
X156091220Y-115800149D01*
X156186458Y-115895387D01*
X156329316Y-115943006D01*
X156567411Y-115943006D01*
X155662649Y-114943006D02*
X155043601Y-114943006D01*
X155376935Y-115323958D01*
X155234077Y-115323958D01*
X155138839Y-115371577D01*
X155091220Y-115419196D01*
X155043601Y-115514435D01*
X155043601Y-115752530D01*
X155091220Y-115847768D01*
X155138839Y-115895387D01*
X155234077Y-115943006D01*
X155519792Y-115943006D01*
X155615030Y-115895387D01*
X155662649Y-115847768D01*
X154138839Y-114943006D02*
X154615030Y-114943006D01*
X154662649Y-115419196D01*
X154615030Y-115371577D01*
X154519792Y-115323958D01*
X154281696Y-115323958D01*
X154186458Y-115371577D01*
X154138839Y-115419196D01*
X154091220Y-115514435D01*
X154091220Y-115752530D01*
X154138839Y-115847768D01*
X154186458Y-115895387D01*
X154281696Y-115943006D01*
X154519792Y-115943006D01*
X154615030Y-115895387D01*
X154662649Y-115847768D01*
X175617411Y-115943006D02*
X175617411Y-114943006D01*
X175379316Y-114943006D01*
X175236458Y-114990625D01*
X175141220Y-115085863D01*
X175093601Y-115181101D01*
X175045982Y-115371577D01*
X175045982Y-115514435D01*
X175093601Y-115704911D01*
X175141220Y-115800149D01*
X175236458Y-115895387D01*
X175379316Y-115943006D01*
X175617411Y-115943006D01*
X174712649Y-114943006D02*
X174093601Y-114943006D01*
X174426935Y-115323958D01*
X174284077Y-115323958D01*
X174188839Y-115371577D01*
X174141220Y-115419196D01*
X174093601Y-115514435D01*
X174093601Y-115752530D01*
X174141220Y-115847768D01*
X174188839Y-115895387D01*
X174284077Y-115943006D01*
X174569792Y-115943006D01*
X174665030Y-115895387D01*
X174712649Y-115847768D01*
X173236458Y-114943006D02*
X173426935Y-114943006D01*
X173522173Y-114990625D01*
X173569792Y-115038244D01*
X173665030Y-115181101D01*
X173712649Y-115371577D01*
X173712649Y-115752530D01*
X173665030Y-115847768D01*
X173617411Y-115895387D01*
X173522173Y-115943006D01*
X173331696Y-115943006D01*
X173236458Y-115895387D01*
X173188839Y-115847768D01*
X173141220Y-115752530D01*
X173141220Y-115514435D01*
X173188839Y-115419196D01*
X173236458Y-115371577D01*
X173331696Y-115323958D01*
X173522173Y-115323958D01*
X173617411Y-115371577D01*
X173665030Y-115419196D01*
X173712649Y-115514435D01*
X194667411Y-115943006D02*
X194667411Y-114943006D01*
X194429316Y-114943006D01*
X194286458Y-114990625D01*
X194191220Y-115085863D01*
X194143601Y-115181101D01*
X194095982Y-115371577D01*
X194095982Y-115514435D01*
X194143601Y-115704911D01*
X194191220Y-115800149D01*
X194286458Y-115895387D01*
X194429316Y-115943006D01*
X194667411Y-115943006D01*
X193762649Y-114943006D02*
X193143601Y-114943006D01*
X193476935Y-115323958D01*
X193334077Y-115323958D01*
X193238839Y-115371577D01*
X193191220Y-115419196D01*
X193143601Y-115514435D01*
X193143601Y-115752530D01*
X193191220Y-115847768D01*
X193238839Y-115895387D01*
X193334077Y-115943006D01*
X193619792Y-115943006D01*
X193715030Y-115895387D01*
X193762649Y-115847768D01*
X192810268Y-114943006D02*
X192143601Y-114943006D01*
X192572173Y-115943006D01*
X232767411Y-115943006D02*
X232767411Y-114943006D01*
X232529316Y-114943006D01*
X232386458Y-114990625D01*
X232291220Y-115085863D01*
X232243601Y-115181101D01*
X232195982Y-115371577D01*
X232195982Y-115514435D01*
X232243601Y-115704911D01*
X232291220Y-115800149D01*
X232386458Y-115895387D01*
X232529316Y-115943006D01*
X232767411Y-115943006D01*
X231862649Y-114943006D02*
X231243601Y-114943006D01*
X231576935Y-115323958D01*
X231434077Y-115323958D01*
X231338839Y-115371577D01*
X231291220Y-115419196D01*
X231243601Y-115514435D01*
X231243601Y-115752530D01*
X231291220Y-115847768D01*
X231338839Y-115895387D01*
X231434077Y-115943006D01*
X231719792Y-115943006D01*
X231815030Y-115895387D01*
X231862649Y-115847768D01*
X230767411Y-115943006D02*
X230576935Y-115943006D01*
X230481696Y-115895387D01*
X230434077Y-115847768D01*
X230338839Y-115704911D01*
X230291220Y-115514435D01*
X230291220Y-115133482D01*
X230338839Y-115038244D01*
X230386458Y-114990625D01*
X230481696Y-114943006D01*
X230672173Y-114943006D01*
X230767411Y-114990625D01*
X230815030Y-115038244D01*
X230862649Y-115133482D01*
X230862649Y-115371577D01*
X230815030Y-115466815D01*
X230767411Y-115514435D01*
X230672173Y-115562054D01*
X230481696Y-115562054D01*
X230386458Y-115514435D01*
X230338839Y-115466815D01*
X230291220Y-115371577D01*
X39886161Y-134993006D02*
X39886161Y-133993006D01*
X39648066Y-133993006D01*
X39505208Y-134040625D01*
X39409970Y-134135863D01*
X39362351Y-134231101D01*
X39314732Y-134421577D01*
X39314732Y-134564435D01*
X39362351Y-134754911D01*
X39409970Y-134850149D01*
X39505208Y-134945387D01*
X39648066Y-134993006D01*
X39886161Y-134993006D01*
X38457589Y-134326339D02*
X38457589Y-134993006D01*
X38695685Y-133945387D02*
X38933780Y-134659673D01*
X38314732Y-134659673D01*
X37743304Y-133993006D02*
X37648065Y-133993006D01*
X37552827Y-134040625D01*
X37505208Y-134088244D01*
X37457589Y-134183482D01*
X37409970Y-134373958D01*
X37409970Y-134612054D01*
X37457589Y-134802530D01*
X37505208Y-134897768D01*
X37552827Y-134945387D01*
X37648065Y-134993006D01*
X37743304Y-134993006D01*
X37838542Y-134945387D01*
X37886161Y-134897768D01*
X37933780Y-134802530D01*
X37981399Y-134612054D01*
X37981399Y-134373958D01*
X37933780Y-134183482D01*
X37886161Y-134088244D01*
X37838542Y-134040625D01*
X37743304Y-133993006D01*
X63698661Y-134993006D02*
X63698661Y-133993006D01*
X63460566Y-133993006D01*
X63317708Y-134040625D01*
X63222470Y-134135863D01*
X63174851Y-134231101D01*
X63127232Y-134421577D01*
X63127232Y-134564435D01*
X63174851Y-134754911D01*
X63222470Y-134850149D01*
X63317708Y-134945387D01*
X63460566Y-134993006D01*
X63698661Y-134993006D01*
X62270089Y-134326339D02*
X62270089Y-134993006D01*
X62508185Y-133945387D02*
X62746280Y-134659673D01*
X62127232Y-134659673D01*
X61222470Y-134993006D02*
X61793899Y-134993006D01*
X61508185Y-134993006D02*
X61508185Y-133993006D01*
X61603423Y-134135863D01*
X61698661Y-134231101D01*
X61793899Y-134278720D01*
X87511161Y-134993006D02*
X87511161Y-133993006D01*
X87273066Y-133993006D01*
X87130208Y-134040625D01*
X87034970Y-134135863D01*
X86987351Y-134231101D01*
X86939732Y-134421577D01*
X86939732Y-134564435D01*
X86987351Y-134754911D01*
X87034970Y-134850149D01*
X87130208Y-134945387D01*
X87273066Y-134993006D01*
X87511161Y-134993006D01*
X86082589Y-134326339D02*
X86082589Y-134993006D01*
X86320685Y-133945387D02*
X86558780Y-134659673D01*
X85939732Y-134659673D01*
X85606399Y-134088244D02*
X85558780Y-134040625D01*
X85463542Y-133993006D01*
X85225446Y-133993006D01*
X85130208Y-134040625D01*
X85082589Y-134088244D01*
X85034970Y-134183482D01*
X85034970Y-134278720D01*
X85082589Y-134421577D01*
X85654018Y-134993006D01*
X85034970Y-134993006D01*
X158948661Y-136183631D02*
X158948661Y-135183631D01*
X158710566Y-135183631D01*
X158567708Y-135231250D01*
X158472470Y-135326488D01*
X158424851Y-135421726D01*
X158377232Y-135612202D01*
X158377232Y-135755060D01*
X158424851Y-135945536D01*
X158472470Y-136040774D01*
X158567708Y-136136012D01*
X158710566Y-136183631D01*
X158948661Y-136183631D01*
X157520089Y-135516964D02*
X157520089Y-136183631D01*
X157758185Y-135136012D02*
X157996280Y-135850298D01*
X157377232Y-135850298D01*
X156520089Y-135183631D02*
X156996280Y-135183631D01*
X157043899Y-135659821D01*
X156996280Y-135612202D01*
X156901042Y-135564583D01*
X156662946Y-135564583D01*
X156567708Y-135612202D01*
X156520089Y-135659821D01*
X156472470Y-135755060D01*
X156472470Y-135993155D01*
X156520089Y-136088393D01*
X156567708Y-136136012D01*
X156662946Y-136183631D01*
X156901042Y-136183631D01*
X156996280Y-136136012D01*
X157043899Y-136088393D01*
X230386161Y-134993006D02*
X230386161Y-133993006D01*
X230148066Y-133993006D01*
X230005208Y-134040625D01*
X229909970Y-134135863D01*
X229862351Y-134231101D01*
X229814732Y-134421577D01*
X229814732Y-134564435D01*
X229862351Y-134754911D01*
X229909970Y-134850149D01*
X230005208Y-134945387D01*
X230148066Y-134993006D01*
X230386161Y-134993006D01*
X228957589Y-134326339D02*
X228957589Y-134993006D01*
X229195685Y-133945387D02*
X229433780Y-134659673D01*
X228814732Y-134659673D01*
X228290923Y-134421577D02*
X228386161Y-134373958D01*
X228433780Y-134326339D01*
X228481399Y-134231101D01*
X228481399Y-134183482D01*
X228433780Y-134088244D01*
X228386161Y-134040625D01*
X228290923Y-133993006D01*
X228100446Y-133993006D01*
X228005208Y-134040625D01*
X227957589Y-134088244D01*
X227909970Y-134183482D01*
X227909970Y-134231101D01*
X227957589Y-134326339D01*
X228005208Y-134373958D01*
X228100446Y-134421577D01*
X228290923Y-134421577D01*
X228386161Y-134469196D01*
X228433780Y-134516815D01*
X228481399Y-134612054D01*
X228481399Y-134802530D01*
X228433780Y-134897768D01*
X228386161Y-134945387D01*
X228290923Y-134993006D01*
X228100446Y-134993006D01*
X228005208Y-134945387D01*
X227957589Y-134897768D01*
X227909970Y-134802530D01*
X227909970Y-134612054D01*
X227957589Y-134516815D01*
X228005208Y-134469196D01*
X228100446Y-134421577D01*
X254198661Y-134993006D02*
X254198661Y-133993006D01*
X253960566Y-133993006D01*
X253817708Y-134040625D01*
X253722470Y-134135863D01*
X253674851Y-134231101D01*
X253627232Y-134421577D01*
X253627232Y-134564435D01*
X253674851Y-134754911D01*
X253722470Y-134850149D01*
X253817708Y-134945387D01*
X253960566Y-134993006D01*
X254198661Y-134993006D01*
X252770089Y-134326339D02*
X252770089Y-134993006D01*
X253008185Y-133945387D02*
X253246280Y-134659673D01*
X252627232Y-134659673D01*
X252198661Y-134993006D02*
X252008185Y-134993006D01*
X251912946Y-134945387D01*
X251865327Y-134897768D01*
X251770089Y-134754911D01*
X251722470Y-134564435D01*
X251722470Y-134183482D01*
X251770089Y-134088244D01*
X251817708Y-134040625D01*
X251912946Y-133993006D01*
X252103423Y-133993006D01*
X252198661Y-134040625D01*
X252246280Y-134088244D01*
X252293899Y-134183482D01*
X252293899Y-134421577D01*
X252246280Y-134516815D01*
X252198661Y-134564435D01*
X252103423Y-134612054D01*
X251912946Y-134612054D01*
X251817708Y-134564435D01*
X251770089Y-134516815D01*
X251722470Y-134421577D01*
X292798661Y-96893006D02*
X292798661Y-95893006D01*
X292560566Y-95893006D01*
X292417708Y-95940625D01*
X292322470Y-96035863D01*
X292274851Y-96131101D01*
X292227232Y-96321577D01*
X292227232Y-96464435D01*
X292274851Y-96654911D01*
X292322470Y-96750149D01*
X292417708Y-96845387D01*
X292560566Y-96893006D01*
X292798661Y-96893006D01*
X291846280Y-95988244D02*
X291798661Y-95940625D01*
X291703423Y-95893006D01*
X291465327Y-95893006D01*
X291370089Y-95940625D01*
X291322470Y-95988244D01*
X291274851Y-96083482D01*
X291274851Y-96178720D01*
X291322470Y-96321577D01*
X291893899Y-96893006D01*
X291274851Y-96893006D01*
X290846280Y-96893006D02*
X290846280Y-95893006D01*
X290608185Y-95893006D01*
X290465327Y-95940625D01*
X290370089Y-96035863D01*
X290322470Y-96131101D01*
X290274851Y-96321577D01*
X290274851Y-96464435D01*
X290322470Y-96654911D01*
X290370089Y-96750149D01*
X290465327Y-96845387D01*
X290608185Y-96893006D01*
X290846280Y-96893006D01*
X289322470Y-96893006D02*
X289893899Y-96893006D01*
X289608185Y-96893006D02*
X289608185Y-95893006D01*
X289703423Y-96035863D01*
X289798661Y-96131101D01*
X289893899Y-96178720D01*
X144661161Y-136183631D02*
X144661161Y-135183631D01*
X144423066Y-135183631D01*
X144280208Y-135231250D01*
X144184970Y-135326488D01*
X144137351Y-135421726D01*
X144089732Y-135612202D01*
X144089732Y-135755060D01*
X144137351Y-135945536D01*
X144184970Y-136040774D01*
X144280208Y-136136012D01*
X144423066Y-136183631D01*
X144661161Y-136183631D01*
X143232589Y-135516964D02*
X143232589Y-136183631D01*
X143470685Y-135136012D02*
X143708780Y-135850298D01*
X143089732Y-135850298D01*
X142280208Y-135516964D02*
X142280208Y-136183631D01*
X142518304Y-135136012D02*
X142756399Y-135850298D01*
X142137351Y-135850298D01*
X170141666Y-125819643D02*
X170189285Y-125867262D01*
X170332142Y-125914881D01*
X170427380Y-125914881D01*
X170570238Y-125867262D01*
X170665476Y-125772024D01*
X170713095Y-125676786D01*
X170760714Y-125486310D01*
X170760714Y-125343452D01*
X170713095Y-125152976D01*
X170665476Y-125057738D01*
X170570238Y-124962500D01*
X170427380Y-124914881D01*
X170332142Y-124914881D01*
X170189285Y-124962500D01*
X170141666Y-125010119D01*
X169189285Y-125914881D02*
X169760714Y-125914881D01*
X169475000Y-125914881D02*
X169475000Y-124914881D01*
X169570238Y-125057738D01*
X169665476Y-125152976D01*
X169760714Y-125200595D01*
X170141666Y-132119643D02*
X170189285Y-132167262D01*
X170332142Y-132214881D01*
X170427380Y-132214881D01*
X170570238Y-132167262D01*
X170665476Y-132072024D01*
X170713095Y-131976786D01*
X170760714Y-131786310D01*
X170760714Y-131643452D01*
X170713095Y-131452976D01*
X170665476Y-131357738D01*
X170570238Y-131262500D01*
X170427380Y-131214881D01*
X170332142Y-131214881D01*
X170189285Y-131262500D01*
X170141666Y-131310119D01*
X169760714Y-131310119D02*
X169713095Y-131262500D01*
X169617857Y-131214881D01*
X169379761Y-131214881D01*
X169284523Y-131262500D01*
X169236904Y-131310119D01*
X169189285Y-131405357D01*
X169189285Y-131500595D01*
X169236904Y-131643452D01*
X169808333Y-132214881D01*
X169189285Y-132214881D01*
X184641666Y-131519643D02*
X184689285Y-131567262D01*
X184832142Y-131614881D01*
X184927380Y-131614881D01*
X185070238Y-131567262D01*
X185165476Y-131472024D01*
X185213095Y-131376786D01*
X185260714Y-131186310D01*
X185260714Y-131043452D01*
X185213095Y-130852976D01*
X185165476Y-130757738D01*
X185070238Y-130662500D01*
X184927380Y-130614881D01*
X184832142Y-130614881D01*
X184689285Y-130662500D01*
X184641666Y-130710119D01*
X184308333Y-130614881D02*
X183689285Y-130614881D01*
X184022619Y-130995833D01*
X183879761Y-130995833D01*
X183784523Y-131043452D01*
X183736904Y-131091071D01*
X183689285Y-131186310D01*
X183689285Y-131424405D01*
X183736904Y-131519643D01*
X183784523Y-131567262D01*
X183879761Y-131614881D01*
X184165476Y-131614881D01*
X184260714Y-131567262D01*
X184308333Y-131519643D01*
X184441666Y-125219643D02*
X184489285Y-125267262D01*
X184632142Y-125314881D01*
X184727380Y-125314881D01*
X184870238Y-125267262D01*
X184965476Y-125172024D01*
X185013095Y-125076786D01*
X185060714Y-124886310D01*
X185060714Y-124743452D01*
X185013095Y-124552976D01*
X184965476Y-124457738D01*
X184870238Y-124362500D01*
X184727380Y-124314881D01*
X184632142Y-124314881D01*
X184489285Y-124362500D01*
X184441666Y-124410119D01*
X183584523Y-124648214D02*
X183584523Y-125314881D01*
X183822619Y-124267262D02*
X184060714Y-124981548D01*
X183441666Y-124981548D01*
X174641666Y-123219643D02*
X174689285Y-123267262D01*
X174832142Y-123314881D01*
X174927380Y-123314881D01*
X175070238Y-123267262D01*
X175165476Y-123172024D01*
X175213095Y-123076786D01*
X175260714Y-122886310D01*
X175260714Y-122743452D01*
X175213095Y-122552976D01*
X175165476Y-122457738D01*
X175070238Y-122362500D01*
X174927380Y-122314881D01*
X174832142Y-122314881D01*
X174689285Y-122362500D01*
X174641666Y-122410119D01*
X173736904Y-122314881D02*
X174213095Y-122314881D01*
X174260714Y-122791071D01*
X174213095Y-122743452D01*
X174117857Y-122695833D01*
X173879761Y-122695833D01*
X173784523Y-122743452D01*
X173736904Y-122791071D01*
X173689285Y-122886310D01*
X173689285Y-123124405D01*
X173736904Y-123219643D01*
X173784523Y-123267262D01*
X173879761Y-123314881D01*
X174117857Y-123314881D01*
X174213095Y-123267262D01*
X174260714Y-123219643D01*
X170041666Y-133519643D02*
X170089285Y-133567262D01*
X170232142Y-133614881D01*
X170327380Y-133614881D01*
X170470238Y-133567262D01*
X170565476Y-133472024D01*
X170613095Y-133376786D01*
X170660714Y-133186310D01*
X170660714Y-133043452D01*
X170613095Y-132852976D01*
X170565476Y-132757738D01*
X170470238Y-132662500D01*
X170327380Y-132614881D01*
X170232142Y-132614881D01*
X170089285Y-132662500D01*
X170041666Y-132710119D01*
X169184523Y-132614881D02*
X169375000Y-132614881D01*
X169470238Y-132662500D01*
X169517857Y-132710119D01*
X169613095Y-132852976D01*
X169660714Y-133043452D01*
X169660714Y-133424405D01*
X169613095Y-133519643D01*
X169565476Y-133567262D01*
X169470238Y-133614881D01*
X169279761Y-133614881D01*
X169184523Y-133567262D01*
X169136904Y-133519643D01*
X169089285Y-133424405D01*
X169089285Y-133186310D01*
X169136904Y-133091071D01*
X169184523Y-133043452D01*
X169279761Y-132995833D01*
X169470238Y-132995833D01*
X169565476Y-133043452D01*
X169613095Y-133091071D01*
X169660714Y-133186310D01*
X177832143Y-136195834D02*
X177879762Y-136148215D01*
X177927381Y-136005358D01*
X177927381Y-135910120D01*
X177879762Y-135767262D01*
X177784524Y-135672024D01*
X177689286Y-135624405D01*
X177498810Y-135576786D01*
X177355952Y-135576786D01*
X177165476Y-135624405D01*
X177070238Y-135672024D01*
X176975000Y-135767262D01*
X176927381Y-135910120D01*
X176927381Y-136005358D01*
X176975000Y-136148215D01*
X177022619Y-136195834D01*
X176927381Y-136529167D02*
X176927381Y-137195834D01*
X177927381Y-136767262D01*
X174832143Y-136195834D02*
X174879762Y-136148215D01*
X174927381Y-136005358D01*
X174927381Y-135910120D01*
X174879762Y-135767262D01*
X174784524Y-135672024D01*
X174689286Y-135624405D01*
X174498810Y-135576786D01*
X174355952Y-135576786D01*
X174165476Y-135624405D01*
X174070238Y-135672024D01*
X173975000Y-135767262D01*
X173927381Y-135910120D01*
X173927381Y-136005358D01*
X173975000Y-136148215D01*
X174022619Y-136195834D01*
X174355952Y-136767262D02*
X174308333Y-136672024D01*
X174260714Y-136624405D01*
X174165476Y-136576786D01*
X174117857Y-136576786D01*
X174022619Y-136624405D01*
X173975000Y-136672024D01*
X173927381Y-136767262D01*
X173927381Y-136957739D01*
X173975000Y-137052977D01*
X174022619Y-137100596D01*
X174117857Y-137148215D01*
X174165476Y-137148215D01*
X174260714Y-137100596D01*
X174308333Y-137052977D01*
X174355952Y-136957739D01*
X174355952Y-136767262D01*
X174403571Y-136672024D01*
X174451190Y-136624405D01*
X174546429Y-136576786D01*
X174736905Y-136576786D01*
X174832143Y-136624405D01*
X174879762Y-136672024D01*
X174927381Y-136767262D01*
X174927381Y-136957739D01*
X174879762Y-137052977D01*
X174832143Y-137100596D01*
X174736905Y-137148215D01*
X174546429Y-137148215D01*
X174451190Y-137100596D01*
X174403571Y-137052977D01*
X174355952Y-136957739D01*
X185101666Y-123814881D02*
X185435000Y-123338690D01*
X185673095Y-123814881D02*
X185673095Y-122814881D01*
X185292142Y-122814881D01*
X185196904Y-122862500D01*
X185149285Y-122910119D01*
X185101666Y-123005357D01*
X185101666Y-123148214D01*
X185149285Y-123243452D01*
X185196904Y-123291071D01*
X185292142Y-123338690D01*
X185673095Y-123338690D01*
X184244523Y-123148214D02*
X184244523Y-123814881D01*
X184482619Y-122767262D02*
X184720714Y-123481548D01*
X184101666Y-123481548D01*
X303289286Y-121614881D02*
X303289286Y-120614881D01*
X303051191Y-120614881D01*
X302908333Y-120662500D01*
X302813095Y-120757738D01*
X302765476Y-120852976D01*
X302717857Y-121043452D01*
X302717857Y-121186310D01*
X302765476Y-121376786D01*
X302813095Y-121472024D01*
X302908333Y-121567262D01*
X303051191Y-121614881D01*
X303289286Y-121614881D01*
X301860714Y-120948214D02*
X301860714Y-121614881D01*
X302098810Y-120567262D02*
X302336905Y-121281548D01*
X301717857Y-121281548D01*
X300765476Y-121519643D02*
X300813095Y-121567262D01*
X300955952Y-121614881D01*
X301051190Y-121614881D01*
X301194048Y-121567262D01*
X301289286Y-121472024D01*
X301336905Y-121376786D01*
X301384524Y-121186310D01*
X301384524Y-121043452D01*
X301336905Y-120852976D01*
X301289286Y-120757738D01*
X301194048Y-120662500D01*
X301051190Y-120614881D01*
X300955952Y-120614881D01*
X300813095Y-120662500D01*
X300765476Y-120710119D01*
X299813095Y-121614881D02*
X300384524Y-121614881D01*
X300098810Y-121614881D02*
X300098810Y-120614881D01*
X300194048Y-120757738D01*
X300289286Y-120852976D01*
X300384524Y-120900595D01*
X304704911Y-115943006D02*
X304704911Y-114943006D01*
X304466816Y-114943006D01*
X304323958Y-114990625D01*
X304228720Y-115085863D01*
X304181101Y-115181101D01*
X304133482Y-115371577D01*
X304133482Y-115514435D01*
X304181101Y-115704911D01*
X304228720Y-115800149D01*
X304323958Y-115895387D01*
X304466816Y-115943006D01*
X304704911Y-115943006D01*
X303800149Y-114943006D02*
X303181101Y-114943006D01*
X303514435Y-115323958D01*
X303371577Y-115323958D01*
X303276339Y-115371577D01*
X303228720Y-115419196D01*
X303181101Y-115514435D01*
X303181101Y-115752530D01*
X303228720Y-115847768D01*
X303276339Y-115895387D01*
X303371577Y-115943006D01*
X303657292Y-115943006D01*
X303752530Y-115895387D01*
X303800149Y-115847768D01*
X302181101Y-115847768D02*
X302228720Y-115895387D01*
X302371577Y-115943006D01*
X302466815Y-115943006D01*
X302609673Y-115895387D01*
X302704911Y-115800149D01*
X302752530Y-115704911D01*
X302800149Y-115514435D01*
X302800149Y-115371577D01*
X302752530Y-115181101D01*
X302704911Y-115085863D01*
X302609673Y-114990625D01*
X302466815Y-114943006D01*
X302371577Y-114943006D01*
X302228720Y-114990625D01*
X302181101Y-115038244D01*
X301228720Y-115943006D02*
X301800149Y-115943006D01*
X301514435Y-115943006D02*
X301514435Y-114943006D01*
X301609673Y-115085863D01*
X301704911Y-115181101D01*
X301800149Y-115228720D01*
M02*
