M48
INCH,TZ
T1C0.035
T2C0.067
T3C0.120
T4C0.157
%
G90
G05
T1
X1.7884Y-1.8583
X1.9616Y-1.8583
T2
X1.3Y-2.0625
X1.3938Y-3.5625
X1.3938Y-5.0625
X1.4875Y-2.8125
X1.5813Y-3.5625
X1.7Y-2.0625
X1.7688Y-4.3125
X1.7937Y-3.5625
X1.7937Y-5.0625
X1.8875Y-2.8125
X1.9812Y-3.5625
X2.05Y-2.0625
X2.1687Y-4.3125
X2.3312Y-5.0625
X2.425Y-2.8125
X2.45Y-2.0625
X2.6125Y-3.5625
X2.7312Y-5.0625
X2.8Y-2.0625
X2.825Y-2.8125
X2.9875Y-4.3125
X3.0125Y-3.5625
X3.175Y-2.8125
X3.2Y-2.0625
X3.2687Y-5.0625
X3.3625Y-3.5625
X3.3875Y-4.3125
X3.55Y-2.0625
X3.575Y-2.8125
X3.6687Y-5.0625
X3.7375Y-4.3125
X3.7625Y-3.5625
X3.925Y-2.8125
X3.95Y-2.0625
X4.1125Y-3.5625
X4.1375Y-4.3125
X4.2062Y-5.0625
X4.3Y-2.0625
X4.325Y-2.8125
X4.4875Y-4.3125
X4.5125Y-3.5625
X4.6063Y-5.0625
X4.675Y-2.8125
X4.7Y-2.0625
X4.8625Y-3.5625
X4.8875Y-4.3125
X5.05Y-2.0625
X5.075Y-2.8125
X5.2375Y-4.3125
X5.2625Y-3.5625
X5.425Y-2.8125
X5.45Y-2.0625
X5.5187Y-5.0625
X5.6125Y-3.5625
X5.6375Y-4.3125
X5.8Y-2.0625
X5.825Y-2.8125
X5.9188Y-5.0625
X5.9875Y-4.3125
X6.0125Y-3.5625
X6.0812Y-5.0625
X6.175Y-2.8125
X6.2Y-2.0625
X6.3625Y-3.5625
X6.3875Y-4.3125
X6.4813Y-5.0625
X6.55Y-2.0625
X6.575Y-2.8125
X6.7375Y-4.3125
X6.7625Y-3.5625
X6.925Y-2.8125
X6.95Y-2.0625
X7.1125Y-3.5625
X7.1375Y-4.3125
X7.3Y-2.0625
X7.325Y-2.8125
X7.3937Y-5.0625
X7.4875Y-4.3125
X7.5125Y-3.5625
X7.675Y-2.8125
X7.7Y-2.0625
X7.7938Y-5.0625
X7.8625Y-3.5625
X7.8875Y-4.3125
X8.05Y-2.0625
X8.075Y-2.8125
X8.2375Y-4.3125
X8.2625Y-3.5625
X8.425Y-2.8125
X8.45Y-2.0625
X8.6125Y-3.5625
X8.6375Y-4.3125
X8.8Y-2.0625
X8.8Y-5.0625
X8.825Y-2.8125
X8.8937Y-5.0625
X8.9875Y-4.3125
X9.0125Y-3.5625
X9.175Y-2.8125
X9.2Y-2.0625
X9.2Y-5.0625
X9.2937Y-5.0625
X9.3625Y-3.5625
X9.3875Y-4.3125
X9.55Y-2.0625
X9.55Y-5.0625
X9.575Y-2.8125
X9.7375Y-4.3125
X9.7625Y-3.5625
X9.8312Y-5.0625
X9.925Y-2.8125
X9.95Y-2.0625
X9.95Y-5.0625
X10.1125Y-3.5625
X10.1375Y-4.3125
X10.2312Y-5.0625
X10.3Y-2.0625
X10.3Y-5.0625
X10.325Y-2.8125
X10.5125Y-3.5625
X10.675Y-2.8125
X10.7Y-2.0625
X10.7Y-5.0625
X10.7687Y-4.3125
X10.7687Y-5.0625
X11.05Y-5.0625
X11.075Y-2.8125
X11.1437Y-4.3125
X11.1687Y-4.3125
X11.1687Y-5.0625
X11.3312Y-3.5625
X11.4244Y-2.06
X11.45Y-5.0625
X11.5437Y-4.3125
X11.6125Y-2.8125
X11.7062Y-5.0625
X11.7312Y-3.5625
X11.8Y-4.3125
X11.8Y-5.0625
X11.8244Y-2.06
X12.0125Y-2.8125
X12.1062Y-5.0625
X12.2Y-4.3125
X12.2Y-5.0625
T3
X1.4988Y-4.5875
X2.4387Y-4.5875
X4.3113Y-5.3375
X5.2488Y-5.3375
X6.1887Y-5.3375
X7.1238Y-5.3375
X8.0638Y-5.3375
X8.2513Y-5.3375
X10.8737Y-4.5875
X11.0612Y-3.8375
X11.155Y-1.7875
X11.8137Y-4.5875
X12.0012Y-3.8375
X12.095Y-1.7875
T4
X1.4988Y-3.9875
X1.5Y-2.0625
X1.5938Y-3.5625
X1.5938Y-5.0625
X1.6875Y-2.8125
X1.7812Y-3.5625
X1.9688Y-4.3125
X2.25Y-2.0625
X2.4387Y-3.9875
X2.5312Y-5.0625
X2.625Y-2.8125
X2.8125Y-3.5625
X3.Y-2.0625
X3.1875Y-4.3125
X3.375Y-2.8125
X3.4688Y-5.0625
X3.5625Y-3.5625
X3.75Y-2.0625
X3.9375Y-4.3125
X4.125Y-2.8125
X4.3113Y-4.7375
X4.3125Y-3.5625
X4.4062Y-5.0625
X4.5Y-2.0625
X4.6875Y-4.3125
X4.875Y-2.8125
X5.0625Y-3.5625
X5.2488Y-4.7375
X5.25Y-2.0625
X5.4375Y-4.3125
X5.625Y-2.8125
X5.7188Y-5.0625
X5.8125Y-3.5625
X6.Y-2.0625
X6.1875Y-4.3125
X6.1887Y-4.7375
X6.2812Y-5.0625
X6.375Y-2.8125
X6.5625Y-3.5625
X6.75Y-2.0625
X6.9375Y-4.3125
X7.1238Y-4.7375
X7.125Y-2.8125
X7.3125Y-3.5625
X7.5Y-2.0625
X7.5938Y-5.0625
X7.6875Y-4.3125
X7.875Y-2.8125
X8.0625Y-3.5625
X8.0638Y-4.7375
X8.25Y-2.0625
X8.2513Y-4.7375
X8.4375Y-4.3125
X8.625Y-2.8125
X8.8125Y-3.5625
X9.Y-2.0625
X9.Y-5.0625
X9.0938Y-5.0625
X9.1875Y-4.3125
X9.375Y-2.8125
X9.5625Y-3.5625
X9.75Y-2.0625
X9.75Y-5.0625
X9.9375Y-4.3125
X10.0312Y-5.0625
X10.125Y-2.8125
X10.3125Y-3.5625
X10.5Y-2.0625
X10.5Y-5.0625
X10.8737Y-3.9875
X10.875Y-2.8125
X10.9688Y-4.3125
X10.9688Y-5.0625
X11.0612Y-3.2375
X11.155Y-2.3875
X11.25Y-5.0625
X11.3438Y-4.3125
X11.5312Y-3.5625
X11.6244Y-2.06
X11.8125Y-2.8125
X11.8137Y-3.9875
X11.9062Y-5.0625
X12.Y-4.3125
X12.Y-5.0625
X12.0012Y-3.2375
X12.095Y-2.3875
T0
M30
