G04 #@! TF.FileFunction,Soldermask,Bot*
%FSLAX46Y46*%
G04 Gerber Fmt 4.6, Leading zero omitted, Abs format (unit mm)*
G04 Created by KiCad (PCBNEW 4.0.5+dfsg1-4) date Wed May  9 21:18:07 2018*
%MOMM*%
%LPD*%
G01*
G04 APERTURE LIST*
%ADD10C,0.100000*%
%ADD11R,2.400000X2.400000*%
%ADD12R,1.400000X1.650000*%
%ADD13C,2.686000*%
%ADD14R,0.650000X1.100000*%
%ADD15R,1.100000X0.650000*%
%ADD16R,1.687500X1.687500*%
%ADD17R,0.900000X2.700000*%
%ADD18R,2.400000X2.900000*%
%ADD19C,1.300000*%
%ADD20R,1.400000X2.100000*%
%ADD21C,7.400000*%
%ADD22R,1.650000X1.400000*%
%ADD23R,1.600000X1.800000*%
%ADD24R,1.200000X1.150000*%
%ADD25R,1.150000X1.200000*%
%ADD26R,0.900000X1.300000*%
G04 APERTURE END LIST*
D10*
D11*
X185737500Y-111275000D03*
X185737500Y-98275000D03*
D12*
X114300000Y-135731250D03*
X112300000Y-135731250D03*
D13*
X109378750Y-133667500D03*
X115728750Y-131127500D03*
X157003750Y-133667500D03*
X163353750Y-131127500D03*
X85566250Y-133667500D03*
X91916250Y-131127500D03*
D14*
X178175000Y-131162500D03*
X177675000Y-131162500D03*
X177175000Y-131162500D03*
X176675000Y-131162500D03*
X176175000Y-131162500D03*
X175675000Y-131162500D03*
X175175000Y-131162500D03*
X174675000Y-131162500D03*
X174175000Y-131162500D03*
X173675000Y-131162500D03*
X173175000Y-131162500D03*
D15*
X172275000Y-130262500D03*
X172275000Y-129762500D03*
X172275000Y-129262500D03*
X172275000Y-128762500D03*
X172275000Y-128262500D03*
X172275000Y-127762500D03*
X172275000Y-127262500D03*
X172275000Y-126762500D03*
X172275000Y-126262500D03*
X172275000Y-125762500D03*
X172275000Y-125262500D03*
D14*
X173175000Y-124362500D03*
X173675000Y-124362500D03*
X174175000Y-124362500D03*
X174675000Y-124362500D03*
X175175000Y-124362500D03*
X175675000Y-124362500D03*
X176175000Y-124362500D03*
X176675000Y-124362500D03*
X177175000Y-124362500D03*
X177675000Y-124362500D03*
X178175000Y-124362500D03*
D15*
X179075000Y-125262500D03*
X179075000Y-125762500D03*
X179075000Y-126262500D03*
X179075000Y-126762500D03*
X179075000Y-127262500D03*
X179075000Y-127762500D03*
X179075000Y-128262500D03*
X179075000Y-128762500D03*
X179075000Y-129262500D03*
X179075000Y-129762500D03*
X179075000Y-130262500D03*
D16*
X173743750Y-125831250D03*
X175031250Y-125831250D03*
X176318750Y-125831250D03*
X177606250Y-125831250D03*
X173743750Y-127118750D03*
X175031250Y-127118750D03*
X176318750Y-127118750D03*
X177606250Y-127118750D03*
X173743750Y-128406250D03*
X175031250Y-128406250D03*
X176318750Y-128406250D03*
X177606250Y-128406250D03*
X173743750Y-129693750D03*
X175031250Y-129693750D03*
X176318750Y-129693750D03*
X177606250Y-129693750D03*
D12*
X121253125Y-115490625D03*
X119253125Y-115490625D03*
X216503125Y-115490625D03*
X214503125Y-115490625D03*
D13*
X211772500Y-114617500D03*
X218122500Y-112077500D03*
X116522500Y-114617500D03*
X122872500Y-112077500D03*
X106997500Y-95567500D03*
X113347500Y-93027500D03*
D12*
X83153125Y-115490625D03*
X81153125Y-115490625D03*
D13*
X290353750Y-95567500D03*
X296703750Y-93027500D03*
X142716250Y-133667500D03*
X149066250Y-131127500D03*
X97472500Y-114617500D03*
X103822500Y-112077500D03*
D12*
X102203125Y-115490625D03*
X100203125Y-115490625D03*
D13*
X40322500Y-76517500D03*
X46672500Y-73977500D03*
X54610000Y-57467500D03*
X60960000Y-54927500D03*
X168910000Y-57467500D03*
X175260000Y-54927500D03*
X73660000Y-57467500D03*
X80010000Y-54927500D03*
X35560000Y-57467500D03*
X41910000Y-54927500D03*
X226060000Y-57467500D03*
X232410000Y-54927500D03*
X245110000Y-57467500D03*
X251460000Y-54927500D03*
X264160000Y-57467500D03*
X270510000Y-54927500D03*
X235585000Y-76517500D03*
X241935000Y-73977500D03*
X254635000Y-76517500D03*
X260985000Y-73977500D03*
X273685000Y-76517500D03*
X280035000Y-73977500D03*
X297497500Y-76517500D03*
X303847500Y-73977500D03*
X240347500Y-95567500D03*
X246697500Y-93027500D03*
X259397500Y-95567500D03*
X265747500Y-93027500D03*
X92710000Y-57467500D03*
X99060000Y-54927500D03*
X249872500Y-114617500D03*
X256222500Y-112077500D03*
X111760000Y-57467500D03*
X118110000Y-54927500D03*
X130810000Y-57467500D03*
X137160000Y-54927500D03*
X149860000Y-57467500D03*
X156210000Y-54927500D03*
X187960000Y-57467500D03*
X194310000Y-54927500D03*
X207010000Y-57467500D03*
X213360000Y-54927500D03*
X64135000Y-76517500D03*
X70485000Y-73977500D03*
X83185000Y-76517500D03*
X89535000Y-73977500D03*
X102235000Y-76517500D03*
X108585000Y-73977500D03*
X121285000Y-76517500D03*
X127635000Y-73977500D03*
X140335000Y-76517500D03*
X146685000Y-73977500D03*
X159385000Y-76517500D03*
X165735000Y-73977500D03*
X178435000Y-76517500D03*
X184785000Y-73977500D03*
X197485000Y-76517500D03*
X203835000Y-73977500D03*
X216535000Y-76517500D03*
X222885000Y-73977500D03*
X42703750Y-95567500D03*
X49053750Y-93027500D03*
X68897500Y-95567500D03*
X75247500Y-93027500D03*
X87947500Y-95567500D03*
X94297500Y-93027500D03*
X126047500Y-95567500D03*
X132397500Y-93027500D03*
X145097500Y-95567500D03*
X151447500Y-93027500D03*
X164147500Y-95567500D03*
X170497500Y-93027500D03*
X183197500Y-95567500D03*
X189547500Y-93027500D03*
X202247500Y-95567500D03*
X208597500Y-93027500D03*
X221297500Y-95567500D03*
X227647500Y-93027500D03*
X135572500Y-114617500D03*
X141922500Y-112077500D03*
X154622500Y-114617500D03*
X160972500Y-112077500D03*
X173672500Y-114617500D03*
X180022500Y-112077500D03*
X192722500Y-114617500D03*
X199072500Y-112077500D03*
X230822500Y-114617500D03*
X237172500Y-112077500D03*
X37941250Y-133667500D03*
X44291250Y-131127500D03*
X61753750Y-133667500D03*
X68103750Y-131127500D03*
D17*
X46025000Y-49800000D03*
X46825000Y-49800000D03*
X47625000Y-49800000D03*
X48425000Y-49800000D03*
X49225000Y-49800000D03*
D18*
X43175000Y-49700000D03*
X43175000Y-44200000D03*
X52075000Y-49700000D03*
X52075000Y-44200000D03*
D19*
X45425000Y-47200000D03*
X49825000Y-47200000D03*
D20*
X55175000Y-87212500D03*
X55175000Y-93512500D03*
X58975000Y-87212500D03*
X58975000Y-93512500D03*
D21*
X54768750Y-71437500D03*
X157162500Y-90487500D03*
X289622500Y-71437500D03*
X219075000Y-128587500D03*
D13*
X276066250Y-133667500D03*
X282416250Y-131127500D03*
X299878750Y-133667500D03*
X306228750Y-131127500D03*
X47466250Y-114617500D03*
X53816250Y-112077500D03*
X228441250Y-133667500D03*
X234791250Y-131127500D03*
X252253750Y-133667500D03*
X258603750Y-131127500D03*
D22*
X187075000Y-113562500D03*
X187075000Y-115562500D03*
D23*
X166725000Y-129662500D03*
X166725000Y-127462500D03*
X168425000Y-127462500D03*
X168425000Y-129662500D03*
D22*
X48869600Y-55631840D03*
X48869600Y-57631840D03*
X46296580Y-57631840D03*
X46296580Y-55631840D03*
D12*
X56075000Y-95862500D03*
X58075000Y-95862500D03*
D22*
X184375000Y-115562500D03*
X184375000Y-113562500D03*
D12*
X40290625Y-58340625D03*
X38290625Y-58340625D03*
X230790625Y-58340625D03*
X228790625Y-58340625D03*
X249840625Y-58340625D03*
X247840625Y-58340625D03*
X268890625Y-58340625D03*
X266890625Y-58340625D03*
X298656250Y-58340625D03*
X296656250Y-58340625D03*
X59340625Y-58340625D03*
X57340625Y-58340625D03*
X240315625Y-77390625D03*
X238315625Y-77390625D03*
X259365625Y-77390625D03*
X257365625Y-77390625D03*
X278415625Y-77390625D03*
X276415625Y-77390625D03*
X302418750Y-77390625D03*
X300418750Y-77390625D03*
X78390625Y-58340625D03*
X76390625Y-58340625D03*
X245078125Y-96440625D03*
X243078125Y-96440625D03*
X264128125Y-96440625D03*
X262128125Y-96440625D03*
X97440625Y-58340625D03*
X95440625Y-58340625D03*
X254603125Y-115490625D03*
X252603125Y-115490625D03*
X290321875Y-115490625D03*
X288321875Y-115490625D03*
X116490625Y-58340625D03*
X114490625Y-58340625D03*
X280796875Y-134540625D03*
X278796875Y-134540625D03*
X304609375Y-134540625D03*
X302609375Y-134540625D03*
X135540625Y-58340625D03*
X133540625Y-58340625D03*
X154590625Y-58340625D03*
X152590625Y-58340625D03*
X173640625Y-58340625D03*
X171640625Y-58340625D03*
X192575000Y-58340625D03*
X190575000Y-58340625D03*
X211740625Y-58340625D03*
X209740625Y-58340625D03*
X45053125Y-77390625D03*
X43053125Y-77390625D03*
X68725000Y-77390625D03*
X66725000Y-77390625D03*
X87915625Y-77390625D03*
X85915625Y-77390625D03*
X106965625Y-77390625D03*
X104965625Y-77390625D03*
X126015625Y-77390625D03*
X124015625Y-77390625D03*
X145065625Y-77390625D03*
X143065625Y-77390625D03*
X164115625Y-77390625D03*
X162115625Y-77390625D03*
X183165625Y-77390625D03*
X181165625Y-77390625D03*
X202215625Y-77390625D03*
X200215625Y-77390625D03*
X221265625Y-77390625D03*
X219265625Y-77390625D03*
X47434375Y-96440625D03*
X45434375Y-96440625D03*
X73628125Y-96440625D03*
X71628125Y-96440625D03*
X92678125Y-96440625D03*
X90678125Y-96440625D03*
X111728125Y-96440625D03*
X109728125Y-96440625D03*
X130778125Y-96440625D03*
X128778125Y-96440625D03*
X149828125Y-96440625D03*
X147828125Y-96440625D03*
X168878125Y-96440625D03*
X166878125Y-96440625D03*
X187928125Y-95250000D03*
X185928125Y-95250000D03*
X206978125Y-96440625D03*
X204978125Y-96440625D03*
X226028125Y-96440625D03*
X224028125Y-96440625D03*
X52196875Y-115490625D03*
X50196875Y-115490625D03*
X140303125Y-115490625D03*
X138303125Y-115490625D03*
X159353125Y-115490625D03*
X157353125Y-115490625D03*
X178403125Y-115490625D03*
X176403125Y-115490625D03*
X197453125Y-115490625D03*
X195453125Y-115490625D03*
X235553125Y-115490625D03*
X233553125Y-115490625D03*
X42671875Y-134540625D03*
X40671875Y-134540625D03*
X66484375Y-134540625D03*
X64484375Y-134540625D03*
X90296875Y-134540625D03*
X88296875Y-134540625D03*
X161734375Y-135731250D03*
X159734375Y-135731250D03*
X233171875Y-134540625D03*
X231171875Y-134540625D03*
X256984375Y-134540625D03*
X254984375Y-134540625D03*
D13*
X37941250Y-95567500D03*
X44291250Y-93027500D03*
D12*
X295084375Y-96440625D03*
X293084375Y-96440625D03*
X147446875Y-135731250D03*
X145446875Y-135731250D03*
D13*
X190341250Y-133667500D03*
X196691250Y-131127500D03*
X292718572Y-57404362D03*
X299068572Y-54864362D03*
X285591250Y-114617500D03*
X291941250Y-112077500D03*
X78422500Y-114617500D03*
X84772500Y-112077500D03*
D24*
X166825000Y-125462500D03*
X168325000Y-125462500D03*
X166725000Y-131662500D03*
X168225000Y-131662500D03*
X181225000Y-131062500D03*
X182725000Y-131062500D03*
X181125000Y-124762500D03*
X182625000Y-124762500D03*
X172875000Y-122762500D03*
X171375000Y-122762500D03*
X168225000Y-133062500D03*
X166725000Y-133062500D03*
D25*
X177375000Y-133112500D03*
X177375000Y-134612500D03*
X174375000Y-133112500D03*
X174375000Y-134612500D03*
D26*
X181925000Y-123262500D03*
X183425000Y-123262500D03*
D12*
X305575000Y-121162500D03*
X303575000Y-121162500D03*
D13*
X264160000Y-133667500D03*
X270510000Y-131127500D03*
X283210000Y-133667500D03*
X289560000Y-131127500D03*
X307340000Y-123507500D03*
X300990000Y-126047500D03*
X226060000Y-133667500D03*
X232410000Y-131127500D03*
X245110000Y-133667500D03*
X251460000Y-131127500D03*
D12*
X306990625Y-115490625D03*
X304990625Y-115490625D03*
D13*
X276066250Y-114617500D03*
X282416250Y-112077500D03*
X302260000Y-114617500D03*
X308610000Y-112077500D03*
M02*
